<ttFont>
    <TTGlyph name="A" xMin="58" yMin="0" xMax="778" yMax="720">
      <contour>
        <pt x="178" y="720" on="1"/>
        <pt x="658" y="720" on="1"/>
        <pt x="708" y="720" on="0"/>
        <pt x="778" y="650" on="0"/>
        <pt x="778" y="600" on="1"/>
        <pt x="778" y="0" on="1"/>
        <pt x="697" y="0" on="1"/>
        <pt x="697" y="263" on="1"/>
        <pt x="139" y="263" on="1"/>
        <pt x="139" y="0" on="1"/>
        <pt x="58" y="0" on="1"/>
        <pt x="58" y="600" on="1"/>
        <pt x="58" y="650" on="0"/>
        <pt x="128" y="720" on="0"/>
      </contour>
      <contour>
        <pt x="139" y="344" on="1"/>
        <pt x="697" y="344" on="1"/>
        <pt x="697" y="600" on="1"/>
        <pt x="697" y="616" on="0"/>
        <pt x="674" y="639" on="0"/>
        <pt x="658" y="639" on="1"/>
        <pt x="178" y="639" on="1"/>
        <pt x="162" y="639" on="0"/>
        <pt x="139" y="616" on="0"/>
        <pt x="139" y="600" on="1"/>
      </contour>
    </TTGlyph>
    <TTGlyph name="A.alt" xMin="4" yMin="0" xMax="728" yMax="721">
      <contour>
        <pt x="111" y="0" on="1"/>
        <pt x="4" y="0" on="1"/>
        <pt x="616" y="721" on="1"/>
        <pt x="728" y="721" on="1"/>
        <pt x="728" y="0" on="1"/>
        <pt x="645" y="0" on="1"/>
        <pt x="645" y="202" on="1"/>
        <pt x="281" y="202" on="1"/>
      </contour>
      <contour>
        <pt x="645" y="629" on="1"/>
        <pt x="351" y="285" on="1"/>
        <pt x="645" y="285" on="1"/>
      </contour>
    </TTGlyph>
    <TTGlyph name="A.alt2" xMin="54" yMin="0" xMax="778" yMax="721">
      <contour>
        <pt x="54" y="721" on="1"/>
        <pt x="166" y="721" on="1"/>
        <pt x="778" y="0" on="1"/>
        <pt x="670" y="0" on="1"/>
        <pt x="499" y="202" on="1"/>
        <pt x="137" y="202" on="1"/>
        <pt x="137" y="0" on="1"/>
        <pt x="54" y="0" on="1"/>
      </contour>
      <contour>
        <pt x="137" y="629" on="1"/>
        <pt x="137" y="285" on="1"/>
        <pt x="432" y="285" on="1"/>
      </contour>
    </TTGlyph>
    <TTGlyph name="A.alt3" xMin="-28" yMin="0" xMax="837" yMax="720">
      <contour>
        <pt x="837" y="0" on="1"/>
        <pt x="742" y="0" on="1"/>
        <pt x="637" y="183" on="1"/>
        <pt x="173" y="183" on="1"/>
        <pt x="67" y="0" on="1"/>
        <pt x="-28" y="0" on="1"/>
        <pt x="358" y="720" on="1"/>
        <pt x="452" y="720" on="1"/>
      </contour>
      <contour>
        <pt x="405" y="644" on="1"/>
        <pt x="220" y="264" on="1"/>
        <pt x="588" y="264" on="1"/>
      </contour>
    </TTGlyph>
    <TTGlyph name="AE" xMin="54" yMin="0" xMax="1350" yMax="720">
      <contour>
        <pt x="774" y="639" on="1"/>
        <pt x="774" y="401" on="1"/>
        <pt x="1237" y="401" on="1"/>
        <pt x="1237" y="319" on="1"/>
        <pt x="774" y="319" on="1"/>
        <pt x="774" y="81" on="1"/>
        <pt x="1350" y="81" on="1"/>
        <pt x="1350" y="0" on="1"/>
        <pt x="693" y="0" on="1"/>
        <pt x="693" y="263" on="1"/>
        <pt x="135" y="263" on="1"/>
        <pt x="135" y="0" on="1"/>
        <pt x="54" y="0" on="1"/>
        <pt x="54" y="600" on="1"/>
        <pt x="54" y="650" on="0"/>
        <pt x="124" y="720" on="0"/>
        <pt x="174" y="720" on="1"/>
        <pt x="1350" y="720" on="1"/>
        <pt x="1350" y="639" on="1"/>
      </contour>
      <contour>
        <pt x="693" y="344" on="1"/>
        <pt x="693" y="600" on="1"/>
        <pt x="693" y="616" on="0"/>
        <pt x="670" y="639" on="0"/>
        <pt x="654" y="639" on="1"/>
        <pt x="174" y="639" on="1"/>
        <pt x="158" y="639" on="0"/>
        <pt x="135" y="616" on="0"/>
        <pt x="135" y="600" on="1"/>
        <pt x="135" y="344" on="1"/>
      </contour>
    </TTGlyph>
    <TTGlyph name="Aacute" xMin="58" yMin="0" xMax="778" yMax="1003">
      <contour>
        <pt x="178" y="720" on="1"/>
        <pt x="658" y="720" on="1"/>
        <pt x="708" y="720" on="0"/>
        <pt x="778" y="650" on="0"/>
        <pt x="778" y="600" on="1"/>
        <pt x="778" y="0" on="1"/>
        <pt x="697" y="0" on="1"/>
        <pt x="697" y="263" on="1"/>
        <pt x="139" y="263" on="1"/>
        <pt x="139" y="0" on="1"/>
        <pt x="58" y="0" on="1"/>
        <pt x="58" y="600" on="1"/>
        <pt x="58" y="650" on="0"/>
        <pt x="128" y="720" on="0"/>
      </contour>
      <contour>
        <pt x="139" y="344" on="1"/>
        <pt x="697" y="344" on="1"/>
        <pt x="697" y="600" on="1"/>
        <pt x="697" y="616" on="0"/>
        <pt x="674" y="639" on="0"/>
        <pt x="658" y="639" on="1"/>
        <pt x="178" y="639" on="1"/>
        <pt x="162" y="639" on="0"/>
        <pt x="139" y="616" on="0"/>
        <pt x="139" y="600" on="1"/>
      </contour>
      <contour>
        <pt x="344" y="864" on="1"/>
        <pt x="379" y="1003" on="1"/>
        <pt x="458" y="1003" on="1"/>
        <pt x="424" y="864" on="1"/>
      </contour>
    </TTGlyph>
    <TTGlyph name="Acircumflex" xMin="58" yMin="0" xMax="778" yMax="981">
      <contour>
        <pt x="178" y="720" on="1"/>
        <pt x="658" y="720" on="1"/>
        <pt x="708" y="720" on="0"/>
        <pt x="778" y="650" on="0"/>
        <pt x="778" y="600" on="1"/>
        <pt x="778" y="0" on="1"/>
        <pt x="697" y="0" on="1"/>
        <pt x="697" y="263" on="1"/>
        <pt x="139" y="263" on="1"/>
        <pt x="139" y="0" on="1"/>
        <pt x="58" y="0" on="1"/>
        <pt x="58" y="600" on="1"/>
        <pt x="58" y="650" on="0"/>
        <pt x="128" y="720" on="0"/>
      </contour>
      <contour>
        <pt x="139" y="344" on="1"/>
        <pt x="697" y="344" on="1"/>
        <pt x="697" y="600" on="1"/>
        <pt x="697" y="616" on="0"/>
        <pt x="674" y="639" on="0"/>
        <pt x="658" y="639" on="1"/>
        <pt x="178" y="639" on="1"/>
        <pt x="162" y="639" on="0"/>
        <pt x="139" y="616" on="0"/>
        <pt x="139" y="600" on="1"/>
      </contour>
      <contour>
        <pt x="337" y="864" on="1"/>
        <pt x="296" y="864" on="1"/>
        <pt x="367" y="981" on="1"/>
        <pt x="426" y="981" on="1"/>
        <pt x="497" y="864" on="1"/>
        <pt x="455" y="864" on="1"/>
        <pt x="397" y="949" on="1"/>
      </contour>
    </TTGlyph>
    <TTGlyph name="Adieresis" xMin="58" yMin="0" xMax="778" yMax="937">
      <contour>
        <pt x="178" y="720" on="1"/>
        <pt x="658" y="720" on="1"/>
        <pt x="708" y="720" on="0"/>
        <pt x="778" y="650" on="0"/>
        <pt x="778" y="600" on="1"/>
        <pt x="778" y="0" on="1"/>
        <pt x="697" y="0" on="1"/>
        <pt x="697" y="263" on="1"/>
        <pt x="139" y="263" on="1"/>
        <pt x="139" y="0" on="1"/>
        <pt x="58" y="0" on="1"/>
        <pt x="58" y="600" on="1"/>
        <pt x="58" y="650" on="0"/>
        <pt x="128" y="720" on="0"/>
      </contour>
      <contour>
        <pt x="139" y="344" on="1"/>
        <pt x="697" y="344" on="1"/>
        <pt x="697" y="600" on="1"/>
        <pt x="697" y="616" on="0"/>
        <pt x="674" y="639" on="0"/>
        <pt x="658" y="639" on="1"/>
        <pt x="178" y="639" on="1"/>
        <pt x="162" y="639" on="0"/>
        <pt x="139" y="616" on="0"/>
        <pt x="139" y="600" on="1"/>
      </contour>
      <contour>
        <pt x="541" y="937" on="1"/>
        <pt x="541" y="855" on="1"/>
        <pt x="459" y="855" on="1"/>
        <pt x="459" y="937" on="1"/>
      </contour>
      <contour>
        <pt x="362" y="937" on="1"/>
        <pt x="362" y="855" on="1"/>
        <pt x="279" y="855" on="1"/>
        <pt x="279" y="937" on="1"/>
      </contour>
    </TTGlyph>
    <TTGlyph name="Agrave" xMin="58" yMin="0" xMax="778" yMax="1004">
      <contour>
        <pt x="178" y="720" on="1"/>
        <pt x="658" y="720" on="1"/>
        <pt x="708" y="720" on="0"/>
        <pt x="778" y="650" on="0"/>
        <pt x="778" y="600" on="1"/>
        <pt x="778" y="0" on="1"/>
        <pt x="697" y="0" on="1"/>
        <pt x="697" y="263" on="1"/>
        <pt x="139" y="263" on="1"/>
        <pt x="139" y="0" on="1"/>
        <pt x="58" y="0" on="1"/>
        <pt x="58" y="600" on="1"/>
        <pt x="58" y="650" on="0"/>
        <pt x="128" y="720" on="0"/>
      </contour>
      <contour>
        <pt x="139" y="344" on="1"/>
        <pt x="697" y="344" on="1"/>
        <pt x="697" y="600" on="1"/>
        <pt x="697" y="616" on="0"/>
        <pt x="674" y="639" on="0"/>
        <pt x="658" y="639" on="1"/>
        <pt x="178" y="639" on="1"/>
        <pt x="162" y="639" on="0"/>
        <pt x="139" y="616" on="0"/>
        <pt x="139" y="600" on="1"/>
      </contour>
      <contour>
        <pt x="425" y="1004" on="1"/>
        <pt x="459" y="865" on="1"/>
        <pt x="379" y="865" on="1"/>
        <pt x="344" y="1004" on="1"/>
      </contour>
    </TTGlyph>
    <TTGlyph name="Aring" xMin="58" yMin="0" xMax="778" yMax="981">
      <contour>
        <pt x="178" y="720" on="1"/>
        <pt x="658" y="720" on="1"/>
        <pt x="708" y="720" on="0"/>
        <pt x="778" y="650" on="0"/>
        <pt x="778" y="600" on="1"/>
        <pt x="778" y="0" on="1"/>
        <pt x="697" y="0" on="1"/>
        <pt x="697" y="263" on="1"/>
        <pt x="139" y="263" on="1"/>
        <pt x="139" y="0" on="1"/>
        <pt x="58" y="0" on="1"/>
        <pt x="58" y="600" on="1"/>
        <pt x="58" y="650" on="0"/>
        <pt x="128" y="720" on="0"/>
      </contour>
      <contour>
        <pt x="139" y="344" on="1"/>
        <pt x="697" y="344" on="1"/>
        <pt x="697" y="600" on="1"/>
        <pt x="697" y="616" on="0"/>
        <pt x="674" y="639" on="0"/>
        <pt x="658" y="639" on="1"/>
        <pt x="178" y="639" on="1"/>
        <pt x="162" y="639" on="0"/>
        <pt x="139" y="616" on="0"/>
        <pt x="139" y="600" on="1"/>
      </contour>
      <contour>
        <pt x="390" y="981" on="1"/>
        <pt x="446" y="981" on="1"/>
        <pt x="468" y="981" on="0"/>
        <pt x="500" y="950" on="0"/>
        <pt x="500" y="928" on="1"/>
        <pt x="500" y="874" on="1"/>
        <pt x="500" y="852" on="0"/>
        <pt x="468" y="821" on="0"/>
        <pt x="446" y="821" on="1"/>
        <pt x="390" y="821" on="1"/>
        <pt x="368" y="821" on="0"/>
        <pt x="336" y="852" on="0"/>
        <pt x="336" y="874" on="1"/>
        <pt x="336" y="928" on="1"/>
        <pt x="336" y="950" on="0"/>
        <pt x="368" y="981" on="0"/>
      </contour>
      <contour>
        <pt x="385" y="861" on="1"/>
        <pt x="451" y="861" on="1"/>
        <pt x="460" y="861" on="0"/>
        <pt x="460" y="871" on="1"/>
        <pt x="460" y="931" on="1"/>
        <pt x="460" y="941" on="0"/>
        <pt x="451" y="941" on="1"/>
        <pt x="385" y="941" on="1"/>
        <pt x="376" y="941" on="0"/>
        <pt x="376" y="931" on="1"/>
        <pt x="376" y="871" on="1"/>
        <pt x="376" y="861" on="0"/>
      </contour>
    </TTGlyph>
    <TTGlyph name="Atilde" xMin="58" yMin="0" xMax="778" yMax="989">
      <contour>
        <pt x="178" y="720" on="1"/>
        <pt x="658" y="720" on="1"/>
        <pt x="708" y="720" on="0"/>
        <pt x="778" y="650" on="0"/>
        <pt x="778" y="600" on="1"/>
        <pt x="778" y="0" on="1"/>
        <pt x="697" y="0" on="1"/>
        <pt x="697" y="263" on="1"/>
        <pt x="139" y="263" on="1"/>
        <pt x="139" y="0" on="1"/>
        <pt x="58" y="0" on="1"/>
        <pt x="58" y="600" on="1"/>
        <pt x="58" y="650" on="0"/>
        <pt x="128" y="720" on="0"/>
      </contour>
      <contour>
        <pt x="139" y="344" on="1"/>
        <pt x="697" y="344" on="1"/>
        <pt x="697" y="600" on="1"/>
        <pt x="697" y="616" on="0"/>
        <pt x="674" y="639" on="0"/>
        <pt x="658" y="639" on="1"/>
        <pt x="178" y="639" on="1"/>
        <pt x="162" y="639" on="0"/>
        <pt x="139" y="616" on="0"/>
        <pt x="139" y="600" on="1"/>
      </contour>
      <contour>
        <pt x="513" y="917" on="1"/>
        <pt x="515" y="917" on="1"/>
        <pt x="545" y="917" on="0"/>
        <pt x="581" y="934" on="1"/>
        <pt x="581" y="883" on="1"/>
        <pt x="543" y="869" on="0"/>
        <pt x="515" y="869" on="1"/>
        <pt x="480" y="869" on="0"/>
        <pt x="346" y="941" on="0"/>
        <pt x="304" y="941" on="1"/>
        <pt x="265" y="941" on="0"/>
        <pt x="242" y="933" on="1"/>
        <pt x="242" y="980" on="1"/>
        <pt x="269" y="989" on="0"/>
        <pt x="304" y="989" on="1"/>
        <pt x="344" y="989" on="0"/>
        <pt x="478" y="922" on="0"/>
      </contour>
    </TTGlyph>
    <TTGlyph name="B" xMin="59" yMin="0" xMax="779" yMax="720">
      <contour>
        <pt x="735" y="394" on="1"/>
        <pt x="739" y="377" on="1"/>
        <pt x="779" y="340" on="0"/>
        <pt x="779" y="288" on="1"/>
        <pt x="779" y="120" on="1"/>
        <pt x="779" y="70" on="0"/>
        <pt x="709" y="0" on="0"/>
        <pt x="659" y="0" on="1"/>
        <pt x="59" y="0" on="1"/>
        <pt x="59" y="720" on="1"/>
        <pt x="628" y="720" on="1"/>
        <pt x="678" y="720" on="0"/>
        <pt x="748" y="650" on="0"/>
        <pt x="748" y="600" on="1"/>
        <pt x="748" y="447" on="1"/>
        <pt x="748" y="420" on="0"/>
      </contour>
      <contour>
        <pt x="628" y="639" on="1"/>
        <pt x="179" y="639" on="1"/>
        <pt x="163" y="639" on="0"/>
        <pt x="140" y="616" on="0"/>
        <pt x="140" y="600" on="1"/>
        <pt x="140" y="447" on="1"/>
        <pt x="140" y="431" on="0"/>
        <pt x="163" y="408" on="0"/>
        <pt x="179" y="408" on="1"/>
        <pt x="628" y="408" on="1"/>
        <pt x="644" y="408" on="0"/>
        <pt x="666" y="431" on="0"/>
        <pt x="666" y="447" on="1"/>
        <pt x="666" y="600" on="1"/>
        <pt x="666" y="616" on="0"/>
        <pt x="644" y="639" on="0"/>
      </contour>
      <contour>
        <pt x="698" y="120" on="1"/>
        <pt x="698" y="288" on="1"/>
        <pt x="698" y="304" on="0"/>
        <pt x="675" y="327" on="0"/>
        <pt x="659" y="327" on="1"/>
        <pt x="179" y="327" on="1"/>
        <pt x="163" y="327" on="0"/>
        <pt x="140" y="304" on="0"/>
        <pt x="140" y="288" on="1"/>
        <pt x="140" y="120" on="1"/>
        <pt x="140" y="104" on="0"/>
        <pt x="163" y="81" on="0"/>
        <pt x="179" y="81" on="1"/>
        <pt x="659" y="81" on="1"/>
        <pt x="675" y="81" on="0"/>
        <pt x="698" y="104" on="0"/>
      </contour>
    </TTGlyph>
    <TTGlyph name="C" xMin="56" yMin="0" xMax="774" yMax="720">
      <contour>
        <pt x="774" y="639" on="1"/>
        <pt x="176" y="639" on="1"/>
        <pt x="160" y="639" on="0"/>
        <pt x="137" y="616" on="0"/>
        <pt x="137" y="600" on="1"/>
        <pt x="137" y="120" on="1"/>
        <pt x="137" y="104" on="0"/>
        <pt x="160" y="81" on="0"/>
        <pt x="176" y="81" on="1"/>
        <pt x="774" y="81" on="1"/>
        <pt x="774" y="0" on="1"/>
        <pt x="176" y="0" on="1"/>
        <pt x="126" y="0" on="0"/>
        <pt x="56" y="70" on="0"/>
        <pt x="56" y="120" on="1"/>
        <pt x="56" y="600" on="1"/>
        <pt x="56" y="650" on="0"/>
        <pt x="126" y="720" on="0"/>
        <pt x="176" y="720" on="1"/>
        <pt x="774" y="720" on="1"/>
      </contour>
    </TTGlyph>
    <TTGlyph name="C.alt" xMin="52" yMin="0" xMax="773" yMax="720">
      <contour>
        <pt x="770" y="620" on="1"/>
        <pt x="773" y="526" on="1"/>
        <pt x="692" y="526" on="1"/>
        <pt x="692" y="639" on="1"/>
        <pt x="172" y="639" on="1"/>
        <pt x="156" y="639" on="0"/>
        <pt x="133" y="616" on="0"/>
        <pt x="133" y="600" on="1"/>
        <pt x="133" y="120" on="1"/>
        <pt x="133" y="104" on="0"/>
        <pt x="156" y="81" on="0"/>
        <pt x="172" y="81" on="1"/>
        <pt x="692" y="81" on="1"/>
        <pt x="692" y="194" on="1"/>
        <pt x="770" y="194" on="1"/>
        <pt x="770" y="100" on="1"/>
        <pt x="758" y="60" on="0"/>
        <pt x="691" y="0" on="0"/>
        <pt x="652" y="0" on="1"/>
        <pt x="172" y="0" on="1"/>
        <pt x="122" y="0" on="0"/>
        <pt x="52" y="70" on="0"/>
        <pt x="52" y="120" on="1"/>
        <pt x="52" y="600" on="1"/>
        <pt x="52" y="650" on="0"/>
        <pt x="122" y="720" on="0"/>
        <pt x="172" y="720" on="1"/>
        <pt x="652" y="720" on="1"/>
        <pt x="691" y="720" on="0"/>
        <pt x="758" y="660" on="0"/>
      </contour>
    </TTGlyph>
    <TTGlyph name="Ccedilla" xMin="56" yMin="-139" xMax="774" yMax="720">
      <contour>
        <pt x="774" y="639" on="1"/>
        <pt x="176" y="639" on="1"/>
        <pt x="160" y="639" on="0"/>
        <pt x="137" y="616" on="0"/>
        <pt x="137" y="600" on="1"/>
        <pt x="137" y="120" on="1"/>
        <pt x="137" y="104" on="0"/>
        <pt x="160" y="81" on="0"/>
        <pt x="176" y="81" on="1"/>
        <pt x="774" y="81" on="1"/>
        <pt x="774" y="0" on="1"/>
        <pt x="451" y="0" on="1"/>
        <pt x="417" y="-139" on="1"/>
        <pt x="337" y="-139" on="1"/>
        <pt x="372" y="0" on="1"/>
        <pt x="176" y="0" on="1"/>
        <pt x="126" y="0" on="0"/>
        <pt x="56" y="70" on="0"/>
        <pt x="56" y="120" on="1"/>
        <pt x="56" y="600" on="1"/>
        <pt x="56" y="650" on="0"/>
        <pt x="126" y="720" on="0"/>
        <pt x="176" y="720" on="1"/>
        <pt x="774" y="720" on="1"/>
      </contour>
    </TTGlyph>
    <TTGlyph name="D" xMin="58" yMin="0" xMax="778" yMax="720">
      <contour>
        <pt x="58" y="720" on="1"/>
        <pt x="658" y="720" on="1"/>
        <pt x="708" y="720" on="0"/>
        <pt x="778" y="650" on="0"/>
        <pt x="778" y="600" on="1"/>
        <pt x="778" y="120" on="1"/>
        <pt x="778" y="70" on="0"/>
        <pt x="708" y="0" on="0"/>
        <pt x="658" y="0" on="1"/>
        <pt x="58" y="0" on="1"/>
      </contour>
      <contour>
        <pt x="697" y="120" on="1"/>
        <pt x="697" y="600" on="1"/>
        <pt x="697" y="616" on="0"/>
        <pt x="674" y="639" on="0"/>
        <pt x="658" y="639" on="1"/>
        <pt x="178" y="639" on="1"/>
        <pt x="162" y="639" on="0"/>
        <pt x="139" y="616" on="0"/>
        <pt x="139" y="600" on="1"/>
        <pt x="139" y="120" on="1"/>
        <pt x="139" y="104" on="0"/>
        <pt x="162" y="81" on="0"/>
        <pt x="178" y="81" on="1"/>
        <pt x="658" y="81" on="1"/>
        <pt x="674" y="81" on="0"/>
        <pt x="697" y="104" on="0"/>
      </contour>
    </TTGlyph>
    <TTGlyph name="E" xMin="58" yMin="0" xMax="715" yMax="720">
      <contour>
        <pt x="715" y="720" on="1"/>
        <pt x="715" y="639" on="1"/>
        <pt x="139" y="639" on="1"/>
        <pt x="139" y="401" on="1"/>
        <pt x="602" y="401" on="1"/>
        <pt x="602" y="319" on="1"/>
        <pt x="139" y="319" on="1"/>
        <pt x="139" y="81" on="1"/>
        <pt x="715" y="81" on="1"/>
        <pt x="715" y="0" on="1"/>
        <pt x="58" y="0" on="1"/>
        <pt x="58" y="720" on="1"/>
      </contour>
    </TTGlyph>
    <TTGlyph name="Eacute" xMin="58" yMin="0" xMax="715" yMax="1004">
      <contour>
        <pt x="715" y="720" on="1"/>
        <pt x="715" y="639" on="1"/>
        <pt x="139" y="639" on="1"/>
        <pt x="139" y="401" on="1"/>
        <pt x="602" y="401" on="1"/>
        <pt x="602" y="319" on="1"/>
        <pt x="139" y="319" on="1"/>
        <pt x="139" y="81" on="1"/>
        <pt x="715" y="81" on="1"/>
        <pt x="715" y="0" on="1"/>
        <pt x="58" y="0" on="1"/>
        <pt x="58" y="720" on="1"/>
      </contour>
      <contour>
        <pt x="309" y="865" on="1"/>
        <pt x="344" y="1004" on="1"/>
        <pt x="423" y="1004" on="1"/>
        <pt x="389" y="865" on="1"/>
      </contour>
    </TTGlyph>
    <TTGlyph name="Ecircumflex" xMin="58" yMin="0" xMax="715" yMax="981">
      <contour>
        <pt x="715" y="720" on="1"/>
        <pt x="715" y="639" on="1"/>
        <pt x="139" y="639" on="1"/>
        <pt x="139" y="401" on="1"/>
        <pt x="602" y="401" on="1"/>
        <pt x="602" y="319" on="1"/>
        <pt x="139" y="319" on="1"/>
        <pt x="139" y="81" on="1"/>
        <pt x="715" y="81" on="1"/>
        <pt x="715" y="0" on="1"/>
        <pt x="58" y="0" on="1"/>
        <pt x="58" y="720" on="1"/>
      </contour>
      <contour>
        <pt x="302" y="864" on="1"/>
        <pt x="261" y="864" on="1"/>
        <pt x="332" y="981" on="1"/>
        <pt x="391" y="981" on="1"/>
        <pt x="462" y="864" on="1"/>
        <pt x="420" y="864" on="1"/>
        <pt x="362" y="949" on="1"/>
      </contour>
    </TTGlyph>
    <TTGlyph name="Edieresis" xMin="58" yMin="0" xMax="715" yMax="947">
      <contour>
        <pt x="715" y="720" on="1"/>
        <pt x="715" y="639" on="1"/>
        <pt x="139" y="639" on="1"/>
        <pt x="139" y="401" on="1"/>
        <pt x="602" y="401" on="1"/>
        <pt x="602" y="319" on="1"/>
        <pt x="139" y="319" on="1"/>
        <pt x="139" y="81" on="1"/>
        <pt x="715" y="81" on="1"/>
        <pt x="715" y="0" on="1"/>
        <pt x="58" y="0" on="1"/>
        <pt x="58" y="720" on="1"/>
      </contour>
      <contour>
        <pt x="506" y="947" on="1"/>
        <pt x="506" y="865" on="1"/>
        <pt x="424" y="865" on="1"/>
        <pt x="424" y="947" on="1"/>
      </contour>
      <contour>
        <pt x="327" y="947" on="1"/>
        <pt x="327" y="865" on="1"/>
        <pt x="244" y="865" on="1"/>
        <pt x="244" y="947" on="1"/>
      </contour>
    </TTGlyph>
    <TTGlyph name="Egrave" xMin="58" yMin="0" xMax="715" yMax="1004">
      <contour>
        <pt x="715" y="720" on="1"/>
        <pt x="715" y="639" on="1"/>
        <pt x="139" y="639" on="1"/>
        <pt x="139" y="401" on="1"/>
        <pt x="602" y="401" on="1"/>
        <pt x="602" y="319" on="1"/>
        <pt x="139" y="319" on="1"/>
        <pt x="139" y="81" on="1"/>
        <pt x="715" y="81" on="1"/>
        <pt x="715" y="0" on="1"/>
        <pt x="58" y="0" on="1"/>
        <pt x="58" y="720" on="1"/>
      </contour>
      <contour>
        <pt x="390" y="1004" on="1"/>
        <pt x="424" y="865" on="1"/>
        <pt x="344" y="865" on="1"/>
        <pt x="309" y="1004" on="1"/>
      </contour>
    </TTGlyph>
    <TTGlyph name="Euro" xMin="35" yMin="0" xMax="761" yMax="721">
      <contour>
        <pt x="262" y="82" on="1"/>
        <pt x="761" y="82" on="1"/>
        <pt x="761" y="0" on="1"/>
        <pt x="262" y="0" on="1"/>
        <pt x="211" y="0" on="0"/>
        <pt x="140" y="71" on="0"/>
        <pt x="140" y="121" on="1"/>
        <pt x="140" y="230" on="1"/>
        <pt x="35" y="230" on="1"/>
        <pt x="35" y="312" on="1"/>
        <pt x="140" y="312" on="1"/>
        <pt x="140" y="415" on="1"/>
        <pt x="35" y="415" on="1"/>
        <pt x="35" y="498" on="1"/>
        <pt x="140" y="498" on="1"/>
        <pt x="140" y="599" on="1"/>
        <pt x="140" y="650" on="0"/>
        <pt x="211" y="721" on="0"/>
        <pt x="262" y="721" on="1"/>
        <pt x="761" y="721" on="1"/>
        <pt x="761" y="638" on="1"/>
        <pt x="262" y="638" on="1"/>
        <pt x="246" y="638" on="0"/>
        <pt x="223" y="615" on="0"/>
        <pt x="223" y="599" on="1"/>
        <pt x="223" y="498" on="1"/>
        <pt x="647" y="498" on="1"/>
        <pt x="647" y="415" on="1"/>
        <pt x="223" y="415" on="1"/>
        <pt x="223" y="312" on="1"/>
        <pt x="647" y="312" on="1"/>
        <pt x="647" y="230" on="1"/>
        <pt x="223" y="230" on="1"/>
        <pt x="223" y="121" on="1"/>
        <pt x="223" y="105" on="0"/>
        <pt x="246" y="82" on="0"/>
      </contour>
    </TTGlyph>
    <TTGlyph name="F" xMin="58" yMin="0" xMax="715" yMax="720">
      <contour>
        <pt x="58" y="720" on="1"/>
        <pt x="715" y="720" on="1"/>
        <pt x="715" y="639" on="1"/>
        <pt x="139" y="639" on="1"/>
        <pt x="139" y="401" on="1"/>
        <pt x="602" y="401" on="1"/>
        <pt x="602" y="319" on="1"/>
        <pt x="139" y="319" on="1"/>
        <pt x="139" y="0" on="1"/>
        <pt x="58" y="0" on="1"/>
      </contour>
    </TTGlyph>
    <TTGlyph name="G" xMin="56" yMin="0" xMax="776" yMax="720">
      <contour>
        <pt x="776" y="600" on="1"/>
        <pt x="776" y="571" on="1"/>
        <pt x="695" y="571" on="1"/>
        <pt x="695" y="600" on="1"/>
        <pt x="695" y="616" on="0"/>
        <pt x="672" y="639" on="0"/>
        <pt x="656" y="639" on="1"/>
        <pt x="176" y="639" on="1"/>
        <pt x="160" y="639" on="0"/>
        <pt x="137" y="616" on="0"/>
        <pt x="137" y="600" on="1"/>
        <pt x="137" y="120" on="1"/>
        <pt x="137" y="104" on="0"/>
        <pt x="160" y="81" on="0"/>
        <pt x="176" y="81" on="1"/>
        <pt x="656" y="81" on="1"/>
        <pt x="672" y="81" on="0"/>
        <pt x="695" y="104" on="0"/>
        <pt x="695" y="120" on="1"/>
        <pt x="695" y="298" on="1"/>
        <pt x="517" y="298" on="1"/>
        <pt x="517" y="380" on="1"/>
        <pt x="776" y="380" on="1"/>
        <pt x="776" y="120" on="1"/>
        <pt x="776" y="70" on="0"/>
        <pt x="706" y="0" on="0"/>
        <pt x="656" y="0" on="1"/>
        <pt x="176" y="0" on="1"/>
        <pt x="126" y="0" on="0"/>
        <pt x="56" y="70" on="0"/>
        <pt x="56" y="120" on="1"/>
        <pt x="56" y="600" on="1"/>
        <pt x="56" y="650" on="0"/>
        <pt x="126" y="720" on="0"/>
        <pt x="176" y="720" on="1"/>
        <pt x="656" y="720" on="1"/>
        <pt x="706" y="720" on="0"/>
        <pt x="776" y="650" on="0"/>
      </contour>
    </TTGlyph>
    <TTGlyph name="H" xMin="57" yMin="0" xMax="795" yMax="720">
      <contour>
        <pt x="713" y="720" on="1"/>
        <pt x="795" y="720" on="1"/>
        <pt x="795" y="0" on="1"/>
        <pt x="713" y="0" on="1"/>
        <pt x="713" y="319" on="1"/>
        <pt x="138" y="319" on="1"/>
        <pt x="138" y="0" on="1"/>
        <pt x="57" y="0" on="1"/>
        <pt x="57" y="720" on="1"/>
        <pt x="138" y="720" on="1"/>
        <pt x="138" y="401" on="1"/>
        <pt x="713" y="401" on="1"/>
      </contour>
    </TTGlyph>
    <TTGlyph name="I" xMin="57" yMin="0" xMax="138" yMax="720">
      <contour>
        <pt x="57" y="0" on="1"/>
        <pt x="57" y="720" on="1"/>
        <pt x="138" y="720" on="1"/>
        <pt x="138" y="0" on="1"/>
      </contour>
    </TTGlyph>
    <TTGlyph name="I.alt" xMin="49" yMin="0" xMax="769" yMax="720">
      <contour>
        <pt x="769" y="720" on="1"/>
        <pt x="769" y="639" on="1"/>
        <pt x="450" y="639" on="1"/>
        <pt x="450" y="81" on="1"/>
        <pt x="769" y="81" on="1"/>
        <pt x="769" y="0" on="1"/>
        <pt x="49" y="0" on="1"/>
        <pt x="49" y="81" on="1"/>
        <pt x="368" y="81" on="1"/>
        <pt x="368" y="639" on="1"/>
        <pt x="49" y="639" on="1"/>
        <pt x="49" y="720" on="1"/>
      </contour>
    </TTGlyph>
    <TTGlyph name="Iacute" xMin="36" yMin="0" xMax="150" yMax="1004">
      <contour>
        <pt x="57" y="0" on="1"/>
        <pt x="57" y="720" on="1"/>
        <pt x="138" y="720" on="1"/>
        <pt x="138" y="0" on="1"/>
      </contour>
      <contour>
        <pt x="36" y="865" on="1"/>
        <pt x="71" y="1004" on="1"/>
        <pt x="150" y="1004" on="1"/>
        <pt x="116" y="865" on="1"/>
      </contour>
    </TTGlyph>
    <TTGlyph name="Icircumflex" xMin="-12" yMin="0" xMax="189" yMax="981">
      <contour>
        <pt x="57" y="0" on="1"/>
        <pt x="57" y="720" on="1"/>
        <pt x="138" y="720" on="1"/>
        <pt x="138" y="0" on="1"/>
      </contour>
      <contour>
        <pt x="29" y="864" on="1"/>
        <pt x="-12" y="864" on="1"/>
        <pt x="59" y="981" on="1"/>
        <pt x="118" y="981" on="1"/>
        <pt x="189" y="864" on="1"/>
        <pt x="147" y="864" on="1"/>
        <pt x="89" y="949" on="1"/>
      </contour>
    </TTGlyph>
    <TTGlyph name="Idieresis" xMin="-29" yMin="0" xMax="233" yMax="947">
      <contour>
        <pt x="57" y="0" on="1"/>
        <pt x="57" y="720" on="1"/>
        <pt x="138" y="720" on="1"/>
        <pt x="138" y="0" on="1"/>
      </contour>
      <contour>
        <pt x="233" y="947" on="1"/>
        <pt x="233" y="865" on="1"/>
        <pt x="151" y="865" on="1"/>
        <pt x="151" y="947" on="1"/>
      </contour>
      <contour>
        <pt x="54" y="947" on="1"/>
        <pt x="54" y="865" on="1"/>
        <pt x="-29" y="865" on="1"/>
        <pt x="-29" y="947" on="1"/>
      </contour>
    </TTGlyph>
    <TTGlyph name="Igrave" xMin="36" yMin="0" xMax="151" yMax="1004">
      <contour>
        <pt x="57" y="0" on="1"/>
        <pt x="57" y="720" on="1"/>
        <pt x="138" y="720" on="1"/>
        <pt x="138" y="0" on="1"/>
      </contour>
      <contour>
        <pt x="117" y="1004" on="1"/>
        <pt x="151" y="865" on="1"/>
        <pt x="71" y="865" on="1"/>
        <pt x="36" y="1004" on="1"/>
      </contour>
    </TTGlyph>
    <TTGlyph name="J" xMin="4" yMin="0" xMax="724" yMax="720">
      <contour>
        <pt x="643" y="120" on="1"/>
        <pt x="643" y="720" on="1"/>
        <pt x="724" y="720" on="1"/>
        <pt x="724" y="120" on="1"/>
        <pt x="724" y="70" on="0"/>
        <pt x="654" y="0" on="0"/>
        <pt x="604" y="0" on="1"/>
        <pt x="124" y="0" on="1"/>
        <pt x="74" y="0" on="0"/>
        <pt x="4" y="70" on="0"/>
        <pt x="4" y="120" on="1"/>
        <pt x="4" y="177" on="1"/>
        <pt x="85" y="177" on="1"/>
        <pt x="85" y="120" on="1"/>
        <pt x="85" y="104" on="0"/>
        <pt x="108" y="81" on="0"/>
        <pt x="124" y="81" on="1"/>
        <pt x="604" y="81" on="1"/>
        <pt x="620" y="81" on="0"/>
        <pt x="643" y="104" on="0"/>
      </contour>
    </TTGlyph>
    <TTGlyph name="J.alt" xMin="3" yMin="0" xMax="588" yMax="720">
      <contour>
        <pt x="506" y="120" on="1"/>
        <pt x="506" y="720" on="1"/>
        <pt x="588" y="720" on="1"/>
        <pt x="588" y="120" on="1"/>
        <pt x="588" y="70" on="0"/>
        <pt x="518" y="0" on="0"/>
        <pt x="468" y="0" on="1"/>
        <pt x="3" y="0" on="1"/>
        <pt x="3" y="81" on="1"/>
        <pt x="468" y="81" on="1"/>
        <pt x="484" y="81" on="0"/>
        <pt x="506" y="104" on="0"/>
      </contour>
    </TTGlyph>
    <TTGlyph name="K" xMin="57" yMin="0" xMax="744" yMax="720">
      <contour>
        <pt x="639" y="720" on="1"/>
        <pt x="743" y="720" on="1"/>
        <pt x="442" y="360" on="1"/>
        <pt x="744" y="0" on="1"/>
        <pt x="639" y="0" on="1"/>
        <pt x="371" y="319" on="1"/>
        <pt x="139" y="319" on="1"/>
        <pt x="139" y="0" on="1"/>
        <pt x="57" y="0" on="1"/>
        <pt x="57" y="720" on="1"/>
        <pt x="139" y="720" on="1"/>
        <pt x="139" y="401" on="1"/>
        <pt x="371" y="401" on="1"/>
      </contour>
    </TTGlyph>
    <TTGlyph name="K.alt" xMin="54" yMin="0" xMax="775" yMax="720">
      <contour>
        <pt x="694" y="436" on="1"/>
        <pt x="694" y="720" on="1"/>
        <pt x="775" y="720" on="1"/>
        <pt x="775" y="457" on="1"/>
        <pt x="775" y="422" on="0"/>
        <pt x="694" y="357" on="0"/>
        <pt x="636" y="357" on="1"/>
        <pt x="694" y="357" on="0"/>
        <pt x="774" y="291" on="0"/>
        <pt x="774" y="257" on="1"/>
        <pt x="774" y="0" on="1"/>
        <pt x="693" y="0" on="1"/>
        <pt x="693" y="278" on="1"/>
        <pt x="693" y="293" on="0"/>
        <pt x="670" y="316" on="0"/>
        <pt x="654" y="316" on="1"/>
        <pt x="174" y="316" on="1"/>
        <pt x="158" y="316" on="0"/>
        <pt x="135" y="293" on="0"/>
        <pt x="135" y="278" on="1"/>
        <pt x="135" y="0" on="1"/>
        <pt x="54" y="0" on="1"/>
        <pt x="54" y="720" on="1"/>
        <pt x="135" y="720" on="1"/>
        <pt x="135" y="436" on="1"/>
        <pt x="135" y="420" on="0"/>
        <pt x="158" y="398" on="0"/>
        <pt x="174" y="398" on="1"/>
        <pt x="655" y="398" on="1"/>
        <pt x="671" y="398" on="0"/>
        <pt x="694" y="420" on="0"/>
      </contour>
    </TTGlyph>
    <TTGlyph name="L" xMin="57" yMin="0" xMax="777" yMax="721">
      <contour>
        <pt x="57" y="0" on="1"/>
        <pt x="57" y="721" on="1"/>
        <pt x="138" y="721" on="1"/>
        <pt x="138" y="81" on="1"/>
        <pt x="777" y="81" on="1"/>
        <pt x="777" y="0" on="1"/>
      </contour>
    </TTGlyph>
    <TTGlyph name="M" xMin="56" yMin="0" xMax="876" yMax="720">
      <contour>
        <pt x="466" y="364" on="1"/>
        <pt x="765" y="720" on="1"/>
        <pt x="876" y="720" on="1"/>
        <pt x="876" y="0" on="1"/>
        <pt x="795" y="0" on="1"/>
        <pt x="795" y="628" on="1"/>
        <pt x="466" y="237" on="1"/>
        <pt x="137" y="628" on="1"/>
        <pt x="137" y="0" on="1"/>
        <pt x="56" y="0" on="1"/>
        <pt x="56" y="720" on="1"/>
        <pt x="167" y="720" on="1"/>
      </contour>
    </TTGlyph>
    <TTGlyph name="M.alt" xMin="54" yMin="0" xMax="1117" yMax="720">
      <contour>
        <pt x="997" y="720" on="1"/>
        <pt x="1047" y="720" on="0"/>
        <pt x="1117" y="650" on="0"/>
        <pt x="1117" y="600" on="1"/>
        <pt x="1117" y="0" on="1"/>
        <pt x="1035" y="0" on="1"/>
        <pt x="1035" y="600" on="1"/>
        <pt x="1035" y="616" on="0"/>
        <pt x="1013" y="639" on="0"/>
        <pt x="997" y="639" on="1"/>
        <pt x="614" y="639" on="1"/>
        <pt x="614" y="0" on="1"/>
        <pt x="532" y="0" on="1"/>
        <pt x="532" y="600" on="1"/>
        <pt x="532" y="616" on="0"/>
        <pt x="510" y="639" on="0"/>
        <pt x="494" y="639" on="1"/>
        <pt x="136" y="639" on="1"/>
        <pt x="136" y="0" on="1"/>
        <pt x="54" y="0" on="1"/>
        <pt x="54" y="720" on="1"/>
      </contour>
    </TTGlyph>
    <TTGlyph name="N" xMin="56" yMin="0" xMax="776" yMax="720">
      <contour>
        <pt x="695" y="92" on="1"/>
        <pt x="695" y="720" on="1"/>
        <pt x="776" y="720" on="1"/>
        <pt x="776" y="0" on="1"/>
        <pt x="665" y="0" on="1"/>
        <pt x="137" y="628" on="1"/>
        <pt x="137" y="0" on="1"/>
        <pt x="56" y="0" on="1"/>
        <pt x="56" y="720" on="1"/>
        <pt x="167" y="720" on="1"/>
      </contour>
    </TTGlyph>
    <TTGlyph name="N.alt" xMin="54" yMin="0" xMax="774" yMax="720">
      <contour>
        <pt x="135" y="0" on="1"/>
        <pt x="54" y="0" on="1"/>
        <pt x="54" y="720" on="1"/>
        <pt x="654" y="720" on="1"/>
        <pt x="704" y="720" on="0"/>
        <pt x="774" y="650" on="0"/>
        <pt x="774" y="600" on="1"/>
        <pt x="774" y="0" on="1"/>
        <pt x="693" y="0" on="1"/>
        <pt x="693" y="600" on="1"/>
        <pt x="693" y="616" on="0"/>
        <pt x="670" y="639" on="0"/>
        <pt x="654" y="639" on="1"/>
        <pt x="135" y="639" on="1"/>
      </contour>
    </TTGlyph>
    <TTGlyph name="Ntilde" xMin="56" yMin="0" xMax="776" yMax="989">
      <contour>
        <pt x="695" y="92" on="1"/>
        <pt x="695" y="720" on="1"/>
        <pt x="776" y="720" on="1"/>
        <pt x="776" y="0" on="1"/>
        <pt x="665" y="0" on="1"/>
        <pt x="137" y="628" on="1"/>
        <pt x="137" y="0" on="1"/>
        <pt x="56" y="0" on="1"/>
        <pt x="56" y="720" on="1"/>
        <pt x="167" y="720" on="1"/>
      </contour>
      <contour>
        <pt x="511" y="917" on="1"/>
        <pt x="513" y="917" on="1"/>
        <pt x="543" y="917" on="0"/>
        <pt x="579" y="934" on="1"/>
        <pt x="579" y="883" on="1"/>
        <pt x="541" y="869" on="0"/>
        <pt x="513" y="869" on="1"/>
        <pt x="478" y="869" on="0"/>
        <pt x="344" y="941" on="0"/>
        <pt x="302" y="941" on="1"/>
        <pt x="263" y="941" on="0"/>
        <pt x="240" y="933" on="1"/>
        <pt x="240" y="980" on="1"/>
        <pt x="267" y="989" on="0"/>
        <pt x="302" y="989" on="1"/>
        <pt x="342" y="989" on="0"/>
        <pt x="476" y="922" on="0"/>
      </contour>
    </TTGlyph>
    <TTGlyph name="O" xMin="54" yMin="0" xMax="774" yMax="720">
      <contour>
        <pt x="174" y="720" on="1"/>
        <pt x="654" y="720" on="1"/>
        <pt x="704" y="720" on="0"/>
        <pt x="774" y="650" on="0"/>
        <pt x="774" y="600" on="1"/>
        <pt x="774" y="120" on="1"/>
        <pt x="774" y="70" on="0"/>
        <pt x="704" y="0" on="0"/>
        <pt x="654" y="0" on="1"/>
        <pt x="174" y="0" on="1"/>
        <pt x="124" y="0" on="0"/>
        <pt x="54" y="70" on="0"/>
        <pt x="54" y="120" on="1"/>
        <pt x="54" y="600" on="1"/>
        <pt x="54" y="650" on="0"/>
        <pt x="124" y="720" on="0"/>
      </contour>
      <contour>
        <pt x="174" y="81" on="1"/>
        <pt x="654" y="81" on="1"/>
        <pt x="670" y="81" on="0"/>
        <pt x="693" y="104" on="0"/>
        <pt x="693" y="120" on="1"/>
        <pt x="693" y="600" on="1"/>
        <pt x="693" y="616" on="0"/>
        <pt x="670" y="639" on="0"/>
        <pt x="654" y="639" on="1"/>
        <pt x="174" y="639" on="1"/>
        <pt x="158" y="639" on="0"/>
        <pt x="135" y="616" on="0"/>
        <pt x="135" y="600" on="1"/>
        <pt x="135" y="120" on="1"/>
        <pt x="135" y="104" on="0"/>
        <pt x="158" y="81" on="0"/>
      </contour>
    </TTGlyph>
    <TTGlyph name="O.alt" xMin="52" yMin="0" xMax="772" yMax="720">
      <contour>
        <pt x="172" y="720" on="1"/>
        <pt x="652" y="720" on="1"/>
        <pt x="702" y="720" on="0"/>
        <pt x="772" y="650" on="0"/>
        <pt x="772" y="600" on="1"/>
        <pt x="772" y="120" on="1"/>
        <pt x="772" y="70" on="0"/>
        <pt x="702" y="0" on="0"/>
        <pt x="652" y="0" on="1"/>
        <pt x="172" y="0" on="1"/>
        <pt x="122" y="0" on="0"/>
        <pt x="52" y="70" on="0"/>
        <pt x="52" y="120" on="1"/>
        <pt x="52" y="600" on="1"/>
        <pt x="52" y="650" on="0"/>
        <pt x="122" y="720" on="0"/>
      </contour>
      <contour>
        <pt x="691" y="120" on="1"/>
        <pt x="691" y="600" on="1"/>
        <pt x="691" y="616" on="0"/>
        <pt x="668" y="639" on="0"/>
        <pt x="652" y="639" on="1"/>
        <pt x="172" y="639" on="1"/>
        <pt x="156" y="639" on="0"/>
        <pt x="133" y="616" on="0"/>
        <pt x="133" y="600" on="1"/>
        <pt x="133" y="120" on="1"/>
        <pt x="133" y="104" on="0"/>
        <pt x="156" y="81" on="0"/>
        <pt x="172" y="81" on="1"/>
        <pt x="652" y="81" on="1"/>
        <pt x="668" y="81" on="0"/>
        <pt x="691" y="104" on="0"/>
      </contour>
      <contour>
        <pt x="453" y="319" on="1"/>
        <pt x="371" y="319" on="1"/>
        <pt x="371" y="401" on="1"/>
        <pt x="453" y="401" on="1"/>
      </contour>
    </TTGlyph>
    <TTGlyph name="OE" xMin="53" yMin="0" xMax="1349" yMax="720">
      <contour>
        <pt x="773" y="639" on="1"/>
        <pt x="773" y="401" on="1"/>
        <pt x="1236" y="401" on="1"/>
        <pt x="1236" y="319" on="1"/>
        <pt x="773" y="319" on="1"/>
        <pt x="773" y="81" on="1"/>
        <pt x="1349" y="81" on="1"/>
        <pt x="1349" y="0" on="1"/>
        <pt x="173" y="0" on="1"/>
        <pt x="123" y="0" on="0"/>
        <pt x="53" y="70" on="0"/>
        <pt x="53" y="120" on="1"/>
        <pt x="53" y="600" on="1"/>
        <pt x="53" y="650" on="0"/>
        <pt x="123" y="720" on="0"/>
        <pt x="173" y="720" on="1"/>
        <pt x="1349" y="720" on="1"/>
        <pt x="1349" y="639" on="1"/>
      </contour>
      <contour>
        <pt x="653" y="81" on="1"/>
        <pt x="669" y="81" on="0"/>
        <pt x="692" y="104" on="0"/>
        <pt x="692" y="120" on="1"/>
        <pt x="692" y="600" on="1"/>
        <pt x="692" y="616" on="0"/>
        <pt x="669" y="639" on="0"/>
        <pt x="653" y="639" on="1"/>
        <pt x="173" y="639" on="1"/>
        <pt x="157" y="639" on="0"/>
        <pt x="134" y="616" on="0"/>
        <pt x="134" y="600" on="1"/>
        <pt x="134" y="120" on="1"/>
        <pt x="134" y="104" on="0"/>
        <pt x="157" y="81" on="0"/>
        <pt x="173" y="81" on="1"/>
      </contour>
    </TTGlyph>
    <TTGlyph name="Oacute" xMin="54" yMin="0" xMax="774" yMax="1004">
      <contour>
        <pt x="174" y="720" on="1"/>
        <pt x="654" y="720" on="1"/>
        <pt x="704" y="720" on="0"/>
        <pt x="774" y="650" on="0"/>
        <pt x="774" y="600" on="1"/>
        <pt x="774" y="120" on="1"/>
        <pt x="774" y="70" on="0"/>
        <pt x="704" y="0" on="0"/>
        <pt x="654" y="0" on="1"/>
        <pt x="174" y="0" on="1"/>
        <pt x="124" y="0" on="0"/>
        <pt x="54" y="70" on="0"/>
        <pt x="54" y="120" on="1"/>
        <pt x="54" y="600" on="1"/>
        <pt x="54" y="650" on="0"/>
        <pt x="124" y="720" on="0"/>
      </contour>
      <contour>
        <pt x="174" y="81" on="1"/>
        <pt x="654" y="81" on="1"/>
        <pt x="670" y="81" on="0"/>
        <pt x="693" y="104" on="0"/>
        <pt x="693" y="120" on="1"/>
        <pt x="693" y="600" on="1"/>
        <pt x="693" y="616" on="0"/>
        <pt x="670" y="639" on="0"/>
        <pt x="654" y="639" on="1"/>
        <pt x="174" y="639" on="1"/>
        <pt x="158" y="639" on="0"/>
        <pt x="135" y="616" on="0"/>
        <pt x="135" y="600" on="1"/>
        <pt x="135" y="120" on="1"/>
        <pt x="135" y="104" on="0"/>
        <pt x="158" y="81" on="0"/>
      </contour>
      <contour>
        <pt x="340" y="865" on="1"/>
        <pt x="375" y="1004" on="1"/>
        <pt x="454" y="1004" on="1"/>
        <pt x="420" y="865" on="1"/>
      </contour>
    </TTGlyph>
    <TTGlyph name="Ocircumflex" xMin="54" yMin="0" xMax="774" yMax="981">
      <contour>
        <pt x="174" y="720" on="1"/>
        <pt x="654" y="720" on="1"/>
        <pt x="704" y="720" on="0"/>
        <pt x="774" y="650" on="0"/>
        <pt x="774" y="600" on="1"/>
        <pt x="774" y="120" on="1"/>
        <pt x="774" y="70" on="0"/>
        <pt x="704" y="0" on="0"/>
        <pt x="654" y="0" on="1"/>
        <pt x="174" y="0" on="1"/>
        <pt x="124" y="0" on="0"/>
        <pt x="54" y="70" on="0"/>
        <pt x="54" y="120" on="1"/>
        <pt x="54" y="600" on="1"/>
        <pt x="54" y="650" on="0"/>
        <pt x="124" y="720" on="0"/>
      </contour>
      <contour>
        <pt x="174" y="81" on="1"/>
        <pt x="654" y="81" on="1"/>
        <pt x="670" y="81" on="0"/>
        <pt x="693" y="104" on="0"/>
        <pt x="693" y="120" on="1"/>
        <pt x="693" y="600" on="1"/>
        <pt x="693" y="616" on="0"/>
        <pt x="670" y="639" on="0"/>
        <pt x="654" y="639" on="1"/>
        <pt x="174" y="639" on="1"/>
        <pt x="158" y="639" on="0"/>
        <pt x="135" y="616" on="0"/>
        <pt x="135" y="600" on="1"/>
        <pt x="135" y="120" on="1"/>
        <pt x="135" y="104" on="0"/>
        <pt x="158" y="81" on="0"/>
      </contour>
      <contour>
        <pt x="333" y="864" on="1"/>
        <pt x="292" y="864" on="1"/>
        <pt x="363" y="981" on="1"/>
        <pt x="422" y="981" on="1"/>
        <pt x="493" y="864" on="1"/>
        <pt x="451" y="864" on="1"/>
        <pt x="393" y="949" on="1"/>
      </contour>
    </TTGlyph>
    <TTGlyph name="Odieresis" xMin="54" yMin="0" xMax="774" yMax="947">
      <contour>
        <pt x="174" y="720" on="1"/>
        <pt x="654" y="720" on="1"/>
        <pt x="704" y="720" on="0"/>
        <pt x="774" y="650" on="0"/>
        <pt x="774" y="600" on="1"/>
        <pt x="774" y="120" on="1"/>
        <pt x="774" y="70" on="0"/>
        <pt x="704" y="0" on="0"/>
        <pt x="654" y="0" on="1"/>
        <pt x="174" y="0" on="1"/>
        <pt x="124" y="0" on="0"/>
        <pt x="54" y="70" on="0"/>
        <pt x="54" y="120" on="1"/>
        <pt x="54" y="600" on="1"/>
        <pt x="54" y="650" on="0"/>
        <pt x="124" y="720" on="0"/>
      </contour>
      <contour>
        <pt x="174" y="81" on="1"/>
        <pt x="654" y="81" on="1"/>
        <pt x="670" y="81" on="0"/>
        <pt x="693" y="104" on="0"/>
        <pt x="693" y="120" on="1"/>
        <pt x="693" y="600" on="1"/>
        <pt x="693" y="616" on="0"/>
        <pt x="670" y="639" on="0"/>
        <pt x="654" y="639" on="1"/>
        <pt x="174" y="639" on="1"/>
        <pt x="158" y="639" on="0"/>
        <pt x="135" y="616" on="0"/>
        <pt x="135" y="600" on="1"/>
        <pt x="135" y="120" on="1"/>
        <pt x="135" y="104" on="0"/>
        <pt x="158" y="81" on="0"/>
      </contour>
      <contour>
        <pt x="537" y="947" on="1"/>
        <pt x="537" y="865" on="1"/>
        <pt x="455" y="865" on="1"/>
        <pt x="455" y="947" on="1"/>
      </contour>
      <contour>
        <pt x="358" y="947" on="1"/>
        <pt x="358" y="865" on="1"/>
        <pt x="275" y="865" on="1"/>
        <pt x="275" y="947" on="1"/>
      </contour>
    </TTGlyph>
    <TTGlyph name="Ograve" xMin="54" yMin="0" xMax="774" yMax="1004">
      <contour>
        <pt x="174" y="720" on="1"/>
        <pt x="654" y="720" on="1"/>
        <pt x="704" y="720" on="0"/>
        <pt x="774" y="650" on="0"/>
        <pt x="774" y="600" on="1"/>
        <pt x="774" y="120" on="1"/>
        <pt x="774" y="70" on="0"/>
        <pt x="704" y="0" on="0"/>
        <pt x="654" y="0" on="1"/>
        <pt x="174" y="0" on="1"/>
        <pt x="124" y="0" on="0"/>
        <pt x="54" y="70" on="0"/>
        <pt x="54" y="120" on="1"/>
        <pt x="54" y="600" on="1"/>
        <pt x="54" y="650" on="0"/>
        <pt x="124" y="720" on="0"/>
      </contour>
      <contour>
        <pt x="174" y="81" on="1"/>
        <pt x="654" y="81" on="1"/>
        <pt x="670" y="81" on="0"/>
        <pt x="693" y="104" on="0"/>
        <pt x="693" y="120" on="1"/>
        <pt x="693" y="600" on="1"/>
        <pt x="693" y="616" on="0"/>
        <pt x="670" y="639" on="0"/>
        <pt x="654" y="639" on="1"/>
        <pt x="174" y="639" on="1"/>
        <pt x="158" y="639" on="0"/>
        <pt x="135" y="616" on="0"/>
        <pt x="135" y="600" on="1"/>
        <pt x="135" y="120" on="1"/>
        <pt x="135" y="104" on="0"/>
        <pt x="158" y="81" on="0"/>
      </contour>
      <contour>
        <pt x="421" y="1004" on="1"/>
        <pt x="455" y="865" on="1"/>
        <pt x="375" y="865" on="1"/>
        <pt x="340" y="1004" on="1"/>
      </contour>
    </TTGlyph>
    <TTGlyph name="Otilde" xMin="54" yMin="0" xMax="774" yMax="989">
      <contour>
        <pt x="174" y="720" on="1"/>
        <pt x="654" y="720" on="1"/>
        <pt x="704" y="720" on="0"/>
        <pt x="774" y="650" on="0"/>
        <pt x="774" y="600" on="1"/>
        <pt x="774" y="120" on="1"/>
        <pt x="774" y="70" on="0"/>
        <pt x="704" y="0" on="0"/>
        <pt x="654" y="0" on="1"/>
        <pt x="174" y="0" on="1"/>
        <pt x="124" y="0" on="0"/>
        <pt x="54" y="70" on="0"/>
        <pt x="54" y="120" on="1"/>
        <pt x="54" y="600" on="1"/>
        <pt x="54" y="650" on="0"/>
        <pt x="124" y="720" on="0"/>
      </contour>
      <contour>
        <pt x="174" y="81" on="1"/>
        <pt x="654" y="81" on="1"/>
        <pt x="670" y="81" on="0"/>
        <pt x="693" y="104" on="0"/>
        <pt x="693" y="120" on="1"/>
        <pt x="693" y="600" on="1"/>
        <pt x="693" y="616" on="0"/>
        <pt x="670" y="639" on="0"/>
        <pt x="654" y="639" on="1"/>
        <pt x="174" y="639" on="1"/>
        <pt x="158" y="639" on="0"/>
        <pt x="135" y="616" on="0"/>
        <pt x="135" y="600" on="1"/>
        <pt x="135" y="120" on="1"/>
        <pt x="135" y="104" on="0"/>
        <pt x="158" y="81" on="0"/>
      </contour>
      <contour>
        <pt x="509" y="917" on="1"/>
        <pt x="511" y="917" on="1"/>
        <pt x="541" y="917" on="0"/>
        <pt x="577" y="934" on="1"/>
        <pt x="577" y="883" on="1"/>
        <pt x="539" y="869" on="0"/>
        <pt x="511" y="869" on="1"/>
        <pt x="476" y="869" on="0"/>
        <pt x="342" y="941" on="0"/>
        <pt x="300" y="941" on="1"/>
        <pt x="261" y="941" on="0"/>
        <pt x="238" y="933" on="1"/>
        <pt x="238" y="980" on="1"/>
        <pt x="265" y="989" on="0"/>
        <pt x="300" y="989" on="1"/>
        <pt x="340" y="989" on="0"/>
        <pt x="474" y="922" on="0"/>
      </contour>
    </TTGlyph>
    <TTGlyph name="P" xMin="56" yMin="0" xMax="776" yMax="719">
      <contour>
        <pt x="56" y="719" on="1"/>
        <pt x="656" y="719" on="1"/>
        <pt x="706" y="719" on="0"/>
        <pt x="776" y="649" on="0"/>
        <pt x="776" y="599" on="1"/>
        <pt x="776" y="388" on="1"/>
        <pt x="776" y="338" on="0"/>
        <pt x="706" y="268" on="0"/>
        <pt x="656" y="268" on="1"/>
        <pt x="176" y="268" on="1"/>
        <pt x="167" y="268" on="0"/>
        <pt x="137" y="272" on="1"/>
        <pt x="137" y="0" on="1"/>
        <pt x="56" y="0" on="1"/>
      </contour>
      <contour>
        <pt x="695" y="388" on="1"/>
        <pt x="695" y="599" on="1"/>
        <pt x="695" y="615" on="0"/>
        <pt x="672" y="638" on="0"/>
        <pt x="656" y="638" on="1"/>
        <pt x="176" y="638" on="1"/>
        <pt x="160" y="638" on="0"/>
        <pt x="137" y="615" on="0"/>
        <pt x="137" y="599" on="1"/>
        <pt x="137" y="388" on="1"/>
        <pt x="137" y="372" on="0"/>
        <pt x="160" y="350" on="0"/>
        <pt x="176" y="350" on="1"/>
        <pt x="656" y="350" on="1"/>
        <pt x="672" y="350" on="0"/>
        <pt x="695" y="372" on="0"/>
      </contour>
    </TTGlyph>
    <TTGlyph name="Q" xMin="54" yMin="0" xMax="868" yMax="720">
      <contour>
        <pt x="770" y="81" on="1"/>
        <pt x="868" y="81" on="1"/>
        <pt x="868" y="0" on="1"/>
        <pt x="174" y="0" on="1"/>
        <pt x="124" y="0" on="0"/>
        <pt x="54" y="70" on="0"/>
        <pt x="54" y="120" on="1"/>
        <pt x="54" y="600" on="1"/>
        <pt x="54" y="650" on="0"/>
        <pt x="124" y="720" on="0"/>
        <pt x="174" y="720" on="1"/>
        <pt x="654" y="720" on="1"/>
        <pt x="704" y="720" on="0"/>
        <pt x="774" y="650" on="0"/>
        <pt x="774" y="600" on="1"/>
        <pt x="774" y="120" on="1"/>
        <pt x="774" y="111" on="0"/>
      </contour>
      <contour>
        <pt x="174" y="81" on="1"/>
        <pt x="654" y="81" on="1"/>
        <pt x="670" y="81" on="0"/>
        <pt x="693" y="104" on="0"/>
        <pt x="693" y="120" on="1"/>
        <pt x="693" y="600" on="1"/>
        <pt x="693" y="616" on="0"/>
        <pt x="670" y="639" on="0"/>
        <pt x="654" y="639" on="1"/>
        <pt x="174" y="639" on="1"/>
        <pt x="158" y="639" on="0"/>
        <pt x="135" y="616" on="0"/>
        <pt x="135" y="600" on="1"/>
        <pt x="135" y="120" on="1"/>
        <pt x="135" y="104" on="0"/>
        <pt x="158" y="81" on="0"/>
      </contour>
    </TTGlyph>
    <TTGlyph name="Q.alt" xMin="54" yMin="-113" xMax="774" yMax="720">
      <contour>
        <pt x="654" y="720" on="1"/>
        <pt x="704" y="720" on="0"/>
        <pt x="774" y="650" on="0"/>
        <pt x="774" y="600" on="1"/>
        <pt x="774" y="120" on="1"/>
        <pt x="774" y="70" on="0"/>
        <pt x="704" y="0" on="0"/>
        <pt x="654" y="0" on="1"/>
        <pt x="455" y="0" on="1"/>
        <pt x="455" y="-113" on="1"/>
        <pt x="373" y="-113" on="1"/>
        <pt x="373" y="0" on="1"/>
        <pt x="174" y="0" on="1"/>
        <pt x="124" y="0" on="0"/>
        <pt x="54" y="70" on="0"/>
        <pt x="54" y="120" on="1"/>
        <pt x="54" y="600" on="1"/>
        <pt x="54" y="650" on="0"/>
        <pt x="124" y="720" on="0"/>
        <pt x="174" y="720" on="1"/>
      </contour>
      <contour>
        <pt x="693" y="120" on="1"/>
        <pt x="693" y="600" on="1"/>
        <pt x="693" y="616" on="0"/>
        <pt x="670" y="639" on="0"/>
        <pt x="654" y="639" on="1"/>
        <pt x="174" y="639" on="1"/>
        <pt x="158" y="639" on="0"/>
        <pt x="135" y="616" on="0"/>
        <pt x="135" y="600" on="1"/>
        <pt x="135" y="120" on="1"/>
        <pt x="135" y="104" on="0"/>
        <pt x="158" y="81" on="0"/>
        <pt x="174" y="81" on="1"/>
        <pt x="654" y="81" on="1"/>
        <pt x="670" y="81" on="0"/>
        <pt x="693" y="104" on="0"/>
      </contour>
    </TTGlyph>
    <TTGlyph name="R" xMin="55" yMin="0" xMax="775" yMax="719">
      <contour>
        <pt x="775" y="599" on="1"/>
        <pt x="775" y="388" on="1"/>
        <pt x="775" y="338" on="0"/>
        <pt x="705" y="268" on="0"/>
        <pt x="655" y="268" on="1"/>
        <pt x="545" y="268" on="1"/>
        <pt x="771" y="0" on="1"/>
        <pt x="664" y="0" on="1"/>
        <pt x="439" y="268" on="1"/>
        <pt x="175" y="268" on="1"/>
        <pt x="166" y="268" on="0"/>
        <pt x="136" y="272" on="1"/>
        <pt x="136" y="0" on="1"/>
        <pt x="55" y="0" on="1"/>
        <pt x="55" y="719" on="1"/>
        <pt x="655" y="719" on="1"/>
        <pt x="705" y="719" on="0"/>
        <pt x="775" y="649" on="0"/>
      </contour>
      <contour>
        <pt x="175" y="350" on="1"/>
        <pt x="655" y="350" on="1"/>
        <pt x="671" y="350" on="0"/>
        <pt x="693" y="372" on="0"/>
        <pt x="693" y="388" on="1"/>
        <pt x="693" y="599" on="1"/>
        <pt x="693" y="615" on="0"/>
        <pt x="671" y="638" on="0"/>
        <pt x="655" y="638" on="1"/>
        <pt x="175" y="638" on="1"/>
        <pt x="159" y="638" on="0"/>
        <pt x="136" y="615" on="0"/>
        <pt x="136" y="599" on="1"/>
        <pt x="136" y="388" on="1"/>
        <pt x="136" y="372" on="0"/>
        <pt x="159" y="350" on="0"/>
      </contour>
    </TTGlyph>
    <TTGlyph name="R.alt" xMin="54" yMin="0" xMax="774" yMax="720">
      <contour>
        <pt x="774" y="599" on="1"/>
        <pt x="774" y="388" on="1"/>
        <pt x="774" y="362" on="0"/>
        <pt x="731" y="324" on="0"/>
        <pt x="684" y="309" on="0"/>
        <pt x="667" y="309" on="1"/>
        <pt x="698" y="309" on="0"/>
        <pt x="774" y="268" on="0"/>
        <pt x="774" y="230" on="1"/>
        <pt x="774" y="0" on="1"/>
        <pt x="693" y="0" on="1"/>
        <pt x="693" y="230" on="1"/>
        <pt x="693" y="245" on="0"/>
        <pt x="670" y="268" on="0"/>
        <pt x="654" y="268" on="1"/>
        <pt x="174" y="268" on="1"/>
        <pt x="158" y="268" on="0"/>
        <pt x="135" y="245" on="0"/>
        <pt x="135" y="230" on="1"/>
        <pt x="135" y="0" on="1"/>
        <pt x="54" y="0" on="1"/>
        <pt x="54" y="720" on="1"/>
        <pt x="654" y="719" on="1"/>
        <pt x="704" y="719" on="0"/>
        <pt x="774" y="649" on="0"/>
      </contour>
      <contour>
        <pt x="654" y="638" on="1"/>
        <pt x="174" y="638" on="1"/>
        <pt x="158" y="638" on="0"/>
        <pt x="135" y="615" on="0"/>
        <pt x="135" y="599" on="1"/>
        <pt x="135" y="388" on="1"/>
        <pt x="135" y="372" on="0"/>
        <pt x="158" y="350" on="0"/>
        <pt x="174" y="350" on="1"/>
        <pt x="654" y="350" on="1"/>
        <pt x="670" y="350" on="0"/>
        <pt x="693" y="372" on="0"/>
        <pt x="693" y="388" on="1"/>
        <pt x="693" y="599" on="1"/>
        <pt x="693" y="615" on="0"/>
        <pt x="670" y="638" on="0"/>
      </contour>
    </TTGlyph>
    <TTGlyph name="S" xMin="51" yMin="0" xMax="771" yMax="720">
      <contour>
        <pt x="771" y="600" on="1"/>
        <pt x="771" y="572" on="1"/>
        <pt x="690" y="572" on="1"/>
        <pt x="690" y="600" on="1"/>
        <pt x="690" y="616" on="0"/>
        <pt x="667" y="639" on="0"/>
        <pt x="651" y="639" on="1"/>
        <pt x="171" y="639" on="1"/>
        <pt x="155" y="639" on="0"/>
        <pt x="132" y="616" on="0"/>
        <pt x="132" y="600" on="1"/>
        <pt x="132" y="439" on="1"/>
        <pt x="132" y="423" on="0"/>
        <pt x="155" y="401" on="0"/>
        <pt x="171" y="401" on="1"/>
        <pt x="651" y="401" on="1"/>
        <pt x="701" y="401" on="0"/>
        <pt x="771" y="331" on="0"/>
        <pt x="771" y="281" on="1"/>
        <pt x="771" y="120" on="1"/>
        <pt x="771" y="70" on="0"/>
        <pt x="701" y="0" on="0"/>
        <pt x="651" y="0" on="1"/>
        <pt x="171" y="0" on="1"/>
        <pt x="121" y="0" on="0"/>
        <pt x="51" y="70" on="0"/>
        <pt x="51" y="120" on="1"/>
        <pt x="51" y="148" on="1"/>
        <pt x="132" y="148" on="1"/>
        <pt x="132" y="120" on="1"/>
        <pt x="132" y="104" on="0"/>
        <pt x="155" y="81" on="0"/>
        <pt x="171" y="81" on="1"/>
        <pt x="651" y="81" on="1"/>
        <pt x="667" y="81" on="0"/>
        <pt x="690" y="104" on="0"/>
        <pt x="690" y="120" on="1"/>
        <pt x="690" y="281" on="1"/>
        <pt x="690" y="297" on="0"/>
        <pt x="667" y="319" on="0"/>
        <pt x="651" y="319" on="1"/>
        <pt x="171" y="319" on="1"/>
        <pt x="121" y="319" on="0"/>
        <pt x="51" y="389" on="0"/>
        <pt x="51" y="439" on="1"/>
        <pt x="51" y="600" on="1"/>
        <pt x="51" y="650" on="0"/>
        <pt x="121" y="720" on="0"/>
        <pt x="171" y="720" on="1"/>
        <pt x="651" y="720" on="1"/>
        <pt x="701" y="720" on="0"/>
        <pt x="771" y="650" on="0"/>
      </contour>
    </TTGlyph>
    <TTGlyph name="S.alt" xMin="46" yMin="0" xMax="766" yMax="720">
      <contour>
        <pt x="166" y="401" on="1"/>
        <pt x="646" y="401" on="1"/>
        <pt x="696" y="401" on="0"/>
        <pt x="766" y="331" on="0"/>
        <pt x="766" y="281" on="1"/>
        <pt x="766" y="120" on="1"/>
        <pt x="766" y="70" on="0"/>
        <pt x="696" y="0" on="0"/>
        <pt x="646" y="0" on="1"/>
        <pt x="46" y="0" on="1"/>
        <pt x="46" y="81" on="1"/>
        <pt x="646" y="81" on="1"/>
        <pt x="662" y="81" on="0"/>
        <pt x="684" y="104" on="0"/>
        <pt x="684" y="120" on="1"/>
        <pt x="684" y="281" on="1"/>
        <pt x="684" y="297" on="0"/>
        <pt x="662" y="319" on="0"/>
        <pt x="646" y="319" on="1"/>
        <pt x="166" y="319" on="1"/>
        <pt x="116" y="319" on="0"/>
        <pt x="46" y="389" on="0"/>
        <pt x="46" y="439" on="1"/>
        <pt x="46" y="600" on="1"/>
        <pt x="46" y="650" on="0"/>
        <pt x="116" y="720" on="0"/>
        <pt x="166" y="720" on="1"/>
        <pt x="766" y="720" on="1"/>
        <pt x="766" y="639" on="1"/>
        <pt x="166" y="639" on="1"/>
        <pt x="150" y="639" on="0"/>
        <pt x="127" y="616" on="0"/>
        <pt x="127" y="600" on="1"/>
        <pt x="127" y="439" on="1"/>
        <pt x="127" y="423" on="0"/>
        <pt x="150" y="401" on="0"/>
      </contour>
    </TTGlyph>
    <TTGlyph name="Scaron" xMin="51" yMin="0" xMax="771" yMax="981">
      <contour>
        <pt x="771" y="600" on="1"/>
        <pt x="771" y="572" on="1"/>
        <pt x="690" y="572" on="1"/>
        <pt x="690" y="600" on="1"/>
        <pt x="690" y="616" on="0"/>
        <pt x="667" y="639" on="0"/>
        <pt x="651" y="639" on="1"/>
        <pt x="171" y="639" on="1"/>
        <pt x="155" y="639" on="0"/>
        <pt x="132" y="616" on="0"/>
        <pt x="132" y="600" on="1"/>
        <pt x="132" y="439" on="1"/>
        <pt x="132" y="423" on="0"/>
        <pt x="155" y="401" on="0"/>
        <pt x="171" y="401" on="1"/>
        <pt x="651" y="401" on="1"/>
        <pt x="701" y="401" on="0"/>
        <pt x="771" y="331" on="0"/>
        <pt x="771" y="281" on="1"/>
        <pt x="771" y="120" on="1"/>
        <pt x="771" y="70" on="0"/>
        <pt x="701" y="0" on="0"/>
        <pt x="651" y="0" on="1"/>
        <pt x="171" y="0" on="1"/>
        <pt x="121" y="0" on="0"/>
        <pt x="51" y="70" on="0"/>
        <pt x="51" y="120" on="1"/>
        <pt x="51" y="148" on="1"/>
        <pt x="132" y="148" on="1"/>
        <pt x="132" y="120" on="1"/>
        <pt x="132" y="104" on="0"/>
        <pt x="155" y="81" on="0"/>
        <pt x="171" y="81" on="1"/>
        <pt x="651" y="81" on="1"/>
        <pt x="667" y="81" on="0"/>
        <pt x="690" y="104" on="0"/>
        <pt x="690" y="120" on="1"/>
        <pt x="690" y="281" on="1"/>
        <pt x="690" y="297" on="0"/>
        <pt x="667" y="319" on="0"/>
        <pt x="651" y="319" on="1"/>
        <pt x="171" y="319" on="1"/>
        <pt x="121" y="319" on="0"/>
        <pt x="51" y="389" on="0"/>
        <pt x="51" y="439" on="1"/>
        <pt x="51" y="600" on="1"/>
        <pt x="51" y="650" on="0"/>
        <pt x="121" y="720" on="0"/>
        <pt x="171" y="720" on="1"/>
        <pt x="651" y="720" on="1"/>
        <pt x="701" y="720" on="0"/>
        <pt x="771" y="650" on="0"/>
      </contour>
      <contour>
        <pt x="289" y="981" on="1"/>
        <pt x="331" y="981" on="1"/>
        <pt x="391" y="896" on="1"/>
        <pt x="449" y="981" on="1"/>
        <pt x="490" y="981" on="1"/>
        <pt x="420" y="864" on="1"/>
        <pt x="361" y="864" on="1"/>
      </contour>
    </TTGlyph>
    <TTGlyph name="T" xMin="20" yMin="0" xMax="740" yMax="720">
      <contour>
        <pt x="20" y="720" on="1"/>
        <pt x="740" y="720" on="1"/>
        <pt x="740" y="639" on="1"/>
        <pt x="421" y="639" on="1"/>
        <pt x="421" y="0" on="1"/>
        <pt x="340" y="0" on="1"/>
        <pt x="340" y="639" on="1"/>
        <pt x="20" y="639" on="1"/>
      </contour>
    </TTGlyph>
    <TTGlyph name="U" xMin="54" yMin="0" xMax="774" yMax="720">
      <contour>
        <pt x="693" y="120" on="1"/>
        <pt x="693" y="720" on="1"/>
        <pt x="774" y="720" on="1"/>
        <pt x="774" y="120" on="1"/>
        <pt x="774" y="70" on="0"/>
        <pt x="704" y="0" on="0"/>
        <pt x="654" y="0" on="1"/>
        <pt x="174" y="0" on="1"/>
        <pt x="124" y="0" on="0"/>
        <pt x="54" y="70" on="0"/>
        <pt x="54" y="120" on="1"/>
        <pt x="54" y="720" on="1"/>
        <pt x="135" y="720" on="1"/>
        <pt x="135" y="120" on="1"/>
        <pt x="135" y="104" on="0"/>
        <pt x="158" y="81" on="0"/>
        <pt x="174" y="81" on="1"/>
        <pt x="654" y="81" on="1"/>
        <pt x="670" y="81" on="0"/>
        <pt x="693" y="104" on="0"/>
      </contour>
    </TTGlyph>
    <TTGlyph name="Uacute" xMin="54" yMin="0" xMax="774" yMax="1004">
      <contour>
        <pt x="693" y="120" on="1"/>
        <pt x="693" y="720" on="1"/>
        <pt x="774" y="720" on="1"/>
        <pt x="774" y="120" on="1"/>
        <pt x="774" y="70" on="0"/>
        <pt x="704" y="0" on="0"/>
        <pt x="654" y="0" on="1"/>
        <pt x="174" y="0" on="1"/>
        <pt x="124" y="0" on="0"/>
        <pt x="54" y="70" on="0"/>
        <pt x="54" y="120" on="1"/>
        <pt x="54" y="720" on="1"/>
        <pt x="135" y="720" on="1"/>
        <pt x="135" y="120" on="1"/>
        <pt x="135" y="104" on="0"/>
        <pt x="158" y="81" on="0"/>
        <pt x="174" y="81" on="1"/>
        <pt x="654" y="81" on="1"/>
        <pt x="670" y="81" on="0"/>
        <pt x="693" y="104" on="0"/>
      </contour>
      <contour>
        <pt x="340" y="865" on="1"/>
        <pt x="375" y="1004" on="1"/>
        <pt x="454" y="1004" on="1"/>
        <pt x="420" y="865" on="1"/>
      </contour>
    </TTGlyph>
    <TTGlyph name="Ucircumflex" xMin="54" yMin="0" xMax="774" yMax="981">
      <contour>
        <pt x="693" y="120" on="1"/>
        <pt x="693" y="720" on="1"/>
        <pt x="774" y="720" on="1"/>
        <pt x="774" y="120" on="1"/>
        <pt x="774" y="70" on="0"/>
        <pt x="704" y="0" on="0"/>
        <pt x="654" y="0" on="1"/>
        <pt x="174" y="0" on="1"/>
        <pt x="124" y="0" on="0"/>
        <pt x="54" y="70" on="0"/>
        <pt x="54" y="120" on="1"/>
        <pt x="54" y="720" on="1"/>
        <pt x="135" y="720" on="1"/>
        <pt x="135" y="120" on="1"/>
        <pt x="135" y="104" on="0"/>
        <pt x="158" y="81" on="0"/>
        <pt x="174" y="81" on="1"/>
        <pt x="654" y="81" on="1"/>
        <pt x="670" y="81" on="0"/>
        <pt x="693" y="104" on="0"/>
      </contour>
      <contour>
        <pt x="333" y="864" on="1"/>
        <pt x="292" y="864" on="1"/>
        <pt x="363" y="981" on="1"/>
        <pt x="422" y="981" on="1"/>
        <pt x="493" y="864" on="1"/>
        <pt x="451" y="864" on="1"/>
        <pt x="393" y="949" on="1"/>
      </contour>
    </TTGlyph>
    <TTGlyph name="Udieresis" xMin="54" yMin="0" xMax="774" yMax="947">
      <contour>
        <pt x="693" y="120" on="1"/>
        <pt x="693" y="720" on="1"/>
        <pt x="774" y="720" on="1"/>
        <pt x="774" y="120" on="1"/>
        <pt x="774" y="70" on="0"/>
        <pt x="704" y="0" on="0"/>
        <pt x="654" y="0" on="1"/>
        <pt x="174" y="0" on="1"/>
        <pt x="124" y="0" on="0"/>
        <pt x="54" y="70" on="0"/>
        <pt x="54" y="120" on="1"/>
        <pt x="54" y="720" on="1"/>
        <pt x="135" y="720" on="1"/>
        <pt x="135" y="120" on="1"/>
        <pt x="135" y="104" on="0"/>
        <pt x="158" y="81" on="0"/>
        <pt x="174" y="81" on="1"/>
        <pt x="654" y="81" on="1"/>
        <pt x="670" y="81" on="0"/>
        <pt x="693" y="104" on="0"/>
      </contour>
      <contour>
        <pt x="537" y="947" on="1"/>
        <pt x="537" y="865" on="1"/>
        <pt x="455" y="865" on="1"/>
        <pt x="455" y="947" on="1"/>
      </contour>
      <contour>
        <pt x="358" y="947" on="1"/>
        <pt x="358" y="865" on="1"/>
        <pt x="275" y="865" on="1"/>
        <pt x="275" y="947" on="1"/>
      </contour>
    </TTGlyph>
    <TTGlyph name="Ugrave" xMin="54" yMin="0" xMax="774" yMax="1004">
      <contour>
        <pt x="693" y="120" on="1"/>
        <pt x="693" y="720" on="1"/>
        <pt x="774" y="720" on="1"/>
        <pt x="774" y="120" on="1"/>
        <pt x="774" y="70" on="0"/>
        <pt x="704" y="0" on="0"/>
        <pt x="654" y="0" on="1"/>
        <pt x="174" y="0" on="1"/>
        <pt x="124" y="0" on="0"/>
        <pt x="54" y="70" on="0"/>
        <pt x="54" y="120" on="1"/>
        <pt x="54" y="720" on="1"/>
        <pt x="135" y="720" on="1"/>
        <pt x="135" y="120" on="1"/>
        <pt x="135" y="104" on="0"/>
        <pt x="158" y="81" on="0"/>
        <pt x="174" y="81" on="1"/>
        <pt x="654" y="81" on="1"/>
        <pt x="670" y="81" on="0"/>
        <pt x="693" y="104" on="0"/>
      </contour>
      <contour>
        <pt x="421" y="1004" on="1"/>
        <pt x="455" y="865" on="1"/>
        <pt x="375" y="865" on="1"/>
        <pt x="340" y="1004" on="1"/>
      </contour>
    </TTGlyph>
    <TTGlyph name="V" xMin="35" yMin="0" xMax="962" yMax="720">
      <contour>
        <pt x="499" y="79" on="1"/>
        <pt x="867" y="720" on="1"/>
        <pt x="962" y="720" on="1"/>
        <pt x="546" y="0" on="1"/>
        <pt x="452" y="0" on="1"/>
        <pt x="35" y="720" on="1"/>
        <pt x="130" y="720" on="1"/>
      </contour>
    </TTGlyph>
    <TTGlyph name="V.alt" xMin="54" yMin="0" xMax="777" yMax="721">
      <contour>
        <pt x="54" y="721" on="1"/>
        <pt x="137" y="721" on="1"/>
        <pt x="137" y="93" on="1"/>
        <pt x="670" y="721" on="1"/>
        <pt x="777" y="721" on="1"/>
        <pt x="166" y="0" on="1"/>
        <pt x="54" y="0" on="1"/>
      </contour>
    </TTGlyph>
    <TTGlyph name="V.alt2" xMin="0" yMin="0" xMax="716" yMax="720">
      <contour>
        <pt x="635" y="92" on="1"/>
        <pt x="635" y="720" on="1"/>
        <pt x="716" y="720" on="1"/>
        <pt x="716" y="0" on="1"/>
        <pt x="605" y="0" on="1"/>
        <pt x="0" y="720" on="1"/>
        <pt x="107" y="720" on="1"/>
      </contour>
    </TTGlyph>
    <TTGlyph name="V.alt3" xMin="53" yMin="0" xMax="773" yMax="720">
      <contour>
        <pt x="692" y="720" on="1"/>
        <pt x="773" y="720" on="1"/>
        <pt x="773" y="0" on="1"/>
        <pt x="173" y="0" on="1"/>
        <pt x="123" y="0" on="0"/>
        <pt x="53" y="70" on="0"/>
        <pt x="53" y="120" on="1"/>
        <pt x="53" y="720" on="1"/>
        <pt x="134" y="720" on="1"/>
        <pt x="134" y="120" on="1"/>
        <pt x="134" y="104" on="0"/>
        <pt x="157" y="81" on="0"/>
        <pt x="173" y="81" on="1"/>
        <pt x="692" y="81" on="1"/>
      </contour>
    </TTGlyph>
    <TTGlyph name="W" xMin="35" yMin="0" xMax="1148" yMax="720">
      <contour>
        <pt x="1060" y="720" on="1"/>
        <pt x="1148" y="720" on="1"/>
        <pt x="886" y="0" on="1"/>
        <pt x="815" y="0" on="1"/>
        <pt x="591" y="615" on="1"/>
        <pt x="367" y="0" on="1"/>
        <pt x="297" y="0" on="1"/>
        <pt x="35" y="720" on="1"/>
        <pt x="121" y="720" on="1"/>
        <pt x="332" y="142" on="1"/>
        <pt x="542" y="720" on="1"/>
        <pt x="640" y="720" on="1"/>
        <pt x="851" y="142" on="1"/>
      </contour>
    </TTGlyph>
    <TTGlyph name="W.alt" xMin="49" yMin="0" xMax="1171" yMax="720">
      <contour>
        <pt x="1065" y="720" on="1"/>
        <pt x="1171" y="720" on="1"/>
        <pt x="561" y="0" on="1"/>
        <pt x="449" y="0" on="1"/>
        <pt x="449" y="343" on="1"/>
        <pt x="161" y="0" on="1"/>
        <pt x="49" y="0" on="1"/>
        <pt x="49" y="720" on="1"/>
        <pt x="131" y="720" on="1"/>
        <pt x="131" y="93" on="1"/>
        <pt x="665" y="720" on="1"/>
        <pt x="770" y="720" on="1"/>
        <pt x="531" y="442" on="1"/>
        <pt x="531" y="93" on="1"/>
      </contour>
    </TTGlyph>
    <TTGlyph name="W.alt2" xMin="0" yMin="0" xMax="1123" yMax="720">
      <contour>
        <pt x="612" y="0" on="1"/>
        <pt x="0" y="720" on="1"/>
        <pt x="108" y="720" on="1"/>
        <pt x="641" y="93" on="1"/>
        <pt x="641" y="442" on="1"/>
        <pt x="401" y="720" on="1"/>
        <pt x="507" y="720" on="1"/>
        <pt x="1041" y="93" on="1"/>
        <pt x="1041" y="720" on="1"/>
        <pt x="1123" y="720" on="1"/>
        <pt x="1123" y="0" on="1"/>
        <pt x="1012" y="0" on="1"/>
        <pt x="724" y="343" on="1"/>
        <pt x="724" y="0" on="1"/>
      </contour>
    </TTGlyph>
    <TTGlyph name="W.alt3" xMin="54" yMin="0" xMax="983" yMax="720">
      <contour>
        <pt x="518" y="421" on="1"/>
        <pt x="164" y="0" on="1"/>
        <pt x="54" y="0" on="1"/>
        <pt x="54" y="720" on="1"/>
        <pt x="135" y="720" on="1"/>
        <pt x="135" y="92" on="1"/>
        <pt x="518" y="549" on="1"/>
        <pt x="901" y="92" on="1"/>
        <pt x="901" y="720" on="1"/>
        <pt x="983" y="720" on="1"/>
        <pt x="983" y="0" on="1"/>
        <pt x="872" y="0" on="1"/>
      </contour>
    </TTGlyph>
    <TTGlyph name="W.alt4" xMin="53" yMin="0" xMax="1116" yMax="720">
      <contour>
        <pt x="173" y="0" on="1"/>
        <pt x="123" y="0" on="0"/>
        <pt x="53" y="70" on="0"/>
        <pt x="53" y="120" on="1"/>
        <pt x="53" y="720" on="1"/>
        <pt x="135" y="720" on="1"/>
        <pt x="135" y="120" on="1"/>
        <pt x="135" y="104" on="0"/>
        <pt x="158" y="81" on="0"/>
        <pt x="173" y="81" on="1"/>
        <pt x="556" y="81" on="1"/>
        <pt x="556" y="720" on="1"/>
        <pt x="638" y="720" on="1"/>
        <pt x="638" y="120" on="1"/>
        <pt x="638" y="104" on="0"/>
        <pt x="660" y="81" on="0"/>
        <pt x="676" y="81" on="1"/>
        <pt x="1034" y="81" on="1"/>
        <pt x="1034" y="720" on="1"/>
        <pt x="1116" y="720" on="1"/>
        <pt x="1116" y="0" on="1"/>
      </contour>
    </TTGlyph>
    <TTGlyph name="X" xMin="46" yMin="0" xMax="756" yMax="720">
      <contour>
        <pt x="651" y="720" on="1"/>
        <pt x="755" y="720" on="1"/>
        <pt x="453" y="360" on="1"/>
        <pt x="756" y="0" on="1"/>
        <pt x="651" y="0" on="1"/>
        <pt x="401" y="297" on="1"/>
        <pt x="150" y="0" on="1"/>
        <pt x="46" y="0" on="1"/>
        <pt x="348" y="360" on="1"/>
        <pt x="46" y="720" on="1"/>
        <pt x="150" y="720" on="1"/>
        <pt x="401" y="423" on="1"/>
      </contour>
    </TTGlyph>
    <TTGlyph name="X.alt" xMin="54" yMin="0" xMax="775" yMax="720">
      <contour>
        <pt x="694" y="720" on="1"/>
        <pt x="775" y="720" on="1"/>
        <pt x="775" y="457" on="1"/>
        <pt x="775" y="419" on="0"/>
        <pt x="690" y="357" on="0"/>
        <pt x="636" y="357" on="1"/>
        <pt x="690" y="357" on="0"/>
        <pt x="774" y="295" on="0"/>
        <pt x="774" y="257" on="1"/>
        <pt x="774" y="0" on="1"/>
        <pt x="693" y="0" on="1"/>
        <pt x="693" y="278" on="1"/>
        <pt x="693" y="293" on="0"/>
        <pt x="670" y="316" on="0"/>
        <pt x="654" y="316" on="1"/>
        <pt x="175" y="316" on="1"/>
        <pt x="159" y="316" on="0"/>
        <pt x="136" y="293" on="0"/>
        <pt x="136" y="278" on="1"/>
        <pt x="136" y="0" on="1"/>
        <pt x="55" y="0" on="1"/>
        <pt x="55" y="257" on="1"/>
        <pt x="55" y="296" on="0"/>
        <pt x="139" y="357" on="0"/>
        <pt x="193" y="357" on="1"/>
        <pt x="139" y="357" on="0"/>
        <pt x="54" y="418" on="0"/>
        <pt x="54" y="457" on="1"/>
        <pt x="54" y="720" on="1"/>
        <pt x="135" y="720" on="1"/>
        <pt x="135" y="436" on="1"/>
        <pt x="135" y="420" on="0"/>
        <pt x="158" y="398" on="0"/>
        <pt x="174" y="398" on="1"/>
        <pt x="655" y="398" on="1"/>
        <pt x="671" y="398" on="0"/>
        <pt x="694" y="420" on="0"/>
        <pt x="694" y="436" on="1"/>
      </contour>
    </TTGlyph>
    <TTGlyph name="Y" xMin="17" yMin="0" xMax="760" yMax="720">
      <contour>
        <pt x="665" y="720" on="1"/>
        <pt x="760" y="720" on="1"/>
        <pt x="429" y="271" on="1"/>
        <pt x="429" y="0" on="1"/>
        <pt x="348" y="0" on="1"/>
        <pt x="348" y="271" on="1"/>
        <pt x="17" y="720" on="1"/>
        <pt x="110" y="720" on="1"/>
        <pt x="389" y="368" on="1"/>
      </contour>
    </TTGlyph>
    <TTGlyph name="Y.alt" xMin="51" yMin="0" xMax="771" yMax="720">
      <contour>
        <pt x="690" y="720" on="1"/>
        <pt x="771" y="720" on="1"/>
        <pt x="771" y="120" on="1"/>
        <pt x="771" y="70" on="0"/>
        <pt x="701" y="0" on="0"/>
        <pt x="651" y="0" on="1"/>
        <pt x="51" y="0" on="1"/>
        <pt x="51" y="81" on="1"/>
        <pt x="651" y="81" on="1"/>
        <pt x="667" y="81" on="0"/>
        <pt x="690" y="104" on="0"/>
        <pt x="690" y="120" on="1"/>
        <pt x="690" y="281" on="1"/>
        <pt x="690" y="297" on="0"/>
        <pt x="667" y="319" on="0"/>
        <pt x="651" y="319" on="1"/>
        <pt x="171" y="319" on="1"/>
        <pt x="121" y="319" on="0"/>
        <pt x="51" y="389" on="0"/>
        <pt x="51" y="439" on="1"/>
        <pt x="51" y="720" on="1"/>
        <pt x="132" y="720" on="1"/>
        <pt x="132" y="439" on="1"/>
        <pt x="132" y="423" on="0"/>
        <pt x="155" y="401" on="0"/>
        <pt x="171" y="401" on="1"/>
        <pt x="690" y="401" on="1"/>
      </contour>
    </TTGlyph>
    <TTGlyph name="Yacute" xMin="17" yMin="0" xMax="760" yMax="1004">
      <contour>
        <pt x="665" y="720" on="1"/>
        <pt x="760" y="720" on="1"/>
        <pt x="429" y="271" on="1"/>
        <pt x="429" y="0" on="1"/>
        <pt x="348" y="0" on="1"/>
        <pt x="348" y="271" on="1"/>
        <pt x="17" y="720" on="1"/>
        <pt x="110" y="720" on="1"/>
        <pt x="389" y="368" on="1"/>
      </contour>
      <contour>
        <pt x="329" y="865" on="1"/>
        <pt x="364" y="1004" on="1"/>
        <pt x="443" y="1004" on="1"/>
        <pt x="409" y="865" on="1"/>
      </contour>
    </TTGlyph>
    <TTGlyph name="Ydieresis" xMin="17" yMin="0" xMax="760" yMax="947">
      <contour>
        <pt x="665" y="720" on="1"/>
        <pt x="760" y="720" on="1"/>
        <pt x="429" y="271" on="1"/>
        <pt x="429" y="0" on="1"/>
        <pt x="348" y="0" on="1"/>
        <pt x="348" y="271" on="1"/>
        <pt x="17" y="720" on="1"/>
        <pt x="110" y="720" on="1"/>
        <pt x="389" y="368" on="1"/>
      </contour>
      <contour>
        <pt x="526" y="947" on="1"/>
        <pt x="526" y="865" on="1"/>
        <pt x="444" y="865" on="1"/>
        <pt x="444" y="947" on="1"/>
      </contour>
      <contour>
        <pt x="347" y="947" on="1"/>
        <pt x="347" y="865" on="1"/>
        <pt x="264" y="865" on="1"/>
        <pt x="264" y="947" on="1"/>
      </contour>
    </TTGlyph>
    <TTGlyph name="Z" xMin="51" yMin="0" xMax="771" yMax="720">
      <contour>
        <pt x="51" y="639" on="1"/>
        <pt x="51" y="720" on="1"/>
        <pt x="771" y="720" on="1"/>
        <pt x="771" y="609" on="1"/>
        <pt x="143" y="81" on="1"/>
        <pt x="771" y="81" on="1"/>
        <pt x="771" y="0" on="1"/>
        <pt x="51" y="0" on="1"/>
        <pt x="51" y="111" on="1"/>
        <pt x="679" y="639" on="1"/>
      </contour>
    </TTGlyph>
    <TTGlyph name="Z.alt" xMin="49" yMin="0" xMax="769" yMax="720">
      <contour>
        <pt x="169" y="401" on="1"/>
        <pt x="649" y="401" on="1"/>
        <pt x="665" y="401" on="0"/>
        <pt x="687" y="423" on="0"/>
        <pt x="687" y="439" on="1"/>
        <pt x="687" y="600" on="1"/>
        <pt x="687" y="616" on="0"/>
        <pt x="665" y="639" on="0"/>
        <pt x="649" y="639" on="1"/>
        <pt x="49" y="639" on="1"/>
        <pt x="49" y="720" on="1"/>
        <pt x="649" y="720" on="1"/>
        <pt x="699" y="720" on="0"/>
        <pt x="769" y="650" on="0"/>
        <pt x="769" y="600" on="1"/>
        <pt x="769" y="439" on="1"/>
        <pt x="769" y="389" on="0"/>
        <pt x="699" y="319" on="0"/>
        <pt x="649" y="319" on="1"/>
        <pt x="169" y="319" on="1"/>
        <pt x="153" y="319" on="0"/>
        <pt x="130" y="297" on="0"/>
        <pt x="130" y="281" on="1"/>
        <pt x="130" y="120" on="1"/>
        <pt x="130" y="104" on="0"/>
        <pt x="153" y="81" on="0"/>
        <pt x="169" y="81" on="1"/>
        <pt x="769" y="81" on="1"/>
        <pt x="769" y="0" on="1"/>
        <pt x="169" y="0" on="1"/>
        <pt x="119" y="0" on="0"/>
        <pt x="49" y="70" on="0"/>
        <pt x="49" y="120" on="1"/>
        <pt x="49" y="281" on="1"/>
        <pt x="49" y="331" on="0"/>
        <pt x="119" y="401" on="0"/>
      </contour>
    </TTGlyph>
    <TTGlyph name="Zcaron" xMin="51" yMin="0" xMax="771" yMax="981">
      <contour>
        <pt x="51" y="639" on="1"/>
        <pt x="51" y="720" on="1"/>
        <pt x="771" y="720" on="1"/>
        <pt x="771" y="609" on="1"/>
        <pt x="143" y="81" on="1"/>
        <pt x="771" y="81" on="1"/>
        <pt x="771" y="0" on="1"/>
        <pt x="51" y="0" on="1"/>
        <pt x="51" y="111" on="1"/>
        <pt x="679" y="639" on="1"/>
      </contour>
      <contour>
        <pt x="288" y="981" on="1"/>
        <pt x="330" y="981" on="1"/>
        <pt x="390" y="896" on="1"/>
        <pt x="448" y="981" on="1"/>
        <pt x="489" y="981" on="1"/>
        <pt x="419" y="864" on="1"/>
        <pt x="360" y="864" on="1"/>
      </contour>
    </TTGlyph>
    <TTGlyph name="a" xMin="52" yMin="0" xMax="643" yMax="580">
      <contour>
        <pt x="521" y="580" on="1"/>
        <pt x="572" y="580" on="0"/>
        <pt x="643" y="509" on="0"/>
        <pt x="643" y="459" on="1"/>
        <pt x="643" y="0" on="1"/>
        <pt x="173" y="0" on="1"/>
        <pt x="123" y="0" on="0"/>
        <pt x="52" y="71" on="0"/>
        <pt x="52" y="121" on="1"/>
        <pt x="52" y="331" on="1"/>
        <pt x="560" y="331" on="1"/>
        <pt x="560" y="459" on="1"/>
        <pt x="560" y="475" on="0"/>
        <pt x="537" y="498" on="0"/>
        <pt x="521" y="498" on="1"/>
        <pt x="52" y="498" on="1"/>
        <pt x="52" y="580" on="1"/>
      </contour>
      <contour>
        <pt x="560" y="82" on="1"/>
        <pt x="560" y="249" on="1"/>
        <pt x="134" y="249" on="1"/>
        <pt x="134" y="121" on="1"/>
        <pt x="134" y="105" on="0"/>
        <pt x="157" y="82" on="0"/>
        <pt x="173" y="82" on="1"/>
      </contour>
    </TTGlyph>
    <TTGlyph name="a.alt" xMin="51" yMin="0" xMax="642" yMax="580">
      <contour>
        <pt x="520" y="580" on="1"/>
        <pt x="571" y="580" on="0"/>
        <pt x="642" y="509" on="0"/>
        <pt x="642" y="459" on="1"/>
        <pt x="642" y="0" on="1"/>
        <pt x="172" y="0" on="1"/>
        <pt x="122" y="0" on="0"/>
        <pt x="51" y="71" on="0"/>
        <pt x="51" y="121" on="1"/>
        <pt x="51" y="459" on="1"/>
        <pt x="51" y="509" on="0"/>
        <pt x="122" y="580" on="0"/>
        <pt x="172" y="580" on="1"/>
      </contour>
      <contour>
        <pt x="172" y="82" on="1"/>
        <pt x="559" y="82" on="1"/>
        <pt x="559" y="459" on="1"/>
        <pt x="559" y="475" on="0"/>
        <pt x="536" y="498" on="0"/>
        <pt x="520" y="498" on="1"/>
        <pt x="172" y="498" on="1"/>
        <pt x="156" y="498" on="0"/>
        <pt x="133" y="475" on="0"/>
        <pt x="133" y="459" on="1"/>
        <pt x="133" y="121" on="1"/>
        <pt x="133" y="105" on="0"/>
        <pt x="156" y="82" on="0"/>
      </contour>
    </TTGlyph>
    <TTGlyph name="a.sc" xMin="53" yMin="0" xMax="675" yMax="580">
      <contour>
        <pt x="174" y="580" on="1"/>
        <pt x="554" y="580" on="1"/>
        <pt x="604" y="580" on="0"/>
        <pt x="675" y="509" on="0"/>
        <pt x="675" y="459" on="1"/>
        <pt x="675" y="0" on="1"/>
        <pt x="593" y="0" on="1"/>
        <pt x="593" y="160" on="1"/>
        <pt x="135" y="160" on="1"/>
        <pt x="135" y="0" on="1"/>
        <pt x="53" y="0" on="1"/>
        <pt x="53" y="459" on="1"/>
        <pt x="53" y="509" on="0"/>
        <pt x="124" y="580" on="0"/>
      </contour>
      <contour>
        <pt x="135" y="243" on="1"/>
        <pt x="593" y="243" on="1"/>
        <pt x="593" y="459" on="1"/>
        <pt x="593" y="475" on="0"/>
        <pt x="570" y="498" on="0"/>
        <pt x="554" y="498" on="1"/>
        <pt x="174" y="498" on="1"/>
        <pt x="158" y="498" on="0"/>
        <pt x="135" y="475" on="0"/>
        <pt x="135" y="459" on="1"/>
      </contour>
    </TTGlyph>
    <TTGlyph name="aacute" xMin="52" yMin="0" xMax="643" yMax="902">
      <contour>
        <pt x="521" y="580" on="1"/>
        <pt x="572" y="580" on="0"/>
        <pt x="643" y="509" on="0"/>
        <pt x="643" y="459" on="1"/>
        <pt x="643" y="0" on="1"/>
        <pt x="173" y="0" on="1"/>
        <pt x="123" y="0" on="0"/>
        <pt x="52" y="71" on="0"/>
        <pt x="52" y="121" on="1"/>
        <pt x="52" y="331" on="1"/>
        <pt x="560" y="331" on="1"/>
        <pt x="560" y="459" on="1"/>
        <pt x="560" y="475" on="0"/>
        <pt x="537" y="498" on="0"/>
        <pt x="521" y="498" on="1"/>
        <pt x="52" y="498" on="1"/>
        <pt x="52" y="580" on="1"/>
      </contour>
      <contour>
        <pt x="560" y="82" on="1"/>
        <pt x="560" y="249" on="1"/>
        <pt x="134" y="249" on="1"/>
        <pt x="134" y="121" on="1"/>
        <pt x="134" y="105" on="0"/>
        <pt x="157" y="82" on="0"/>
        <pt x="173" y="82" on="1"/>
      </contour>
      <contour>
        <pt x="288" y="763" on="1"/>
        <pt x="323" y="902" on="1"/>
        <pt x="402" y="902" on="1"/>
        <pt x="368" y="763" on="1"/>
      </contour>
    </TTGlyph>
    <TTGlyph name="acircumflex" xMin="52" yMin="0" xMax="643" yMax="880">
      <contour>
        <pt x="521" y="580" on="1"/>
        <pt x="572" y="580" on="0"/>
        <pt x="643" y="509" on="0"/>
        <pt x="643" y="459" on="1"/>
        <pt x="643" y="0" on="1"/>
        <pt x="173" y="0" on="1"/>
        <pt x="123" y="0" on="0"/>
        <pt x="52" y="71" on="0"/>
        <pt x="52" y="121" on="1"/>
        <pt x="52" y="331" on="1"/>
        <pt x="560" y="331" on="1"/>
        <pt x="560" y="459" on="1"/>
        <pt x="560" y="475" on="0"/>
        <pt x="537" y="498" on="0"/>
        <pt x="521" y="498" on="1"/>
        <pt x="52" y="498" on="1"/>
        <pt x="52" y="580" on="1"/>
      </contour>
      <contour>
        <pt x="560" y="82" on="1"/>
        <pt x="560" y="249" on="1"/>
        <pt x="134" y="249" on="1"/>
        <pt x="134" y="121" on="1"/>
        <pt x="134" y="105" on="0"/>
        <pt x="157" y="82" on="0"/>
        <pt x="173" y="82" on="1"/>
      </contour>
      <contour>
        <pt x="281" y="763" on="1"/>
        <pt x="240" y="763" on="1"/>
        <pt x="311" y="880" on="1"/>
        <pt x="370" y="880" on="1"/>
        <pt x="441" y="763" on="1"/>
        <pt x="399" y="763" on="1"/>
        <pt x="341" y="848" on="1"/>
      </contour>
    </TTGlyph>
    <TTGlyph name="acute" xMin="33" yMin="872" xMax="147" yMax="1011">
      <contour>
        <pt x="33" y="872" on="1"/>
        <pt x="68" y="1011" on="1"/>
        <pt x="147" y="1011" on="1"/>
        <pt x="113" y="872" on="1"/>
      </contour>
    </TTGlyph>
    <TTGlyph name="adieresis" xMin="52" yMin="0" xMax="643" yMax="845">
      <contour>
        <pt x="521" y="580" on="1"/>
        <pt x="572" y="580" on="0"/>
        <pt x="643" y="509" on="0"/>
        <pt x="643" y="459" on="1"/>
        <pt x="643" y="0" on="1"/>
        <pt x="173" y="0" on="1"/>
        <pt x="123" y="0" on="0"/>
        <pt x="52" y="71" on="0"/>
        <pt x="52" y="121" on="1"/>
        <pt x="52" y="331" on="1"/>
        <pt x="560" y="331" on="1"/>
        <pt x="560" y="459" on="1"/>
        <pt x="560" y="475" on="0"/>
        <pt x="537" y="498" on="0"/>
        <pt x="521" y="498" on="1"/>
        <pt x="52" y="498" on="1"/>
        <pt x="52" y="580" on="1"/>
      </contour>
      <contour>
        <pt x="560" y="82" on="1"/>
        <pt x="560" y="249" on="1"/>
        <pt x="134" y="249" on="1"/>
        <pt x="134" y="121" on="1"/>
        <pt x="134" y="105" on="0"/>
        <pt x="157" y="82" on="0"/>
        <pt x="173" y="82" on="1"/>
      </contour>
      <contour>
        <pt x="485" y="845" on="1"/>
        <pt x="485" y="763" on="1"/>
        <pt x="403" y="763" on="1"/>
        <pt x="403" y="845" on="1"/>
      </contour>
      <contour>
        <pt x="306" y="845" on="1"/>
        <pt x="306" y="763" on="1"/>
        <pt x="223" y="763" on="1"/>
        <pt x="223" y="845" on="1"/>
      </contour>
    </TTGlyph>
    <TTGlyph name="ae" xMin="53" yMin="0" xMax="1151" yMax="580">
      <contour>
        <pt x="1030" y="580" on="1"/>
        <pt x="1081" y="580" on="0"/>
        <pt x="1151" y="509" on="0"/>
        <pt x="1151" y="459" on="1"/>
        <pt x="1151" y="249" on="1"/>
        <pt x="643" y="249" on="1"/>
        <pt x="643" y="117" on="1"/>
        <pt x="644" y="102" on="0"/>
        <pt x="667" y="82" on="0"/>
        <pt x="682" y="82" on="1"/>
        <pt x="1151" y="82" on="1"/>
        <pt x="1151" y="0" on="1"/>
        <pt x="174" y="0" on="1"/>
        <pt x="123" y="0" on="0"/>
        <pt x="53" y="71" on="0"/>
        <pt x="53" y="121" on="1"/>
        <pt x="53" y="331" on="1"/>
        <pt x="561" y="331" on="1"/>
        <pt x="561" y="459" on="1"/>
        <pt x="561" y="475" on="0"/>
        <pt x="538" y="498" on="0"/>
        <pt x="522" y="498" on="1"/>
        <pt x="53" y="498" on="1"/>
        <pt x="53" y="580" on="1"/>
      </contour>
      <contour>
        <pt x="561" y="82" on="1"/>
        <pt x="561" y="249" on="1"/>
        <pt x="135" y="249" on="1"/>
        <pt x="135" y="121" on="1"/>
        <pt x="135" y="105" on="0"/>
        <pt x="158" y="82" on="0"/>
        <pt x="174" y="82" on="1"/>
      </contour>
      <contour>
        <pt x="643" y="331" on="1"/>
        <pt x="1069" y="331" on="1"/>
        <pt x="1069" y="459" on="1"/>
        <pt x="1069" y="475" on="0"/>
        <pt x="1046" y="498" on="0"/>
        <pt x="1030" y="498" on="1"/>
        <pt x="682" y="498" on="1"/>
        <pt x="666" y="498" on="0"/>
        <pt x="643" y="475" on="0"/>
        <pt x="643" y="459" on="1"/>
      </contour>
    </TTGlyph>
    <TTGlyph name="agrave" xMin="52" yMin="0" xMax="643" yMax="902">
      <contour>
        <pt x="521" y="580" on="1"/>
        <pt x="572" y="580" on="0"/>
        <pt x="643" y="509" on="0"/>
        <pt x="643" y="459" on="1"/>
        <pt x="643" y="0" on="1"/>
        <pt x="173" y="0" on="1"/>
        <pt x="123" y="0" on="0"/>
        <pt x="52" y="71" on="0"/>
        <pt x="52" y="121" on="1"/>
        <pt x="52" y="331" on="1"/>
        <pt x="560" y="331" on="1"/>
        <pt x="560" y="459" on="1"/>
        <pt x="560" y="475" on="0"/>
        <pt x="537" y="498" on="0"/>
        <pt x="521" y="498" on="1"/>
        <pt x="52" y="498" on="1"/>
        <pt x="52" y="580" on="1"/>
      </contour>
      <contour>
        <pt x="560" y="82" on="1"/>
        <pt x="560" y="249" on="1"/>
        <pt x="134" y="249" on="1"/>
        <pt x="134" y="121" on="1"/>
        <pt x="134" y="105" on="0"/>
        <pt x="157" y="82" on="0"/>
        <pt x="173" y="82" on="1"/>
      </contour>
      <contour>
        <pt x="369" y="902" on="1"/>
        <pt x="403" y="763" on="1"/>
        <pt x="323" y="763" on="1"/>
        <pt x="288" y="902" on="1"/>
      </contour>
    </TTGlyph>
    <TTGlyph name="ampersand" xMin="53" yMin="0" xMax="914" yMax="719">
      <contour>
        <pt x="780" y="167" on="1"/>
        <pt x="914" y="88" on="1"/>
        <pt x="914" y="16" on="1"/>
        <pt x="777" y="93" on="1"/>
        <pt x="760" y="51" on="0"/>
        <pt x="697" y="0" on="0"/>
        <pt x="659" y="0" on="1"/>
        <pt x="174" y="0" on="1"/>
        <pt x="124" y="0" on="0"/>
        <pt x="53" y="71" on="0"/>
        <pt x="53" y="121" on="1"/>
        <pt x="53" y="336" on="1"/>
        <pt x="53" y="358" on="0"/>
        <pt x="107" y="401" on="0"/>
        <pt x="152" y="401" on="1"/>
        <pt x="95" y="444" on="0"/>
        <pt x="95" y="497" on="1"/>
        <pt x="95" y="597" on="1"/>
        <pt x="95" y="648" on="0"/>
        <pt x="166" y="719" on="0"/>
        <pt x="216" y="719" on="1"/>
        <pt x="627" y="719" on="1"/>
        <pt x="668" y="719" on="0"/>
        <pt x="737" y="658" on="0"/>
        <pt x="749" y="617" on="1"/>
        <pt x="749" y="562" on="1"/>
        <pt x="666" y="562" on="1"/>
        <pt x="666" y="596" on="1"/>
        <pt x="666" y="612" on="0"/>
        <pt x="643" y="635" on="0"/>
        <pt x="627" y="635" on="1"/>
        <pt x="216" y="635" on="1"/>
        <pt x="200" y="635" on="0"/>
        <pt x="177" y="612" on="0"/>
        <pt x="177" y="596" on="1"/>
        <pt x="177" y="457" on="1"/>
        <pt x="698" y="194" on="1"/>
        <pt x="698" y="333" on="1"/>
        <pt x="780" y="333" on="1"/>
      </contour>
      <contour>
        <pt x="174" y="82" on="1"/>
        <pt x="659" y="82" on="1"/>
        <pt x="670" y="82" on="0"/>
        <pt x="692" y="102" on="0"/>
        <pt x="699" y="118" on="1"/>
        <pt x="189" y="375" on="1"/>
        <pt x="174" y="375" on="1"/>
        <pt x="158" y="375" on="0"/>
        <pt x="135" y="352" on="0"/>
        <pt x="135" y="336" on="1"/>
        <pt x="135" y="121" on="1"/>
        <pt x="135" y="105" on="0"/>
        <pt x="158" y="82" on="0"/>
      </contour>
    </TTGlyph>
    <TTGlyph name="aring" xMin="52" yMin="0" xMax="643" yMax="878">
      <contour>
        <pt x="521" y="580" on="1"/>
        <pt x="572" y="580" on="0"/>
        <pt x="643" y="509" on="0"/>
        <pt x="643" y="459" on="1"/>
        <pt x="643" y="0" on="1"/>
        <pt x="173" y="0" on="1"/>
        <pt x="123" y="0" on="0"/>
        <pt x="52" y="71" on="0"/>
        <pt x="52" y="121" on="1"/>
        <pt x="52" y="331" on="1"/>
        <pt x="560" y="331" on="1"/>
        <pt x="560" y="459" on="1"/>
        <pt x="560" y="475" on="0"/>
        <pt x="537" y="498" on="0"/>
        <pt x="521" y="498" on="1"/>
        <pt x="52" y="498" on="1"/>
        <pt x="52" y="580" on="1"/>
      </contour>
      <contour>
        <pt x="560" y="82" on="1"/>
        <pt x="560" y="249" on="1"/>
        <pt x="134" y="249" on="1"/>
        <pt x="134" y="121" on="1"/>
        <pt x="134" y="105" on="0"/>
        <pt x="157" y="82" on="0"/>
        <pt x="173" y="82" on="1"/>
      </contour>
      <contour>
        <pt x="334" y="878" on="1"/>
        <pt x="390" y="878" on="1"/>
        <pt x="412" y="878" on="0"/>
        <pt x="444" y="847" on="0"/>
        <pt x="444" y="825" on="1"/>
        <pt x="444" y="771" on="1"/>
        <pt x="444" y="749" on="0"/>
        <pt x="412" y="718" on="0"/>
        <pt x="390" y="718" on="1"/>
        <pt x="334" y="718" on="1"/>
        <pt x="312" y="718" on="0"/>
        <pt x="280" y="749" on="0"/>
        <pt x="280" y="771" on="1"/>
        <pt x="280" y="825" on="1"/>
        <pt x="280" y="847" on="0"/>
        <pt x="312" y="878" on="0"/>
      </contour>
      <contour>
        <pt x="329" y="758" on="1"/>
        <pt x="395" y="758" on="1"/>
        <pt x="404" y="758" on="0"/>
        <pt x="404" y="768" on="1"/>
        <pt x="404" y="828" on="1"/>
        <pt x="404" y="838" on="0"/>
        <pt x="395" y="838" on="1"/>
        <pt x="329" y="838" on="1"/>
        <pt x="320" y="838" on="0"/>
        <pt x="320" y="828" on="1"/>
        <pt x="320" y="768" on="1"/>
        <pt x="320" y="758" on="0"/>
      </contour>
    </TTGlyph>
    <TTGlyph name="asciitilde" xMin="24" yMin="245" xMax="363" yMax="354">
      <contour>
        <pt x="295" y="283" on="1"/>
        <pt x="297" y="283" on="1"/>
        <pt x="329" y="283" on="0"/>
        <pt x="363" y="299" on="1"/>
        <pt x="363" y="258" on="1"/>
        <pt x="328" y="245" on="0"/>
        <pt x="297" y="245" on="1"/>
        <pt x="262" y="245" on="0"/>
        <pt x="128" y="316" on="0"/>
        <pt x="86" y="316" on="1"/>
        <pt x="47" y="316" on="0"/>
        <pt x="24" y="308" on="1"/>
        <pt x="24" y="345" on="1"/>
        <pt x="51" y="354" on="0"/>
        <pt x="86" y="354" on="1"/>
        <pt x="126" y="354" on="0"/>
        <pt x="260" y="287" on="0"/>
      </contour>
    </TTGlyph>
    <TTGlyph name="asterisk" xMin="25" yMin="315" xMax="450" yMax="719">
      <contour>
        <pt x="423" y="614" on="1"/>
        <pt x="450" y="535" on="1"/>
        <pt x="304" y="488" on="1"/>
        <pt x="394" y="363" on="1"/>
        <pt x="382" y="354" on="0"/>
        <pt x="341" y="324" on="0"/>
        <pt x="328" y="315" on="1"/>
        <pt x="237" y="438" on="1"/>
        <pt x="147" y="315" on="1"/>
        <pt x="132" y="326" on="0"/>
        <pt x="90" y="355" on="0"/>
        <pt x="80" y="362" on="1"/>
        <pt x="170" y="488" on="1"/>
        <pt x="25" y="535" on="1"/>
        <pt x="49" y="614" on="1"/>
        <pt x="196" y="565" on="1"/>
        <pt x="196" y="719" on="1"/>
        <pt x="278" y="719" on="1"/>
        <pt x="278" y="566" on="1"/>
      </contour>
    </TTGlyph>
    <TTGlyph name="at" xMin="57" yMin="0" xMax="784" yMax="720">
      <contour>
        <pt x="373" y="519" on="1"/>
        <pt x="468" y="519" on="1"/>
        <pt x="518" y="519" on="0"/>
        <pt x="589" y="448" on="0"/>
        <pt x="589" y="398" on="1"/>
        <pt x="589" y="254" on="1"/>
        <pt x="702" y="254" on="1"/>
        <pt x="702" y="598" on="1"/>
        <pt x="702" y="614" on="0"/>
        <pt x="679" y="637" on="0"/>
        <pt x="663" y="637" on="1"/>
        <pt x="178" y="637" on="1"/>
        <pt x="162" y="637" on="0"/>
        <pt x="139" y="614" on="0"/>
        <pt x="139" y="598" on="1"/>
        <pt x="139" y="121" on="1"/>
        <pt x="139" y="105" on="0"/>
        <pt x="162" y="82" on="0"/>
        <pt x="178" y="82" on="1"/>
        <pt x="784" y="82" on="1"/>
        <pt x="784" y="0" on="1"/>
        <pt x="178" y="0" on="1"/>
        <pt x="127" y="0" on="0"/>
        <pt x="57" y="71" on="0"/>
        <pt x="57" y="121" on="1"/>
        <pt x="57" y="598" on="1"/>
        <pt x="57" y="649" on="0"/>
        <pt x="127" y="720" on="0"/>
        <pt x="178" y="720" on="1"/>
        <pt x="663" y="720" on="1"/>
        <pt x="713" y="720" on="0"/>
        <pt x="784" y="649" on="0"/>
        <pt x="784" y="598" on="1"/>
        <pt x="784" y="192" on="1"/>
        <pt x="373" y="192" on="1"/>
        <pt x="322" y="192" on="0"/>
        <pt x="252" y="263" on="0"/>
        <pt x="252" y="314" on="1"/>
        <pt x="252" y="398" on="1"/>
        <pt x="252" y="448" on="0"/>
        <pt x="322" y="519" on="0"/>
      </contour>
      <contour>
        <pt x="352" y="254" on="1"/>
        <pt x="528" y="254" on="1"/>
        <pt x="528" y="419" on="1"/>
        <pt x="528" y="435" on="0"/>
        <pt x="505" y="458" on="0"/>
        <pt x="489" y="458" on="1"/>
        <pt x="352" y="458" on="1"/>
        <pt x="336" y="458" on="0"/>
        <pt x="313" y="435" on="0"/>
        <pt x="313" y="419" on="1"/>
        <pt x="313" y="293" on="1"/>
        <pt x="313" y="277" on="0"/>
        <pt x="336" y="254" on="0"/>
      </contour>
    </TTGlyph>
    <TTGlyph name="atilde" xMin="52" yMin="0" xMax="643" yMax="886">
      <contour>
        <pt x="521" y="580" on="1"/>
        <pt x="572" y="580" on="0"/>
        <pt x="643" y="509" on="0"/>
        <pt x="643" y="459" on="1"/>
        <pt x="643" y="0" on="1"/>
        <pt x="173" y="0" on="1"/>
        <pt x="123" y="0" on="0"/>
        <pt x="52" y="71" on="0"/>
        <pt x="52" y="121" on="1"/>
        <pt x="52" y="331" on="1"/>
        <pt x="560" y="331" on="1"/>
        <pt x="560" y="459" on="1"/>
        <pt x="560" y="475" on="0"/>
        <pt x="537" y="498" on="0"/>
        <pt x="521" y="498" on="1"/>
        <pt x="52" y="498" on="1"/>
        <pt x="52" y="580" on="1"/>
      </contour>
      <contour>
        <pt x="560" y="82" on="1"/>
        <pt x="560" y="249" on="1"/>
        <pt x="134" y="249" on="1"/>
        <pt x="134" y="121" on="1"/>
        <pt x="134" y="105" on="0"/>
        <pt x="157" y="82" on="0"/>
        <pt x="173" y="82" on="1"/>
      </contour>
      <contour>
        <pt x="457" y="814" on="1"/>
        <pt x="459" y="814" on="1"/>
        <pt x="489" y="814" on="0"/>
        <pt x="525" y="831" on="1"/>
        <pt x="525" y="780" on="1"/>
        <pt x="487" y="766" on="0"/>
        <pt x="459" y="766" on="1"/>
        <pt x="424" y="766" on="0"/>
        <pt x="290" y="838" on="0"/>
        <pt x="248" y="838" on="1"/>
        <pt x="209" y="838" on="0"/>
        <pt x="186" y="830" on="1"/>
        <pt x="186" y="877" on="1"/>
        <pt x="213" y="886" on="0"/>
        <pt x="248" y="886" on="1"/>
        <pt x="288" y="886" on="0"/>
        <pt x="422" y="819" on="0"/>
      </contour>
    </TTGlyph>
    <TTGlyph name="b" xMin="54" yMin="0" xMax="645" yMax="770">
      <contour>
        <pt x="524" y="580" on="1"/>
        <pt x="574" y="580" on="0"/>
        <pt x="645" y="509" on="0"/>
        <pt x="645" y="459" on="1"/>
        <pt x="645" y="121" on="1"/>
        <pt x="645" y="71" on="0"/>
        <pt x="574" y="0" on="0"/>
        <pt x="524" y="0" on="1"/>
        <pt x="54" y="0" on="1"/>
        <pt x="54" y="770" on="1"/>
        <pt x="136" y="770" on="1"/>
        <pt x="136" y="580" on="1"/>
      </contour>
      <contour>
        <pt x="563" y="121" on="1"/>
        <pt x="563" y="459" on="1"/>
        <pt x="563" y="475" on="0"/>
        <pt x="540" y="498" on="0"/>
        <pt x="524" y="498" on="1"/>
        <pt x="176" y="498" on="1"/>
        <pt x="160" y="498" on="0"/>
        <pt x="136" y="475" on="0"/>
        <pt x="136" y="459" on="1"/>
        <pt x="136" y="121" on="1"/>
        <pt x="136" y="105" on="0"/>
        <pt x="160" y="82" on="0"/>
        <pt x="176" y="82" on="1"/>
        <pt x="524" y="82" on="1"/>
        <pt x="540" y="82" on="0"/>
        <pt x="563" y="105" on="0"/>
      </contour>
    </TTGlyph>
    <TTGlyph name="b.sc" xMin="54" yMin="0" xMax="655" yMax="581">
      <contour>
        <pt x="611" y="314" on="1"/>
        <pt x="615" y="296" on="1"/>
        <pt x="655" y="259" on="0"/>
        <pt x="655" y="207" on="1"/>
        <pt x="655" y="121" on="1"/>
        <pt x="655" y="71" on="0"/>
        <pt x="584" y="0" on="0"/>
        <pt x="534" y="0" on="1"/>
        <pt x="54" y="0" on="1"/>
        <pt x="54" y="581" on="1"/>
        <pt x="502" y="581" on="1"/>
        <pt x="553" y="581" on="0"/>
        <pt x="624" y="510" on="0"/>
        <pt x="624" y="460" on="1"/>
        <pt x="624" y="367" on="1"/>
        <pt x="624" y="344" on="0"/>
      </contour>
      <contour>
        <pt x="502" y="499" on="1"/>
        <pt x="175" y="499" on="1"/>
        <pt x="159" y="499" on="0"/>
        <pt x="136" y="476" on="0"/>
        <pt x="136" y="460" on="1"/>
        <pt x="136" y="367" on="1"/>
        <pt x="136" y="351" on="0"/>
        <pt x="159" y="328" on="0"/>
        <pt x="175" y="328" on="1"/>
        <pt x="502" y="328" on="1"/>
        <pt x="518" y="328" on="0"/>
        <pt x="541" y="351" on="0"/>
        <pt x="541" y="367" on="1"/>
        <pt x="541" y="460" on="1"/>
        <pt x="541" y="476" on="0"/>
        <pt x="518" y="499" on="0"/>
      </contour>
      <contour>
        <pt x="573" y="121" on="1"/>
        <pt x="573" y="207" on="1"/>
        <pt x="573" y="223" on="0"/>
        <pt x="550" y="246" on="0"/>
        <pt x="534" y="246" on="1"/>
        <pt x="175" y="246" on="1"/>
        <pt x="159" y="246" on="0"/>
        <pt x="136" y="223" on="0"/>
        <pt x="136" y="207" on="1"/>
        <pt x="136" y="121" on="1"/>
        <pt x="136" y="105" on="0"/>
        <pt x="159" y="82" on="0"/>
        <pt x="175" y="82" on="1"/>
        <pt x="534" y="82" on="1"/>
        <pt x="550" y="82" on="0"/>
        <pt x="573" y="105" on="0"/>
      </contour>
    </TTGlyph>
    <TTGlyph name="backslash" xMin="5" yMin="1" xMax="511" yMax="725">
      <contour>
        <pt x="511" y="107" on="1"/>
        <pt x="511" y="1" on="1"/>
        <pt x="5" y="621" on="1"/>
        <pt x="5" y="725" on="1"/>
      </contour>
    </TTGlyph>
    <TTGlyph name="bar" xMin="54" yMin="-115" xMax="136" yMax="842">
      <contour>
        <pt x="54" y="-115" on="1"/>
        <pt x="54" y="842" on="1"/>
        <pt x="136" y="842" on="1"/>
        <pt x="136" y="-115" on="1"/>
      </contour>
    </TTGlyph>
    <TTGlyph name="braceleft" xMin="23" yMin="0" xMax="220" yMax="720">
      <contour>
        <pt x="152" y="291" on="1"/>
        <pt x="152" y="121" on="1"/>
        <pt x="152" y="105" on="0"/>
        <pt x="175" y="82" on="0"/>
        <pt x="191" y="82" on="1"/>
        <pt x="220" y="82" on="1"/>
        <pt x="220" y="0" on="1"/>
        <pt x="191" y="0" on="1"/>
        <pt x="141" y="0" on="0"/>
        <pt x="70" y="71" on="0"/>
        <pt x="70" y="121" on="1"/>
        <pt x="70" y="284" on="1"/>
        <pt x="64" y="288" on="0"/>
        <pt x="30" y="309" on="0"/>
        <pt x="23" y="313" on="1"/>
        <pt x="23" y="409" on="1"/>
        <pt x="70" y="434" on="1"/>
        <pt x="70" y="598" on="1"/>
        <pt x="70" y="649" on="0"/>
        <pt x="141" y="720" on="0"/>
        <pt x="191" y="720" on="1"/>
        <pt x="220" y="720" on="1"/>
        <pt x="220" y="637" on="1"/>
        <pt x="191" y="637" on="1"/>
        <pt x="175" y="637" on="0"/>
        <pt x="152" y="614" on="0"/>
        <pt x="152" y="598" on="1"/>
        <pt x="152" y="427" on="1"/>
        <pt x="68" y="360" on="1"/>
      </contour>
    </TTGlyph>
    <TTGlyph name="braceright" xMin="51" yMin="0" xMax="247" yMax="720">
      <contour>
        <pt x="119" y="121" on="1"/>
        <pt x="119" y="290" on="1"/>
        <pt x="203" y="359" on="1"/>
        <pt x="119" y="425" on="1"/>
        <pt x="119" y="598" on="1"/>
        <pt x="119" y="614" on="0"/>
        <pt x="96" y="637" on="0"/>
        <pt x="80" y="637" on="1"/>
        <pt x="51" y="637" on="1"/>
        <pt x="51" y="720" on="1"/>
        <pt x="80" y="720" on="1"/>
        <pt x="130" y="720" on="0"/>
        <pt x="201" y="649" on="0"/>
        <pt x="201" y="598" on="1"/>
        <pt x="201" y="434" on="1"/>
        <pt x="209" y="430" on="0"/>
        <pt x="243" y="409" on="0"/>
        <pt x="247" y="407" on="1"/>
        <pt x="247" y="312" on="1"/>
        <pt x="201" y="283" on="1"/>
        <pt x="201" y="121" on="1"/>
        <pt x="201" y="71" on="0"/>
        <pt x="130" y="0" on="0"/>
        <pt x="80" y="0" on="1"/>
        <pt x="51" y="0" on="1"/>
        <pt x="51" y="82" on="1"/>
        <pt x="80" y="82" on="1"/>
        <pt x="96" y="82" on="0"/>
        <pt x="119" y="105" on="0"/>
      </contour>
    </TTGlyph>
    <TTGlyph name="bracketleft" xMin="54" yMin="0" xMax="204" yMax="721">
      <contour>
        <pt x="54" y="0" on="1"/>
        <pt x="54" y="721" on="1"/>
        <pt x="204" y="721" on="1"/>
        <pt x="204" y="638" on="1"/>
        <pt x="136" y="638" on="1"/>
        <pt x="136" y="82" on="1"/>
        <pt x="204" y="82" on="1"/>
        <pt x="204" y="0" on="1"/>
      </contour>
    </TTGlyph>
    <TTGlyph name="bracketright" xMin="51" yMin="0" xMax="201" yMax="721">
      <contour>
        <pt x="51" y="638" on="1"/>
        <pt x="51" y="721" on="1"/>
        <pt x="201" y="721" on="1"/>
        <pt x="201" y="0" on="1"/>
        <pt x="51" y="0" on="1"/>
        <pt x="51" y="82" on="1"/>
        <pt x="118" y="82" on="1"/>
        <pt x="118" y="638" on="1"/>
      </contour>
    </TTGlyph>
    <TTGlyph name="breve" xMin="40" yMin="872" xMax="225" yMax="939">
      <contour>
        <pt x="194" y="939" on="1"/>
        <pt x="225" y="939" on="1"/>
        <pt x="224" y="912" on="0"/>
        <pt x="191" y="872" on="0"/>
        <pt x="160" y="872" on="1"/>
        <pt x="105" y="872" on="1"/>
        <pt x="75" y="872" on="0"/>
        <pt x="41" y="912" on="0"/>
        <pt x="40" y="939" on="1"/>
        <pt x="72" y="939" on="1"/>
        <pt x="72" y="905" on="0"/>
        <pt x="93" y="905" on="1"/>
        <pt x="173" y="905" on="1"/>
        <pt x="194" y="905" on="0"/>
        <pt x="194" y="933" on="1"/>
      </contour>
    </TTGlyph>
    <TTGlyph name="bullet" xMin="144" yMin="325" xMax="226" yMax="403">
      <contour>
        <pt x="172" y="403" on="1"/>
        <pt x="197" y="403" on="1"/>
        <pt x="226" y="403" on="0"/>
        <pt x="226" y="374" on="1"/>
        <pt x="226" y="353" on="1"/>
        <pt x="226" y="325" on="0"/>
        <pt x="197" y="325" on="1"/>
        <pt x="172" y="325" on="1"/>
        <pt x="144" y="325" on="0"/>
        <pt x="144" y="353" on="1"/>
        <pt x="144" y="374" on="1"/>
        <pt x="144" y="403" on="0"/>
      </contour>
    </TTGlyph>
    <TTGlyph name="c" xMin="51" yMin="0" xMax="642" yMax="580">
      <contour>
        <pt x="172" y="82" on="1"/>
        <pt x="642" y="82" on="1"/>
        <pt x="642" y="0" on="1"/>
        <pt x="172" y="0" on="1"/>
        <pt x="122" y="0" on="0"/>
        <pt x="51" y="71" on="0"/>
        <pt x="51" y="121" on="1"/>
        <pt x="51" y="459" on="1"/>
        <pt x="51" y="509" on="0"/>
        <pt x="122" y="580" on="0"/>
        <pt x="172" y="580" on="1"/>
        <pt x="640" y="580" on="1"/>
        <pt x="640" y="498" on="1"/>
        <pt x="172" y="498" on="1"/>
        <pt x="156" y="498" on="0"/>
        <pt x="133" y="475" on="0"/>
        <pt x="133" y="459" on="1"/>
        <pt x="133" y="121" on="1"/>
        <pt x="133" y="105" on="0"/>
        <pt x="156" y="82" on="0"/>
      </contour>
    </TTGlyph>
    <TTGlyph name="c.sc" xMin="51" yMin="0" xMax="640" yMax="581">
      <contour>
        <pt x="640" y="499" on="1"/>
        <pt x="172" y="499" on="1"/>
        <pt x="156" y="499" on="0"/>
        <pt x="133" y="476" on="0"/>
        <pt x="133" y="460" on="1"/>
        <pt x="133" y="121" on="1"/>
        <pt x="133" y="105" on="0"/>
        <pt x="156" y="82" on="0"/>
        <pt x="172" y="82" on="1"/>
        <pt x="640" y="82" on="1"/>
        <pt x="640" y="0" on="1"/>
        <pt x="172" y="0" on="1"/>
        <pt x="122" y="0" on="0"/>
        <pt x="51" y="71" on="0"/>
        <pt x="51" y="121" on="1"/>
        <pt x="51" y="460" on="1"/>
        <pt x="51" y="510" on="0"/>
        <pt x="122" y="581" on="0"/>
        <pt x="172" y="581" on="1"/>
        <pt x="640" y="581" on="1"/>
      </contour>
    </TTGlyph>
    <TTGlyph name="caron" xMin="27" yMin="871" xMax="228" yMax="988">
      <contour>
        <pt x="27" y="988" on="1"/>
        <pt x="69" y="988" on="1"/>
        <pt x="129" y="903" on="1"/>
        <pt x="187" y="988" on="1"/>
        <pt x="228" y="988" on="1"/>
        <pt x="158" y="871" on="1"/>
        <pt x="99" y="871" on="1"/>
      </contour>
    </TTGlyph>
    <TTGlyph name="ccedilla" xMin="51" yMin="-139" xMax="642" yMax="580">
      <contour>
        <pt x="172" y="82" on="1"/>
        <pt x="642" y="82" on="1"/>
        <pt x="642" y="0" on="1"/>
        <pt x="386" y="0" on="1"/>
        <pt x="352" y="-139" on="1"/>
        <pt x="272" y="-139" on="1"/>
        <pt x="307" y="0" on="1"/>
        <pt x="172" y="0" on="1"/>
        <pt x="122" y="0" on="0"/>
        <pt x="51" y="71" on="0"/>
        <pt x="51" y="121" on="1"/>
        <pt x="51" y="459" on="1"/>
        <pt x="51" y="509" on="0"/>
        <pt x="122" y="580" on="0"/>
        <pt x="172" y="580" on="1"/>
        <pt x="640" y="580" on="1"/>
        <pt x="640" y="498" on="1"/>
        <pt x="172" y="498" on="1"/>
        <pt x="156" y="498" on="0"/>
        <pt x="133" y="475" on="0"/>
        <pt x="133" y="459" on="1"/>
        <pt x="133" y="121" on="1"/>
        <pt x="133" y="105" on="0"/>
        <pt x="156" y="82" on="0"/>
      </contour>
    </TTGlyph>
    <TTGlyph name="cedilla" xMin="33" yMin="-171" xMax="147" yMax="-32">
      <contour>
        <pt x="33" y="-171" on="1"/>
        <pt x="68" y="-32" on="1"/>
        <pt x="147" y="-32" on="1"/>
        <pt x="113" y="-171" on="1"/>
      </contour>
    </TTGlyph>
    <TTGlyph name="cent" xMin="33" yMin="-115" xMax="621" yMax="726">
      <contour>
        <pt x="621" y="508" on="1"/>
        <pt x="369" y="508" on="1"/>
        <pt x="369" y="82" on="1"/>
        <pt x="621" y="82" on="1"/>
        <pt x="621" y="0" on="1"/>
        <pt x="369" y="0" on="1"/>
        <pt x="369" y="-115" on="1"/>
        <pt x="287" y="-115" on="1"/>
        <pt x="287" y="0" on="1"/>
        <pt x="154" y="0" on="1"/>
        <pt x="103" y="0" on="0"/>
        <pt x="33" y="71" on="0"/>
        <pt x="33" y="121" on="1"/>
        <pt x="33" y="469" on="1"/>
        <pt x="33" y="520" on="0"/>
        <pt x="103" y="591" on="0"/>
        <pt x="154" y="591" on="1"/>
        <pt x="287" y="591" on="1"/>
        <pt x="287" y="726" on="1"/>
        <pt x="369" y="726" on="1"/>
        <pt x="369" y="591" on="1"/>
        <pt x="621" y="591" on="1"/>
      </contour>
      <contour>
        <pt x="287" y="82" on="1"/>
        <pt x="287" y="508" on="1"/>
        <pt x="154" y="508" on="1"/>
        <pt x="138" y="508" on="0"/>
        <pt x="115" y="485" on="0"/>
        <pt x="115" y="469" on="1"/>
        <pt x="115" y="121" on="1"/>
        <pt x="115" y="105" on="0"/>
        <pt x="138" y="82" on="0"/>
        <pt x="154" y="82" on="1"/>
      </contour>
    </TTGlyph>
    <TTGlyph name="circumflex" xMin="28" yMin="871" xMax="229" yMax="988">
      <contour>
        <pt x="69" y="871" on="1"/>
        <pt x="28" y="871" on="1"/>
        <pt x="99" y="988" on="1"/>
        <pt x="158" y="988" on="1"/>
        <pt x="229" y="871" on="1"/>
        <pt x="187" y="871" on="1"/>
        <pt x="129" y="956" on="1"/>
      </contour>
    </TTGlyph>
    <TTGlyph name="colon" xMin="54" yMin="0" xMax="136" yMax="588">
      <contour>
        <pt x="54" y="82" on="1"/>
        <pt x="136" y="82" on="1"/>
        <pt x="136" y="0" on="1"/>
        <pt x="54" y="0" on="1"/>
      </contour>
      <contour>
        <pt x="136" y="588" on="1"/>
        <pt x="136" y="506" on="1"/>
        <pt x="54" y="506" on="1"/>
        <pt x="54" y="588" on="1"/>
      </contour>
    </TTGlyph>
    <TTGlyph name="comma" xMin="54" yMin="-131" xMax="136" yMax="82">
      <contour>
        <pt x="54" y="82" on="1"/>
        <pt x="136" y="82" on="1"/>
        <pt x="136" y="-16" on="1"/>
        <pt x="136" y="-56" on="0"/>
        <pt x="90" y="-119" on="0"/>
        <pt x="54" y="-131" on="1"/>
      </contour>
    </TTGlyph>
    <TTGlyph name="d" xMin="23" yMin="0" xMax="614" yMax="770">
      <contour>
        <pt x="532" y="770" on="1"/>
        <pt x="614" y="770" on="1"/>
        <pt x="614" y="0" on="1"/>
        <pt x="145" y="0" on="1"/>
        <pt x="94" y="0" on="0"/>
        <pt x="23" y="71" on="0"/>
        <pt x="23" y="121" on="1"/>
        <pt x="23" y="459" on="1"/>
        <pt x="23" y="509" on="0"/>
        <pt x="94" y="580" on="0"/>
        <pt x="145" y="580" on="1"/>
        <pt x="532" y="580" on="1"/>
      </contour>
      <contour>
        <pt x="145" y="82" on="1"/>
        <pt x="493" y="82" on="1"/>
        <pt x="509" y="82" on="0"/>
        <pt x="532" y="105" on="0"/>
        <pt x="532" y="121" on="1"/>
        <pt x="532" y="459" on="1"/>
        <pt x="532" y="475" on="0"/>
        <pt x="509" y="498" on="0"/>
        <pt x="493" y="498" on="1"/>
        <pt x="145" y="498" on="1"/>
        <pt x="129" y="498" on="0"/>
        <pt x="106" y="475" on="0"/>
        <pt x="106" y="459" on="1"/>
        <pt x="106" y="121" on="1"/>
        <pt x="106" y="105" on="0"/>
        <pt x="129" y="82" on="0"/>
      </contour>
    </TTGlyph>
    <TTGlyph name="d.sc" xMin="54" yMin="0" xMax="655" yMax="581">
      <contour>
        <pt x="54" y="581" on="1"/>
        <pt x="534" y="581" on="1"/>
        <pt x="584" y="581" on="0"/>
        <pt x="655" y="510" on="0"/>
        <pt x="655" y="460" on="1"/>
        <pt x="655" y="121" on="1"/>
        <pt x="655" y="71" on="0"/>
        <pt x="584" y="0" on="0"/>
        <pt x="534" y="0" on="1"/>
        <pt x="54" y="0" on="1"/>
      </contour>
      <contour>
        <pt x="573" y="121" on="1"/>
        <pt x="573" y="460" on="1"/>
        <pt x="573" y="476" on="0"/>
        <pt x="550" y="499" on="0"/>
        <pt x="534" y="499" on="1"/>
        <pt x="175" y="499" on="1"/>
        <pt x="159" y="499" on="0"/>
        <pt x="136" y="476" on="0"/>
        <pt x="136" y="460" on="1"/>
        <pt x="136" y="121" on="1"/>
        <pt x="136" y="105" on="0"/>
        <pt x="159" y="82" on="0"/>
        <pt x="175" y="82" on="1"/>
        <pt x="534" y="82" on="1"/>
        <pt x="550" y="82" on="0"/>
        <pt x="573" y="105" on="0"/>
      </contour>
    </TTGlyph>
    <TTGlyph name="degree" xMin="45" yMin="401" xMax="383" yMax="728">
      <contour>
        <pt x="167" y="728" on="1"/>
        <pt x="261" y="728" on="1"/>
        <pt x="312" y="728" on="0"/>
        <pt x="383" y="657" on="0"/>
        <pt x="383" y="606" on="1"/>
        <pt x="383" y="522" on="1"/>
        <pt x="383" y="472" on="0"/>
        <pt x="312" y="401" on="0"/>
        <pt x="261" y="401" on="1"/>
        <pt x="167" y="401" on="1"/>
        <pt x="116" y="401" on="0"/>
        <pt x="45" y="472" on="0"/>
        <pt x="45" y="522" on="1"/>
        <pt x="45" y="606" on="1"/>
        <pt x="45" y="657" on="0"/>
        <pt x="116" y="728" on="0"/>
      </contour>
      <contour>
        <pt x="145" y="462" on="1"/>
        <pt x="283" y="462" on="1"/>
        <pt x="299" y="462" on="0"/>
        <pt x="322" y="485" on="0"/>
        <pt x="322" y="501" on="1"/>
        <pt x="322" y="627" on="1"/>
        <pt x="322" y="643" on="0"/>
        <pt x="299" y="666" on="0"/>
        <pt x="283" y="666" on="1"/>
        <pt x="145" y="666" on="1"/>
        <pt x="129" y="666" on="0"/>
        <pt x="106" y="643" on="0"/>
        <pt x="106" y="627" on="1"/>
        <pt x="106" y="501" on="1"/>
        <pt x="106" y="485" on="0"/>
        <pt x="129" y="462" on="0"/>
      </contour>
    </TTGlyph>
    <TTGlyph name="dieresis" xMin="54" yMin="872" xMax="316" yMax="954">
      <contour>
        <pt x="316" y="954" on="1"/>
        <pt x="316" y="872" on="1"/>
        <pt x="234" y="872" on="1"/>
        <pt x="234" y="954" on="1"/>
      </contour>
      <contour>
        <pt x="137" y="954" on="1"/>
        <pt x="137" y="872" on="1"/>
        <pt x="54" y="872" on="1"/>
        <pt x="54" y="954" on="1"/>
      </contour>
    </TTGlyph>
    <TTGlyph name="divide" xMin="18" yMin="1" xMax="492" yMax="579">
      <contour>
        <pt x="492" y="337" on="1"/>
        <pt x="492" y="255" on="1"/>
        <pt x="18" y="255" on="1"/>
        <pt x="18" y="337" on="1"/>
      </contour>
      <contour>
        <pt x="215" y="83" on="1"/>
        <pt x="297" y="83" on="1"/>
        <pt x="297" y="1" on="1"/>
        <pt x="215" y="1" on="1"/>
      </contour>
      <contour>
        <pt x="297" y="579" on="1"/>
        <pt x="297" y="497" on="1"/>
        <pt x="215" y="497" on="1"/>
        <pt x="215" y="579" on="1"/>
      </contour>
    </TTGlyph>
    <TTGlyph name="dollar" xMin="34" yMin="-114" xMax="762" yMax="835">
      <contour>
        <pt x="762" y="599" on="1"/>
        <pt x="762" y="571" on="1"/>
        <pt x="679" y="571" on="1"/>
        <pt x="679" y="599" on="1"/>
        <pt x="679" y="615" on="0"/>
        <pt x="656" y="638" on="0"/>
        <pt x="640" y="638" on="1"/>
        <pt x="439" y="638" on="1"/>
        <pt x="439" y="402" on="1"/>
        <pt x="640" y="402" on="1"/>
        <pt x="691" y="402" on="0"/>
        <pt x="762" y="331" on="0"/>
        <pt x="762" y="281" on="1"/>
        <pt x="762" y="121" on="1"/>
        <pt x="762" y="71" on="0"/>
        <pt x="691" y="0" on="0"/>
        <pt x="640" y="0" on="1"/>
        <pt x="439" y="0" on="1"/>
        <pt x="439" y="-114" on="1"/>
        <pt x="357" y="-114" on="1"/>
        <pt x="357" y="0" on="1"/>
        <pt x="155" y="0" on="1"/>
        <pt x="105" y="0" on="0"/>
        <pt x="34" y="71" on="0"/>
        <pt x="34" y="121" on="1"/>
        <pt x="34" y="150" on="1"/>
        <pt x="116" y="150" on="1"/>
        <pt x="116" y="121" on="1"/>
        <pt x="116" y="105" on="0"/>
        <pt x="139" y="82" on="0"/>
        <pt x="155" y="82" on="1"/>
        <pt x="357" y="82" on="1"/>
        <pt x="357" y="320" on="1"/>
        <pt x="155" y="320" on="1"/>
        <pt x="105" y="320" on="0"/>
        <pt x="34" y="390" on="0"/>
        <pt x="34" y="441" on="1"/>
        <pt x="34" y="599" on="1"/>
        <pt x="34" y="650" on="0"/>
        <pt x="105" y="721" on="0"/>
        <pt x="155" y="721" on="1"/>
        <pt x="357" y="721" on="1"/>
        <pt x="357" y="835" on="1"/>
        <pt x="439" y="835" on="1"/>
        <pt x="439" y="721" on="1"/>
        <pt x="640" y="721" on="1"/>
        <pt x="691" y="721" on="0"/>
        <pt x="762" y="650" on="0"/>
      </contour>
      <contour>
        <pt x="640" y="320" on="1"/>
        <pt x="439" y="320" on="1"/>
        <pt x="439" y="82" on="1"/>
        <pt x="640" y="82" on="1"/>
        <pt x="656" y="82" on="0"/>
        <pt x="679" y="105" on="0"/>
        <pt x="679" y="121" on="1"/>
        <pt x="679" y="281" on="1"/>
        <pt x="679" y="297" on="0"/>
        <pt x="656" y="320" on="0"/>
      </contour>
      <contour>
        <pt x="357" y="402" on="1"/>
        <pt x="357" y="638" on="1"/>
        <pt x="155" y="638" on="1"/>
        <pt x="139" y="638" on="0"/>
        <pt x="116" y="615" on="0"/>
        <pt x="116" y="599" on="1"/>
        <pt x="116" y="441" on="1"/>
        <pt x="116" y="425" on="0"/>
        <pt x="139" y="402" on="0"/>
        <pt x="155" y="402" on="1"/>
      </contour>
    </TTGlyph>
    <TTGlyph name="dotaccent" xMin="45" yMin="873" xMax="165" yMax="989">
      <contour>
        <pt x="86" y="989" on="1"/>
        <pt x="124" y="989" on="1"/>
        <pt x="141" y="989" on="0"/>
        <pt x="165" y="966" on="0"/>
        <pt x="165" y="949" on="1"/>
        <pt x="165" y="913" on="1"/>
        <pt x="165" y="896" on="0"/>
        <pt x="141" y="873" on="0"/>
        <pt x="124" y="873" on="1"/>
        <pt x="86" y="873" on="1"/>
        <pt x="69" y="873" on="0"/>
        <pt x="45" y="896" on="0"/>
        <pt x="45" y="913" on="1"/>
        <pt x="45" y="949" on="1"/>
        <pt x="45" y="966" on="0"/>
        <pt x="69" y="989" on="0"/>
      </contour>
    </TTGlyph>
    <TTGlyph name="dotlessi" xMin="52" yMin="0" xMax="134" yMax="580">
      <contour>
        <pt x="52" y="0" on="1"/>
        <pt x="52" y="580" on="1"/>
        <pt x="134" y="580" on="1"/>
        <pt x="134" y="0" on="1"/>
      </contour>
    </TTGlyph>
    <TTGlyph name="e" xMin="51" yMin="0" xMax="642" yMax="580">
      <contour>
        <pt x="520" y="580" on="1"/>
        <pt x="571" y="580" on="0"/>
        <pt x="642" y="509" on="0"/>
        <pt x="642" y="459" on="1"/>
        <pt x="642" y="249" on="1"/>
        <pt x="133" y="249" on="1"/>
        <pt x="133" y="121" on="1"/>
        <pt x="133" y="105" on="0"/>
        <pt x="156" y="82" on="0"/>
        <pt x="172" y="82" on="1"/>
        <pt x="642" y="82" on="1"/>
        <pt x="642" y="0" on="1"/>
        <pt x="172" y="0" on="1"/>
        <pt x="122" y="0" on="0"/>
        <pt x="51" y="71" on="0"/>
        <pt x="51" y="121" on="1"/>
        <pt x="51" y="459" on="1"/>
        <pt x="51" y="509" on="0"/>
        <pt x="122" y="580" on="0"/>
        <pt x="172" y="580" on="1"/>
      </contour>
      <contour>
        <pt x="133" y="331" on="1"/>
        <pt x="559" y="331" on="1"/>
        <pt x="559" y="459" on="1"/>
        <pt x="559" y="475" on="0"/>
        <pt x="536" y="498" on="0"/>
        <pt x="520" y="498" on="1"/>
        <pt x="172" y="498" on="1"/>
        <pt x="156" y="498" on="0"/>
        <pt x="133" y="475" on="0"/>
        <pt x="133" y="459" on="1"/>
      </contour>
    </TTGlyph>
    <TTGlyph name="e.sc" xMin="54" yMin="0" xMax="581" yMax="581">
      <contour>
        <pt x="581" y="581" on="1"/>
        <pt x="581" y="499" on="1"/>
        <pt x="136" y="499" on="1"/>
        <pt x="136" y="331" on="1"/>
        <pt x="467" y="331" on="1"/>
        <pt x="467" y="249" on="1"/>
        <pt x="136" y="249" on="1"/>
        <pt x="136" y="82" on="1"/>
        <pt x="581" y="82" on="1"/>
        <pt x="581" y="0" on="1"/>
        <pt x="54" y="0" on="1"/>
        <pt x="54" y="581" on="1"/>
      </contour>
    </TTGlyph>
    <TTGlyph name="eacute" xMin="51" yMin="0" xMax="642" yMax="903">
      <contour>
        <pt x="520" y="580" on="1"/>
        <pt x="571" y="580" on="0"/>
        <pt x="642" y="509" on="0"/>
        <pt x="642" y="459" on="1"/>
        <pt x="642" y="249" on="1"/>
        <pt x="133" y="249" on="1"/>
        <pt x="133" y="121" on="1"/>
        <pt x="133" y="105" on="0"/>
        <pt x="156" y="82" on="0"/>
        <pt x="172" y="82" on="1"/>
        <pt x="642" y="82" on="1"/>
        <pt x="642" y="0" on="1"/>
        <pt x="172" y="0" on="1"/>
        <pt x="122" y="0" on="0"/>
        <pt x="51" y="71" on="0"/>
        <pt x="51" y="121" on="1"/>
        <pt x="51" y="459" on="1"/>
        <pt x="51" y="509" on="0"/>
        <pt x="122" y="580" on="0"/>
        <pt x="172" y="580" on="1"/>
      </contour>
      <contour>
        <pt x="133" y="331" on="1"/>
        <pt x="559" y="331" on="1"/>
        <pt x="559" y="459" on="1"/>
        <pt x="559" y="475" on="0"/>
        <pt x="536" y="498" on="0"/>
        <pt x="520" y="498" on="1"/>
        <pt x="172" y="498" on="1"/>
        <pt x="156" y="498" on="0"/>
        <pt x="133" y="475" on="0"/>
        <pt x="133" y="459" on="1"/>
      </contour>
      <contour>
        <pt x="245" y="764" on="1"/>
        <pt x="280" y="903" on="1"/>
        <pt x="359" y="903" on="1"/>
        <pt x="325" y="764" on="1"/>
      </contour>
    </TTGlyph>
    <TTGlyph name="ecircumflex" xMin="51" yMin="0" xMax="642" yMax="880">
      <contour>
        <pt x="520" y="580" on="1"/>
        <pt x="571" y="580" on="0"/>
        <pt x="642" y="509" on="0"/>
        <pt x="642" y="459" on="1"/>
        <pt x="642" y="249" on="1"/>
        <pt x="133" y="249" on="1"/>
        <pt x="133" y="121" on="1"/>
        <pt x="133" y="105" on="0"/>
        <pt x="156" y="82" on="0"/>
        <pt x="172" y="82" on="1"/>
        <pt x="642" y="82" on="1"/>
        <pt x="642" y="0" on="1"/>
        <pt x="172" y="0" on="1"/>
        <pt x="122" y="0" on="0"/>
        <pt x="51" y="71" on="0"/>
        <pt x="51" y="121" on="1"/>
        <pt x="51" y="459" on="1"/>
        <pt x="51" y="509" on="0"/>
        <pt x="122" y="580" on="0"/>
        <pt x="172" y="580" on="1"/>
      </contour>
      <contour>
        <pt x="133" y="331" on="1"/>
        <pt x="559" y="331" on="1"/>
        <pt x="559" y="459" on="1"/>
        <pt x="559" y="475" on="0"/>
        <pt x="536" y="498" on="0"/>
        <pt x="520" y="498" on="1"/>
        <pt x="172" y="498" on="1"/>
        <pt x="156" y="498" on="0"/>
        <pt x="133" y="475" on="0"/>
        <pt x="133" y="459" on="1"/>
      </contour>
      <contour>
        <pt x="238" y="763" on="1"/>
        <pt x="197" y="763" on="1"/>
        <pt x="268" y="880" on="1"/>
        <pt x="327" y="880" on="1"/>
        <pt x="398" y="763" on="1"/>
        <pt x="356" y="763" on="1"/>
        <pt x="298" y="848" on="1"/>
      </contour>
    </TTGlyph>
    <TTGlyph name="edieresis" xMin="51" yMin="0" xMax="642" yMax="845">
      <contour>
        <pt x="520" y="580" on="1"/>
        <pt x="571" y="580" on="0"/>
        <pt x="642" y="509" on="0"/>
        <pt x="642" y="459" on="1"/>
        <pt x="642" y="249" on="1"/>
        <pt x="133" y="249" on="1"/>
        <pt x="133" y="121" on="1"/>
        <pt x="133" y="105" on="0"/>
        <pt x="156" y="82" on="0"/>
        <pt x="172" y="82" on="1"/>
        <pt x="642" y="82" on="1"/>
        <pt x="642" y="0" on="1"/>
        <pt x="172" y="0" on="1"/>
        <pt x="122" y="0" on="0"/>
        <pt x="51" y="71" on="0"/>
        <pt x="51" y="121" on="1"/>
        <pt x="51" y="459" on="1"/>
        <pt x="51" y="509" on="0"/>
        <pt x="122" y="580" on="0"/>
        <pt x="172" y="580" on="1"/>
      </contour>
      <contour>
        <pt x="133" y="331" on="1"/>
        <pt x="559" y="331" on="1"/>
        <pt x="559" y="459" on="1"/>
        <pt x="559" y="475" on="0"/>
        <pt x="536" y="498" on="0"/>
        <pt x="520" y="498" on="1"/>
        <pt x="172" y="498" on="1"/>
        <pt x="156" y="498" on="0"/>
        <pt x="133" y="475" on="0"/>
        <pt x="133" y="459" on="1"/>
      </contour>
      <contour>
        <pt x="442" y="845" on="1"/>
        <pt x="442" y="763" on="1"/>
        <pt x="360" y="763" on="1"/>
        <pt x="360" y="845" on="1"/>
      </contour>
      <contour>
        <pt x="263" y="845" on="1"/>
        <pt x="263" y="763" on="1"/>
        <pt x="180" y="763" on="1"/>
        <pt x="180" y="845" on="1"/>
      </contour>
    </TTGlyph>
    <TTGlyph name="egrave" xMin="51" yMin="0" xMax="642" yMax="902">
      <contour>
        <pt x="520" y="580" on="1"/>
        <pt x="571" y="580" on="0"/>
        <pt x="642" y="509" on="0"/>
        <pt x="642" y="459" on="1"/>
        <pt x="642" y="249" on="1"/>
        <pt x="133" y="249" on="1"/>
        <pt x="133" y="121" on="1"/>
        <pt x="133" y="105" on="0"/>
        <pt x="156" y="82" on="0"/>
        <pt x="172" y="82" on="1"/>
        <pt x="642" y="82" on="1"/>
        <pt x="642" y="0" on="1"/>
        <pt x="172" y="0" on="1"/>
        <pt x="122" y="0" on="0"/>
        <pt x="51" y="71" on="0"/>
        <pt x="51" y="121" on="1"/>
        <pt x="51" y="459" on="1"/>
        <pt x="51" y="509" on="0"/>
        <pt x="122" y="580" on="0"/>
        <pt x="172" y="580" on="1"/>
      </contour>
      <contour>
        <pt x="133" y="331" on="1"/>
        <pt x="559" y="331" on="1"/>
        <pt x="559" y="459" on="1"/>
        <pt x="559" y="475" on="0"/>
        <pt x="536" y="498" on="0"/>
        <pt x="520" y="498" on="1"/>
        <pt x="172" y="498" on="1"/>
        <pt x="156" y="498" on="0"/>
        <pt x="133" y="475" on="0"/>
        <pt x="133" y="459" on="1"/>
      </contour>
      <contour>
        <pt x="326" y="902" on="1"/>
        <pt x="360" y="763" on="1"/>
        <pt x="280" y="763" on="1"/>
        <pt x="245" y="902" on="1"/>
      </contour>
    </TTGlyph>
    <TTGlyph name="eight" xMin="57" yMin="0" xMax="784" yMax="721">
      <contour>
        <pt x="784" y="619" on="1"/>
        <pt x="784" y="452" on="1"/>
        <pt x="784" y="412" on="0"/>
        <pt x="754" y="371" on="1"/>
        <pt x="784" y="332" on="0"/>
        <pt x="784" y="291" on="1"/>
        <pt x="784" y="121" on="1"/>
        <pt x="784" y="71" on="0"/>
        <pt x="713" y="0" on="0"/>
        <pt x="663" y="0" on="1"/>
        <pt x="178" y="0" on="1"/>
        <pt x="127" y="0" on="0"/>
        <pt x="57" y="71" on="0"/>
        <pt x="57" y="121" on="1"/>
        <pt x="57" y="291" on="1"/>
        <pt x="57" y="332" on="0"/>
        <pt x="87" y="371" on="1"/>
        <pt x="57" y="412" on="0"/>
        <pt x="57" y="452" on="1"/>
        <pt x="57" y="599" on="1"/>
        <pt x="57" y="650" on="0"/>
        <pt x="127" y="721" on="0"/>
        <pt x="178" y="721" on="1"/>
        <pt x="663" y="721" on="1"/>
        <pt x="703" y="721" on="0"/>
        <pt x="772" y="660" on="0"/>
      </contour>
      <contour>
        <pt x="702" y="121" on="1"/>
        <pt x="702" y="291" on="1"/>
        <pt x="702" y="307" on="0"/>
        <pt x="679" y="330" on="0"/>
        <pt x="663" y="330" on="1"/>
        <pt x="178" y="330" on="1"/>
        <pt x="162" y="330" on="0"/>
        <pt x="139" y="307" on="0"/>
        <pt x="139" y="291" on="1"/>
        <pt x="139" y="121" on="1"/>
        <pt x="139" y="105" on="0"/>
        <pt x="162" y="82" on="0"/>
        <pt x="178" y="82" on="1"/>
        <pt x="663" y="82" on="1"/>
        <pt x="679" y="82" on="0"/>
        <pt x="702" y="105" on="0"/>
      </contour>
      <contour>
        <pt x="702" y="440" on="1"/>
        <pt x="702" y="598" on="1"/>
        <pt x="702" y="614" on="0"/>
        <pt x="679" y="637" on="0"/>
        <pt x="663" y="637" on="1"/>
        <pt x="178" y="637" on="1"/>
        <pt x="162" y="637" on="0"/>
        <pt x="139" y="614" on="0"/>
        <pt x="139" y="598" on="1"/>
        <pt x="139" y="440" on="1"/>
        <pt x="139" y="424" on="0"/>
        <pt x="162" y="401" on="0"/>
        <pt x="178" y="401" on="1"/>
        <pt x="663" y="401" on="1"/>
        <pt x="679" y="401" on="0"/>
        <pt x="702" y="424" on="0"/>
      </contour>
    </TTGlyph>
    <TTGlyph name="ellipsis" xMin="54" yMin="0" xMax="514" yMax="82">
      <contour>
        <pt x="136" y="82" on="1"/>
        <pt x="136" y="0" on="1"/>
        <pt x="54" y="0" on="1"/>
        <pt x="54" y="82" on="1"/>
      </contour>
      <contour>
        <pt x="514" y="82" on="1"/>
        <pt x="514" y="0" on="1"/>
        <pt x="431" y="0" on="1"/>
        <pt x="431" y="82" on="1"/>
      </contour>
      <contour>
        <pt x="325" y="82" on="1"/>
        <pt x="325" y="0" on="1"/>
        <pt x="243" y="0" on="1"/>
        <pt x="243" y="82" on="1"/>
      </contour>
    </TTGlyph>
    <TTGlyph name="emdash" xMin="54" yMin="254" xMax="775" yMax="336">
      <contour>
        <pt x="775" y="336" on="1"/>
        <pt x="775" y="254" on="1"/>
        <pt x="54" y="254" on="1"/>
        <pt x="54" y="336" on="1"/>
      </contour>
    </TTGlyph>
    <TTGlyph name="endash" xMin="54" yMin="254" xMax="655" yMax="336">
      <contour>
        <pt x="655" y="336" on="1"/>
        <pt x="655" y="254" on="1"/>
        <pt x="54" y="254" on="1"/>
        <pt x="54" y="336" on="1"/>
      </contour>
    </TTGlyph>
    <TTGlyph name="equal" xMin="59" yMin="151" xMax="576" yMax="433">
      <contour>
        <pt x="576" y="233" on="1"/>
        <pt x="576" y="151" on="1"/>
        <pt x="59" y="151" on="1"/>
        <pt x="59" y="233" on="1"/>
      </contour>
      <contour>
        <pt x="576" y="433" on="1"/>
        <pt x="576" y="351" on="1"/>
        <pt x="59" y="351" on="1"/>
        <pt x="59" y="433" on="1"/>
      </contour>
    </TTGlyph>
    <TTGlyph name="exclam" xMin="58" yMin="0" xMax="140" yMax="720">
      <contour>
        <pt x="140" y="0" on="1"/>
        <pt x="58" y="0" on="1"/>
        <pt x="58" y="82" on="1"/>
        <pt x="140" y="82" on="1"/>
      </contour>
      <contour>
        <pt x="58" y="203" on="1"/>
        <pt x="58" y="720" on="1"/>
        <pt x="140" y="720" on="1"/>
        <pt x="140" y="203" on="1"/>
      </contour>
    </TTGlyph>
    <TTGlyph name="exclamdown" xMin="53" yMin="0" xMax="135" yMax="728">
      <contour>
        <pt x="135" y="728" on="1"/>
        <pt x="135" y="645" on="1"/>
        <pt x="53" y="645" on="1"/>
        <pt x="53" y="728" on="1"/>
      </contour>
      <contour>
        <pt x="135" y="0" on="1"/>
        <pt x="53" y="0" on="1"/>
        <pt x="53" y="517" on="1"/>
        <pt x="135" y="517" on="1"/>
      </contour>
    </TTGlyph>
    <TTGlyph name="f" xMin="53" yMin="0" xMax="386" yMax="770">
      <contour>
        <pt x="174" y="688" on="1"/>
        <pt x="158" y="688" on="0"/>
        <pt x="135" y="665" on="0"/>
        <pt x="135" y="649" on="1"/>
        <pt x="135" y="580" on="1"/>
        <pt x="386" y="580" on="1"/>
        <pt x="386" y="498" on="1"/>
        <pt x="135" y="498" on="1"/>
        <pt x="135" y="0" on="1"/>
        <pt x="53" y="0" on="1"/>
        <pt x="53" y="649" on="1"/>
        <pt x="53" y="700" on="0"/>
        <pt x="123" y="770" on="0"/>
        <pt x="174" y="770" on="1"/>
        <pt x="386" y="770" on="1"/>
        <pt x="386" y="688" on="1"/>
      </contour>
    </TTGlyph>
    <TTGlyph name="f.sc" xMin="54" yMin="0" xMax="581" yMax="581">
      <contour>
        <pt x="54" y="581" on="1"/>
        <pt x="581" y="581" on="1"/>
        <pt x="581" y="499" on="1"/>
        <pt x="136" y="499" on="1"/>
        <pt x="136" y="331" on="1"/>
        <pt x="467" y="331" on="1"/>
        <pt x="467" y="249" on="1"/>
        <pt x="136" y="249" on="1"/>
        <pt x="136" y="0" on="1"/>
        <pt x="54" y="0" on="1"/>
      </contour>
    </TTGlyph>
    <TTGlyph name="five" xMin="57" yMin="0" xMax="784" yMax="721">
      <contour>
        <pt x="139" y="599" on="1"/>
        <pt x="139" y="452" on="1"/>
        <pt x="139" y="436" on="0"/>
        <pt x="162" y="412" on="0"/>
        <pt x="178" y="412" on="1"/>
        <pt x="663" y="412" on="1"/>
        <pt x="713" y="412" on="0"/>
        <pt x="784" y="342" on="0"/>
        <pt x="784" y="291" on="1"/>
        <pt x="784" y="121" on="1"/>
        <pt x="784" y="71" on="0"/>
        <pt x="713" y="0" on="0"/>
        <pt x="663" y="0" on="1"/>
        <pt x="178" y="0" on="1"/>
        <pt x="127" y="0" on="0"/>
        <pt x="57" y="71" on="0"/>
        <pt x="57" y="121" on="1"/>
        <pt x="57" y="150" on="1"/>
        <pt x="139" y="150" on="1"/>
        <pt x="139" y="121" on="1"/>
        <pt x="139" y="105" on="0"/>
        <pt x="162" y="82" on="0"/>
        <pt x="178" y="82" on="1"/>
        <pt x="663" y="82" on="1"/>
        <pt x="679" y="82" on="0"/>
        <pt x="702" y="105" on="0"/>
        <pt x="702" y="121" on="1"/>
        <pt x="702" y="291" on="1"/>
        <pt x="702" y="307" on="0"/>
        <pt x="679" y="330" on="0"/>
        <pt x="663" y="330" on="1"/>
        <pt x="57" y="330" on="1"/>
        <pt x="57" y="721" on="1"/>
        <pt x="784" y="721" on="1"/>
        <pt x="784" y="638" on="1"/>
        <pt x="178" y="638" on="1"/>
        <pt x="162" y="638" on="0"/>
        <pt x="139" y="615" on="0"/>
      </contour>
    </TTGlyph>
    <TTGlyph name="four" xMin="6" yMin="0" xMax="702" yMax="721">
      <contour>
        <pt x="590" y="268" on="1"/>
        <pt x="702" y="268" on="1"/>
        <pt x="702" y="186" on="1"/>
        <pt x="590" y="186" on="1"/>
        <pt x="590" y="0" on="1"/>
        <pt x="508" y="0" on="1"/>
        <pt x="508" y="186" on="1"/>
        <pt x="6" y="186" on="1"/>
        <pt x="6" y="278" on="1"/>
        <pt x="498" y="721" on="1"/>
        <pt x="590" y="721" on="1"/>
      </contour>
      <contour>
        <pt x="508" y="590" on="1"/>
        <pt x="111" y="268" on="1"/>
        <pt x="508" y="268" on="1"/>
      </contour>
    </TTGlyph>
    <TTGlyph name="four.alt" xMin="9" yMin="0" xMax="705" yMax="721">
      <contour>
        <pt x="593" y="268" on="1"/>
        <pt x="705" y="268" on="1"/>
        <pt x="705" y="186" on="1"/>
        <pt x="593" y="186" on="1"/>
        <pt x="593" y="0" on="1"/>
        <pt x="511" y="0" on="1"/>
        <pt x="511" y="186" on="1"/>
        <pt x="9" y="186" on="1"/>
        <pt x="9" y="279" on="1"/>
        <pt x="386" y="721" on="1"/>
        <pt x="477" y="721" on="1"/>
        <pt x="477" y="690" on="1"/>
        <pt x="95" y="268" on="1"/>
        <pt x="511" y="268" on="1"/>
        <pt x="511" y="425" on="1"/>
        <pt x="593" y="425" on="1"/>
      </contour>
    </TTGlyph>
    <TTGlyph name="g" xMin="41" yMin="-229" xMax="631" yMax="580">
      <contour>
        <pt x="631" y="-107" on="1"/>
        <pt x="631" y="-158" on="0"/>
        <pt x="561" y="-229" on="0"/>
        <pt x="510" y="-229" on="1"/>
        <pt x="148" y="-229" on="1"/>
        <pt x="148" y="-146" on="1"/>
        <pt x="510" y="-146" on="1"/>
        <pt x="526" y="-146" on="0"/>
        <pt x="549" y="-123" on="0"/>
        <pt x="549" y="-107" on="1"/>
        <pt x="549" y="0" on="1"/>
        <pt x="162" y="0" on="1"/>
        <pt x="112" y="0" on="0"/>
        <pt x="41" y="71" on="0"/>
        <pt x="41" y="121" on="1"/>
        <pt x="41" y="459" on="1"/>
        <pt x="41" y="509" on="0"/>
        <pt x="112" y="580" on="0"/>
        <pt x="162" y="580" on="1"/>
        <pt x="510" y="580" on="1"/>
        <pt x="561" y="580" on="0"/>
        <pt x="631" y="509" on="0"/>
        <pt x="631" y="459" on="1"/>
      </contour>
      <contour>
        <pt x="162" y="82" on="1"/>
        <pt x="510" y="82" on="1"/>
        <pt x="526" y="82" on="0"/>
        <pt x="549" y="105" on="0"/>
        <pt x="549" y="121" on="1"/>
        <pt x="549" y="459" on="1"/>
        <pt x="549" y="475" on="0"/>
        <pt x="526" y="498" on="0"/>
        <pt x="510" y="498" on="1"/>
        <pt x="162" y="498" on="1"/>
        <pt x="146" y="498" on="0"/>
        <pt x="123" y="475" on="0"/>
        <pt x="123" y="459" on="1"/>
        <pt x="123" y="121" on="1"/>
        <pt x="123" y="105" on="0"/>
        <pt x="146" y="82" on="0"/>
      </contour>
    </TTGlyph>
    <TTGlyph name="g.sc" xMin="51" yMin="0" xMax="642" yMax="581">
      <contour>
        <pt x="642" y="460" on="1"/>
        <pt x="642" y="446" on="1"/>
        <pt x="559" y="446" on="1"/>
        <pt x="559" y="460" on="1"/>
        <pt x="559" y="476" on="0"/>
        <pt x="536" y="499" on="0"/>
        <pt x="520" y="499" on="1"/>
        <pt x="172" y="499" on="1"/>
        <pt x="156" y="499" on="0"/>
        <pt x="133" y="476" on="0"/>
        <pt x="133" y="460" on="1"/>
        <pt x="133" y="121" on="1"/>
        <pt x="133" y="105" on="0"/>
        <pt x="156" y="82" on="0"/>
        <pt x="172" y="82" on="1"/>
        <pt x="520" y="82" on="1"/>
        <pt x="536" y="82" on="0"/>
        <pt x="559" y="105" on="0"/>
        <pt x="559" y="121" on="1"/>
        <pt x="559" y="217" on="1"/>
        <pt x="380" y="217" on="1"/>
        <pt x="380" y="299" on="1"/>
        <pt x="642" y="299" on="1"/>
        <pt x="642" y="121" on="1"/>
        <pt x="642" y="71" on="0"/>
        <pt x="571" y="0" on="0"/>
        <pt x="520" y="0" on="1"/>
        <pt x="172" y="0" on="1"/>
        <pt x="122" y="0" on="0"/>
        <pt x="51" y="71" on="0"/>
        <pt x="51" y="121" on="1"/>
        <pt x="51" y="460" on="1"/>
        <pt x="51" y="510" on="0"/>
        <pt x="122" y="581" on="0"/>
        <pt x="172" y="581" on="1"/>
        <pt x="520" y="581" on="1"/>
        <pt x="571" y="581" on="0"/>
        <pt x="642" y="510" on="0"/>
      </contour>
    </TTGlyph>
    <TTGlyph name="germandbls" xMin="57" yMin="0" xMax="784" yMax="728">
      <contour>
        <pt x="784" y="626" on="1"/>
        <pt x="784" y="455" on="1"/>
        <pt x="784" y="415" on="0"/>
        <pt x="754" y="374" on="1"/>
        <pt x="784" y="335" on="0"/>
        <pt x="784" y="294" on="1"/>
        <pt x="784" y="121" on="1"/>
        <pt x="784" y="71" on="0"/>
        <pt x="713" y="0" on="0"/>
        <pt x="663" y="0" on="1"/>
        <pt x="284" y="0" on="1"/>
        <pt x="284" y="82" on="1"/>
        <pt x="663" y="82" on="1"/>
        <pt x="679" y="82" on="0"/>
        <pt x="702" y="105" on="0"/>
        <pt x="702" y="121" on="1"/>
        <pt x="702" y="294" on="1"/>
        <pt x="702" y="310" on="0"/>
        <pt x="679" y="333" on="0"/>
        <pt x="663" y="333" on="1"/>
        <pt x="284" y="333" on="1"/>
        <pt x="284" y="404" on="1"/>
        <pt x="663" y="404" on="1"/>
        <pt x="679" y="404" on="0"/>
        <pt x="702" y="427" on="0"/>
        <pt x="702" y="443" on="1"/>
        <pt x="702" y="605" on="1"/>
        <pt x="702" y="621" on="0"/>
        <pt x="679" y="644" on="0"/>
        <pt x="663" y="644" on="1"/>
        <pt x="178" y="644" on="1"/>
        <pt x="162" y="644" on="0"/>
        <pt x="139" y="621" on="0"/>
        <pt x="139" y="605" on="1"/>
        <pt x="139" y="0" on="1"/>
        <pt x="57" y="0" on="1"/>
        <pt x="57" y="606" on="1"/>
        <pt x="57" y="657" on="0"/>
        <pt x="127" y="728" on="0"/>
        <pt x="178" y="728" on="1"/>
        <pt x="663" y="728" on="1"/>
        <pt x="703" y="728" on="0"/>
        <pt x="772" y="667" on="0"/>
      </contour>
    </TTGlyph>
    <TTGlyph name="grave" xMin="32" yMin="872" xMax="147" yMax="1011">
      <contour>
        <pt x="113" y="1011" on="1"/>
        <pt x="147" y="872" on="1"/>
        <pt x="67" y="872" on="1"/>
        <pt x="32" y="1011" on="1"/>
      </contour>
    </TTGlyph>
    <TTGlyph name="greater" xMin="59" yMin="14" xMax="461" yMax="574">
      <contour>
        <pt x="59" y="14" on="1"/>
        <pt x="59" y="109" on="1"/>
        <pt x="379" y="294" on="1"/>
        <pt x="59" y="479" on="1"/>
        <pt x="59" y="574" on="1"/>
        <pt x="461" y="343" on="1"/>
        <pt x="461" y="246" on="1"/>
      </contour>
    </TTGlyph>
    <TTGlyph name="h" xMin="54" yMin="0" xMax="645" yMax="770">
      <contour>
        <pt x="524" y="580" on="1"/>
        <pt x="574" y="580" on="0"/>
        <pt x="645" y="509" on="0"/>
        <pt x="645" y="459" on="1"/>
        <pt x="645" y="0" on="1"/>
        <pt x="563" y="0" on="1"/>
        <pt x="563" y="459" on="1"/>
        <pt x="563" y="475" on="0"/>
        <pt x="540" y="498" on="0"/>
        <pt x="524" y="498" on="1"/>
        <pt x="176" y="498" on="1"/>
        <pt x="160" y="498" on="0"/>
        <pt x="136" y="475" on="0"/>
        <pt x="136" y="459" on="1"/>
        <pt x="136" y="0" on="1"/>
        <pt x="54" y="0" on="1"/>
        <pt x="54" y="770" on="1"/>
        <pt x="136" y="770" on="1"/>
        <pt x="136" y="580" on="1"/>
      </contour>
    </TTGlyph>
    <TTGlyph name="h.sc" xMin="54" yMin="0" xMax="662" yMax="580">
      <contour>
        <pt x="580" y="580" on="1"/>
        <pt x="662" y="580" on="1"/>
        <pt x="662" y="0" on="1"/>
        <pt x="580" y="0" on="1"/>
        <pt x="580" y="249" on="1"/>
        <pt x="136" y="249" on="1"/>
        <pt x="136" y="0" on="1"/>
        <pt x="54" y="0" on="1"/>
        <pt x="54" y="580" on="1"/>
        <pt x="136" y="580" on="1"/>
        <pt x="136" y="331" on="1"/>
        <pt x="580" y="331" on="1"/>
      </contour>
    </TTGlyph>
    <TTGlyph name="hyphen" xMin="59" yMin="255" xMax="449" yMax="337">
      <contour>
        <pt x="449" y="337" on="1"/>
        <pt x="449" y="255" on="1"/>
        <pt x="59" y="255" on="1"/>
        <pt x="59" y="337" on="1"/>
      </contour>
    </TTGlyph>
    <TTGlyph name="i" xMin="52" yMin="0" xMax="134" yMax="770">
      <contour>
        <pt x="52" y="0" on="1"/>
        <pt x="52" y="580" on="1"/>
        <pt x="134" y="580" on="1"/>
        <pt x="134" y="0" on="1"/>
      </contour>
      <contour>
        <pt x="52" y="770" on="1"/>
        <pt x="134" y="770" on="1"/>
        <pt x="134" y="688" on="1"/>
        <pt x="52" y="688" on="1"/>
      </contour>
    </TTGlyph>
    <TTGlyph name="i.sc" xMin="54" yMin="0" xMax="136" yMax="580">
      <contour>
        <pt x="54" y="0" on="1"/>
        <pt x="54" y="580" on="1"/>
        <pt x="136" y="580" on="1"/>
        <pt x="136" y="0" on="1"/>
      </contour>
    </TTGlyph>
    <TTGlyph name="iacute" xMin="49" yMin="0" xMax="163" yMax="902">
      <contour>
        <pt x="51" y="0" on="1"/>
        <pt x="51" y="580" on="1"/>
        <pt x="133" y="580" on="1"/>
        <pt x="133" y="0" on="1"/>
      </contour>
      <contour>
        <pt x="49" y="763" on="1"/>
        <pt x="84" y="902" on="1"/>
        <pt x="163" y="902" on="1"/>
        <pt x="129" y="763" on="1"/>
      </contour>
    </TTGlyph>
    <TTGlyph name="icircumflex" xMin="-15" yMin="0" xMax="186" yMax="880">
      <contour>
        <pt x="51" y="0" on="1"/>
        <pt x="51" y="580" on="1"/>
        <pt x="133" y="580" on="1"/>
        <pt x="133" y="0" on="1"/>
      </contour>
      <contour>
        <pt x="26" y="763" on="1"/>
        <pt x="-15" y="763" on="1"/>
        <pt x="56" y="880" on="1"/>
        <pt x="115" y="880" on="1"/>
        <pt x="186" y="763" on="1"/>
        <pt x="144" y="763" on="1"/>
        <pt x="86" y="848" on="1"/>
      </contour>
    </TTGlyph>
    <TTGlyph name="idieresis" xMin="-32" yMin="0" xMax="230" yMax="847">
      <contour>
        <pt x="55" y="0" on="1"/>
        <pt x="55" y="580" on="1"/>
        <pt x="137" y="580" on="1"/>
        <pt x="137" y="0" on="1"/>
      </contour>
      <contour>
        <pt x="230" y="847" on="1"/>
        <pt x="230" y="765" on="1"/>
        <pt x="148" y="765" on="1"/>
        <pt x="148" y="847" on="1"/>
      </contour>
      <contour>
        <pt x="51" y="847" on="1"/>
        <pt x="51" y="765" on="1"/>
        <pt x="-32" y="765" on="1"/>
        <pt x="-32" y="847" on="1"/>
      </contour>
    </TTGlyph>
    <TTGlyph name="igrave" xMin="16" yMin="0" xMax="138" yMax="903">
      <contour>
        <pt x="56" y="0" on="1"/>
        <pt x="56" y="580" on="1"/>
        <pt x="138" y="580" on="1"/>
        <pt x="138" y="0" on="1"/>
      </contour>
      <contour>
        <pt x="97" y="903" on="1"/>
        <pt x="131" y="764" on="1"/>
        <pt x="51" y="764" on="1"/>
        <pt x="16" y="903" on="1"/>
      </contour>
    </TTGlyph>
    <TTGlyph name="j" xMin="-187" yMin="-243" xMax="180" yMax="770">
      <contour>
        <pt x="97" y="770" on="1"/>
        <pt x="180" y="770" on="1"/>
        <pt x="180" y="688" on="1"/>
        <pt x="97" y="688" on="1"/>
      </contour>
      <contour>
        <pt x="180" y="580" on="1"/>
        <pt x="180" y="-121" on="1"/>
        <pt x="180" y="-172" on="0"/>
        <pt x="109" y="-243" on="0"/>
        <pt x="58" y="-243" on="1"/>
        <pt x="-187" y="-243" on="1"/>
        <pt x="-187" y="-160" on="1"/>
        <pt x="58" y="-160" on="1"/>
        <pt x="74" y="-160" on="0"/>
        <pt x="97" y="-137" on="0"/>
        <pt x="97" y="-121" on="1"/>
        <pt x="97" y="580" on="1"/>
      </contour>
    </TTGlyph>
    <TTGlyph name="j.sc" xMin="5" yMin="0" xMax="606" yMax="580">
      <contour>
        <pt x="524" y="121" on="1"/>
        <pt x="524" y="580" on="1"/>
        <pt x="606" y="580" on="1"/>
        <pt x="606" y="121" on="1"/>
        <pt x="606" y="71" on="0"/>
        <pt x="535" y="0" on="0"/>
        <pt x="485" y="0" on="1"/>
        <pt x="126" y="0" on="1"/>
        <pt x="76" y="0" on="0"/>
        <pt x="5" y="71" on="0"/>
        <pt x="5" y="121" on="1"/>
        <pt x="5" y="169" on="1"/>
        <pt x="87" y="169" on="1"/>
        <pt x="87" y="121" on="1"/>
        <pt x="87" y="105" on="0"/>
        <pt x="110" y="82" on="0"/>
        <pt x="126" y="82" on="1"/>
        <pt x="485" y="82" on="1"/>
        <pt x="501" y="82" on="0"/>
        <pt x="524" y="105" on="0"/>
      </contour>
    </TTGlyph>
    <TTGlyph name="k" xMin="54" yMin="0" xMax="632" yMax="770">
      <contour>
        <pt x="524" y="580" on="1"/>
        <pt x="632" y="580" on="1"/>
        <pt x="369" y="290" on="1"/>
        <pt x="631" y="0" on="1"/>
        <pt x="524" y="0" on="1"/>
        <pt x="296" y="249" on="1"/>
        <pt x="136" y="249" on="1"/>
        <pt x="136" y="0" on="1"/>
        <pt x="54" y="0" on="1"/>
        <pt x="54" y="770" on="1"/>
        <pt x="136" y="770" on="1"/>
        <pt x="136" y="331" on="1"/>
        <pt x="296" y="331" on="1"/>
      </contour>
    </TTGlyph>
    <TTGlyph name="k.alt" xMin="54" yMin="0" xMax="645" yMax="770">
      <contour>
        <pt x="645" y="580" on="1"/>
        <pt x="645" y="370" on="1"/>
        <pt x="645" y="330" on="0"/>
        <pt x="616" y="290" on="1"/>
        <pt x="645" y="250" on="0"/>
        <pt x="645" y="210" on="1"/>
        <pt x="645" y="0" on="1"/>
        <pt x="563" y="0" on="1"/>
        <pt x="563" y="210" on="1"/>
        <pt x="563" y="226" on="0"/>
        <pt x="540" y="249" on="0"/>
        <pt x="524" y="249" on="1"/>
        <pt x="136" y="249" on="1"/>
        <pt x="136" y="0" on="1"/>
        <pt x="54" y="0" on="1"/>
        <pt x="54" y="770" on="1"/>
        <pt x="136" y="770" on="1"/>
        <pt x="136" y="331" on="1"/>
        <pt x="524" y="331" on="1"/>
        <pt x="540" y="331" on="0"/>
        <pt x="563" y="354" on="0"/>
        <pt x="563" y="370" on="1"/>
        <pt x="563" y="580" on="1"/>
      </contour>
    </TTGlyph>
    <TTGlyph name="k.sc" xMin="54" yMin="0" xMax="632" yMax="580">
      <contour>
        <pt x="524" y="580" on="1"/>
        <pt x="632" y="580" on="1"/>
        <pt x="369" y="290" on="1"/>
        <pt x="631" y="0" on="1"/>
        <pt x="524" y="0" on="1"/>
        <pt x="296" y="249" on="1"/>
        <pt x="136" y="249" on="1"/>
        <pt x="136" y="0" on="1"/>
        <pt x="54" y="0" on="1"/>
        <pt x="54" y="580" on="1"/>
        <pt x="136" y="580" on="1"/>
        <pt x="136" y="331" on="1"/>
        <pt x="296" y="331" on="1"/>
      </contour>
    </TTGlyph>
    <TTGlyph name="l" xMin="52" yMin="0" xMax="271" yMax="770">
      <contour>
        <pt x="52" y="770" on="1"/>
        <pt x="134" y="770" on="1"/>
        <pt x="134" y="121" on="1"/>
        <pt x="134" y="105" on="0"/>
        <pt x="157" y="82" on="0"/>
        <pt x="173" y="82" on="1"/>
        <pt x="271" y="82" on="1"/>
        <pt x="271" y="0" on="1"/>
        <pt x="173" y="0" on="1"/>
        <pt x="123" y="0" on="0"/>
        <pt x="52" y="71" on="0"/>
        <pt x="52" y="121" on="1"/>
      </contour>
    </TTGlyph>
    <TTGlyph name="l.sc" xMin="54" yMin="0" xMax="655" yMax="580">
      <contour>
        <pt x="54" y="0" on="1"/>
        <pt x="54" y="580" on="1"/>
        <pt x="136" y="580" on="1"/>
        <pt x="136" y="82" on="1"/>
        <pt x="655" y="82" on="1"/>
        <pt x="655" y="0" on="1"/>
      </contour>
    </TTGlyph>
    <TTGlyph name="less" xMin="5" yMin="16" xMax="407" yMax="576">
      <contour>
        <pt x="87" y="296" on="1"/>
        <pt x="407" y="111" on="1"/>
        <pt x="407" y="16" on="1"/>
        <pt x="5" y="248" on="1"/>
        <pt x="5" y="345" on="1"/>
        <pt x="407" y="576" on="1"/>
        <pt x="407" y="481" on="1"/>
      </contour>
    </TTGlyph>
    <TTGlyph name="m" xMin="54" yMin="0" xMax="941" yMax="580">
      <contour>
        <pt x="820" y="580" on="1"/>
        <pt x="871" y="580" on="0"/>
        <pt x="941" y="509" on="0"/>
        <pt x="941" y="459" on="1"/>
        <pt x="941" y="0" on="1"/>
        <pt x="860" y="0" on="1"/>
        <pt x="860" y="459" on="1"/>
        <pt x="860" y="475" on="0"/>
        <pt x="836" y="498" on="0"/>
        <pt x="820" y="498" on="1"/>
        <pt x="579" y="498" on="1"/>
        <pt x="563" y="498" on="0"/>
        <pt x="540" y="475" on="0"/>
        <pt x="540" y="459" on="1"/>
        <pt x="540" y="0" on="1"/>
        <pt x="457" y="0" on="1"/>
        <pt x="457" y="459" on="1"/>
        <pt x="457" y="475" on="0"/>
        <pt x="434" y="498" on="0"/>
        <pt x="418" y="498" on="1"/>
        <pt x="176" y="498" on="1"/>
        <pt x="160" y="498" on="0"/>
        <pt x="137" y="475" on="0"/>
        <pt x="137" y="459" on="1"/>
        <pt x="137" y="0" on="1"/>
        <pt x="54" y="0" on="1"/>
        <pt x="54" y="580" on="1"/>
      </contour>
    </TTGlyph>
    <TTGlyph name="m.sc" xMin="54" yMin="0" xMax="777" yMax="581">
      <contour>
        <pt x="415" y="223" on="1"/>
        <pt x="664" y="581" on="1"/>
        <pt x="777" y="581" on="1"/>
        <pt x="777" y="0" on="1"/>
        <pt x="695" y="0" on="1"/>
        <pt x="695" y="505" on="1"/>
        <pt x="415" y="107" on="1"/>
        <pt x="136" y="505" on="1"/>
        <pt x="136" y="0" on="1"/>
        <pt x="54" y="0" on="1"/>
        <pt x="54" y="581" on="1"/>
        <pt x="164" y="581" on="1"/>
      </contour>
    </TTGlyph>
    <TTGlyph name="minus" xMin="59" yMin="255" xMax="449" yMax="337">
      <contour>
        <pt x="449" y="337" on="1"/>
        <pt x="449" y="255" on="1"/>
        <pt x="59" y="255" on="1"/>
        <pt x="59" y="337" on="1"/>
      </contour>
    </TTGlyph>
    <TTGlyph name="multiply" xMin="53" yMin="95" xMax="478" yMax="506">
      <contour>
        <pt x="266" y="362" on="1"/>
        <pt x="372" y="506" on="1"/>
        <pt x="478" y="506" on="1"/>
        <pt x="320" y="301" on="1"/>
        <pt x="478" y="95" on="1"/>
        <pt x="372" y="95" on="1"/>
        <pt x="266" y="239" on="1"/>
        <pt x="161" y="95" on="1"/>
        <pt x="54" y="95" on="1"/>
        <pt x="212" y="301" on="1"/>
        <pt x="53" y="506" on="1"/>
        <pt x="161" y="506" on="1"/>
      </contour>
    </TTGlyph>
    <TTGlyph name="n" xMin="54" yMin="0" xMax="645" yMax="580">
      <contour>
        <pt x="524" y="580" on="1"/>
        <pt x="574" y="580" on="0"/>
        <pt x="645" y="509" on="0"/>
        <pt x="645" y="459" on="1"/>
        <pt x="645" y="0" on="1"/>
        <pt x="563" y="0" on="1"/>
        <pt x="563" y="459" on="1"/>
        <pt x="563" y="475" on="0"/>
        <pt x="540" y="498" on="0"/>
        <pt x="524" y="498" on="1"/>
        <pt x="176" y="498" on="1"/>
        <pt x="160" y="498" on="0"/>
        <pt x="136" y="475" on="0"/>
        <pt x="136" y="459" on="1"/>
        <pt x="136" y="0" on="1"/>
        <pt x="54" y="0" on="1"/>
        <pt x="54" y="580" on="1"/>
      </contour>
    </TTGlyph>
    <TTGlyph name="n.sc" xMin="54" yMin="0" xMax="655" yMax="580">
      <contour>
        <pt x="573" y="92" on="1"/>
        <pt x="573" y="580" on="1"/>
        <pt x="655" y="580" on="1"/>
        <pt x="655" y="0" on="1"/>
        <pt x="544" y="0" on="1"/>
        <pt x="136" y="489" on="1"/>
        <pt x="136" y="0" on="1"/>
        <pt x="54" y="0" on="1"/>
        <pt x="54" y="580" on="1"/>
        <pt x="165" y="580" on="1"/>
      </contour>
    </TTGlyph>
    <TTGlyph name="nine" xMin="51" yMin="0" xMax="779" yMax="721">
      <contour>
        <pt x="658" y="305" on="1"/>
        <pt x="173" y="305" on="1"/>
        <pt x="122" y="305" on="0"/>
        <pt x="51" y="376" on="0"/>
        <pt x="51" y="426" on="1"/>
        <pt x="51" y="599" on="1"/>
        <pt x="51" y="650" on="0"/>
        <pt x="122" y="721" on="0"/>
        <pt x="173" y="721" on="1"/>
        <pt x="658" y="721" on="1"/>
        <pt x="708" y="721" on="0"/>
        <pt x="779" y="650" on="0"/>
        <pt x="779" y="599" on="1"/>
        <pt x="779" y="121" on="1"/>
        <pt x="779" y="71" on="0"/>
        <pt x="708" y="0" on="0"/>
        <pt x="658" y="0" on="1"/>
        <pt x="173" y="0" on="1"/>
        <pt x="134" y="0" on="0"/>
        <pt x="70" y="46" on="0"/>
        <pt x="58" y="82" on="1"/>
        <pt x="658" y="82" on="1"/>
        <pt x="674" y="82" on="0"/>
        <pt x="697" y="105" on="0"/>
        <pt x="697" y="121" on="1"/>
        <pt x="697" y="266" on="1"/>
        <pt x="697" y="282" on="0"/>
        <pt x="674" y="305" on="0"/>
      </contour>
      <contour>
        <pt x="134" y="599" on="1"/>
        <pt x="134" y="426" on="1"/>
        <pt x="134" y="410" on="0"/>
        <pt x="157" y="387" on="0"/>
        <pt x="173" y="387" on="1"/>
        <pt x="697" y="387" on="1"/>
        <pt x="697" y="599" on="1"/>
        <pt x="697" y="615" on="0"/>
        <pt x="674" y="638" on="0"/>
        <pt x="658" y="638" on="1"/>
        <pt x="173" y="638" on="1"/>
        <pt x="157" y="638" on="0"/>
        <pt x="134" y="615" on="0"/>
      </contour>
    </TTGlyph>
    <TTGlyph name="nine.alt" xMin="12" yMin="0" xMax="740" yMax="719">
      <contour>
        <pt x="134" y="719" on="1"/>
        <pt x="619" y="719" on="1"/>
        <pt x="669" y="719" on="0"/>
        <pt x="740" y="648" on="0"/>
        <pt x="740" y="597" on="1"/>
        <pt x="740" y="0" on="1"/>
        <pt x="658" y="0" on="1"/>
        <pt x="658" y="264" on="1"/>
        <pt x="658" y="280" on="0"/>
        <pt x="635" y="303" on="0"/>
        <pt x="619" y="303" on="1"/>
        <pt x="134" y="303" on="1"/>
        <pt x="83" y="303" on="0"/>
        <pt x="12" y="374" on="0"/>
        <pt x="12" y="424" on="1"/>
        <pt x="12" y="597" on="1"/>
        <pt x="12" y="648" on="0"/>
        <pt x="83" y="719" on="0"/>
      </contour>
      <contour>
        <pt x="658" y="385" on="1"/>
        <pt x="658" y="597" on="1"/>
        <pt x="658" y="613" on="0"/>
        <pt x="635" y="636" on="0"/>
        <pt x="619" y="636" on="1"/>
        <pt x="134" y="636" on="1"/>
        <pt x="118" y="636" on="0"/>
        <pt x="95" y="613" on="0"/>
        <pt x="95" y="597" on="1"/>
        <pt x="95" y="424" on="1"/>
        <pt x="95" y="408" on="0"/>
        <pt x="118" y="385" on="0"/>
        <pt x="134" y="385" on="1"/>
      </contour>
    </TTGlyph>
    <TTGlyph name="ntilde" xMin="54" yMin="0" xMax="645" yMax="885">
      <contour>
        <pt x="524" y="580" on="1"/>
        <pt x="574" y="580" on="0"/>
        <pt x="645" y="509" on="0"/>
        <pt x="645" y="459" on="1"/>
        <pt x="645" y="0" on="1"/>
        <pt x="563" y="0" on="1"/>
        <pt x="563" y="459" on="1"/>
        <pt x="563" y="475" on="0"/>
        <pt x="540" y="498" on="0"/>
        <pt x="524" y="498" on="1"/>
        <pt x="176" y="498" on="1"/>
        <pt x="160" y="498" on="0"/>
        <pt x="136" y="475" on="0"/>
        <pt x="136" y="459" on="1"/>
        <pt x="136" y="0" on="1"/>
        <pt x="54" y="0" on="1"/>
        <pt x="54" y="580" on="1"/>
      </contour>
      <contour>
        <pt x="449" y="813" on="1"/>
        <pt x="451" y="813" on="1"/>
        <pt x="481" y="813" on="0"/>
        <pt x="517" y="830" on="1"/>
        <pt x="517" y="779" on="1"/>
        <pt x="479" y="765" on="0"/>
        <pt x="451" y="765" on="1"/>
        <pt x="416" y="765" on="0"/>
        <pt x="282" y="837" on="0"/>
        <pt x="240" y="837" on="1"/>
        <pt x="201" y="837" on="0"/>
        <pt x="178" y="829" on="1"/>
        <pt x="178" y="876" on="1"/>
        <pt x="205" y="885" on="0"/>
        <pt x="240" y="885" on="1"/>
        <pt x="280" y="885" on="0"/>
        <pt x="414" y="818" on="0"/>
      </contour>
    </TTGlyph>
    <TTGlyph name="numbersign" xMin="32" yMin="0" xMax="773" yMax="719">
      <contour>
        <pt x="773" y="555" on="1"/>
        <pt x="773" y="473" on="1"/>
        <pt x="652" y="473" on="1"/>
        <pt x="581" y="253" on="1"/>
        <pt x="740" y="253" on="1"/>
        <pt x="740" y="171" on="1"/>
        <pt x="555" y="171" on="1"/>
        <pt x="502" y="0" on="1"/>
        <pt x="420" y="0" on="1"/>
        <pt x="474" y="171" on="1"/>
        <pt x="214" y="171" on="1"/>
        <pt x="161" y="0" on="1"/>
        <pt x="79" y="0" on="1"/>
        <pt x="133" y="171" on="1"/>
        <pt x="32" y="171" on="1"/>
        <pt x="32" y="253" on="1"/>
        <pt x="159" y="253" on="1"/>
        <pt x="230" y="473" on="1"/>
        <pt x="64" y="473" on="1"/>
        <pt x="64" y="555" on="1"/>
        <pt x="256" y="555" on="1"/>
        <pt x="312" y="719" on="1"/>
        <pt x="393" y="719" on="1"/>
        <pt x="336" y="555" on="1"/>
        <pt x="597" y="555" on="1"/>
        <pt x="653" y="719" on="1"/>
        <pt x="734" y="719" on="1"/>
        <pt x="677" y="555" on="1"/>
      </contour>
      <contour>
        <pt x="241" y="253" on="1"/>
        <pt x="500" y="253" on="1"/>
        <pt x="571" y="473" on="1"/>
        <pt x="311" y="473" on="1"/>
      </contour>
    </TTGlyph>
    <TTGlyph name="o" xMin="51" yMin="0" xMax="642" yMax="580">
      <contour>
        <pt x="172" y="580" on="1"/>
        <pt x="520" y="580" on="1"/>
        <pt x="571" y="580" on="0"/>
        <pt x="642" y="509" on="0"/>
        <pt x="642" y="459" on="1"/>
        <pt x="642" y="121" on="1"/>
        <pt x="642" y="71" on="0"/>
        <pt x="571" y="0" on="0"/>
        <pt x="520" y="0" on="1"/>
        <pt x="172" y="0" on="1"/>
        <pt x="122" y="0" on="0"/>
        <pt x="51" y="71" on="0"/>
        <pt x="51" y="121" on="1"/>
        <pt x="51" y="459" on="1"/>
        <pt x="51" y="509" on="0"/>
        <pt x="122" y="580" on="0"/>
      </contour>
      <contour>
        <pt x="520" y="498" on="1"/>
        <pt x="172" y="498" on="1"/>
        <pt x="156" y="498" on="0"/>
        <pt x="133" y="475" on="0"/>
        <pt x="133" y="459" on="1"/>
        <pt x="133" y="121" on="1"/>
        <pt x="133" y="105" on="0"/>
        <pt x="156" y="82" on="0"/>
        <pt x="172" y="82" on="1"/>
        <pt x="520" y="82" on="1"/>
        <pt x="536" y="82" on="0"/>
        <pt x="559" y="105" on="0"/>
        <pt x="559" y="121" on="1"/>
        <pt x="559" y="459" on="1"/>
        <pt x="559" y="475" on="0"/>
        <pt x="536" y="498" on="0"/>
      </contour>
    </TTGlyph>
    <TTGlyph name="o.sc" xMin="51" yMin="0" xMax="642" yMax="580">
      <contour>
        <pt x="172" y="580" on="1"/>
        <pt x="520" y="580" on="1"/>
        <pt x="571" y="580" on="0"/>
        <pt x="642" y="509" on="0"/>
        <pt x="642" y="459" on="1"/>
        <pt x="642" y="121" on="1"/>
        <pt x="642" y="71" on="0"/>
        <pt x="571" y="0" on="0"/>
        <pt x="520" y="0" on="1"/>
        <pt x="172" y="0" on="1"/>
        <pt x="122" y="0" on="0"/>
        <pt x="51" y="71" on="0"/>
        <pt x="51" y="121" on="1"/>
        <pt x="51" y="459" on="1"/>
        <pt x="51" y="509" on="0"/>
        <pt x="122" y="580" on="0"/>
      </contour>
      <contour>
        <pt x="172" y="82" on="1"/>
        <pt x="520" y="82" on="1"/>
        <pt x="536" y="82" on="0"/>
        <pt x="559" y="105" on="0"/>
        <pt x="559" y="121" on="1"/>
        <pt x="559" y="459" on="1"/>
        <pt x="559" y="475" on="0"/>
        <pt x="536" y="498" on="0"/>
        <pt x="520" y="498" on="1"/>
        <pt x="172" y="498" on="1"/>
        <pt x="156" y="498" on="0"/>
        <pt x="133" y="475" on="0"/>
        <pt x="133" y="459" on="1"/>
        <pt x="133" y="121" on="1"/>
        <pt x="133" y="105" on="0"/>
        <pt x="156" y="82" on="0"/>
      </contour>
    </TTGlyph>
    <TTGlyph name="oacute" xMin="51" yMin="0" xMax="642" yMax="903">
      <contour>
        <pt x="172" y="580" on="1"/>
        <pt x="520" y="580" on="1"/>
        <pt x="571" y="580" on="0"/>
        <pt x="642" y="509" on="0"/>
        <pt x="642" y="459" on="1"/>
        <pt x="642" y="121" on="1"/>
        <pt x="642" y="71" on="0"/>
        <pt x="571" y="0" on="0"/>
        <pt x="520" y="0" on="1"/>
        <pt x="172" y="0" on="1"/>
        <pt x="122" y="0" on="0"/>
        <pt x="51" y="71" on="0"/>
        <pt x="51" y="121" on="1"/>
        <pt x="51" y="459" on="1"/>
        <pt x="51" y="509" on="0"/>
        <pt x="122" y="580" on="0"/>
      </contour>
      <contour>
        <pt x="520" y="498" on="1"/>
        <pt x="172" y="498" on="1"/>
        <pt x="156" y="498" on="0"/>
        <pt x="133" y="475" on="0"/>
        <pt x="133" y="459" on="1"/>
        <pt x="133" y="121" on="1"/>
        <pt x="133" y="105" on="0"/>
        <pt x="156" y="82" on="0"/>
        <pt x="172" y="82" on="1"/>
        <pt x="520" y="82" on="1"/>
        <pt x="536" y="82" on="0"/>
        <pt x="559" y="105" on="0"/>
        <pt x="559" y="121" on="1"/>
        <pt x="559" y="459" on="1"/>
        <pt x="559" y="475" on="0"/>
        <pt x="536" y="498" on="0"/>
      </contour>
      <contour>
        <pt x="272" y="764" on="1"/>
        <pt x="307" y="903" on="1"/>
        <pt x="386" y="903" on="1"/>
        <pt x="352" y="764" on="1"/>
      </contour>
    </TTGlyph>
    <TTGlyph name="ocircumflex" xMin="51" yMin="0" xMax="642" yMax="880">
      <contour>
        <pt x="172" y="580" on="1"/>
        <pt x="520" y="580" on="1"/>
        <pt x="571" y="580" on="0"/>
        <pt x="642" y="509" on="0"/>
        <pt x="642" y="459" on="1"/>
        <pt x="642" y="121" on="1"/>
        <pt x="642" y="71" on="0"/>
        <pt x="571" y="0" on="0"/>
        <pt x="520" y="0" on="1"/>
        <pt x="172" y="0" on="1"/>
        <pt x="122" y="0" on="0"/>
        <pt x="51" y="71" on="0"/>
        <pt x="51" y="121" on="1"/>
        <pt x="51" y="459" on="1"/>
        <pt x="51" y="509" on="0"/>
        <pt x="122" y="580" on="0"/>
      </contour>
      <contour>
        <pt x="520" y="498" on="1"/>
        <pt x="172" y="498" on="1"/>
        <pt x="156" y="498" on="0"/>
        <pt x="133" y="475" on="0"/>
        <pt x="133" y="459" on="1"/>
        <pt x="133" y="121" on="1"/>
        <pt x="133" y="105" on="0"/>
        <pt x="156" y="82" on="0"/>
        <pt x="172" y="82" on="1"/>
        <pt x="520" y="82" on="1"/>
        <pt x="536" y="82" on="0"/>
        <pt x="559" y="105" on="0"/>
        <pt x="559" y="121" on="1"/>
        <pt x="559" y="459" on="1"/>
        <pt x="559" y="475" on="0"/>
        <pt x="536" y="498" on="0"/>
      </contour>
      <contour>
        <pt x="265" y="763" on="1"/>
        <pt x="224" y="763" on="1"/>
        <pt x="295" y="880" on="1"/>
        <pt x="354" y="880" on="1"/>
        <pt x="425" y="763" on="1"/>
        <pt x="383" y="763" on="1"/>
        <pt x="325" y="848" on="1"/>
      </contour>
    </TTGlyph>
    <TTGlyph name="odieresis" xMin="51" yMin="0" xMax="642" yMax="847">
      <contour>
        <pt x="172" y="580" on="1"/>
        <pt x="520" y="580" on="1"/>
        <pt x="571" y="580" on="0"/>
        <pt x="642" y="509" on="0"/>
        <pt x="642" y="459" on="1"/>
        <pt x="642" y="121" on="1"/>
        <pt x="642" y="71" on="0"/>
        <pt x="571" y="0" on="0"/>
        <pt x="520" y="0" on="1"/>
        <pt x="172" y="0" on="1"/>
        <pt x="122" y="0" on="0"/>
        <pt x="51" y="71" on="0"/>
        <pt x="51" y="121" on="1"/>
        <pt x="51" y="459" on="1"/>
        <pt x="51" y="509" on="0"/>
        <pt x="122" y="580" on="0"/>
      </contour>
      <contour>
        <pt x="520" y="498" on="1"/>
        <pt x="172" y="498" on="1"/>
        <pt x="156" y="498" on="0"/>
        <pt x="133" y="475" on="0"/>
        <pt x="133" y="459" on="1"/>
        <pt x="133" y="121" on="1"/>
        <pt x="133" y="105" on="0"/>
        <pt x="156" y="82" on="0"/>
        <pt x="172" y="82" on="1"/>
        <pt x="520" y="82" on="1"/>
        <pt x="536" y="82" on="0"/>
        <pt x="559" y="105" on="0"/>
        <pt x="559" y="121" on="1"/>
        <pt x="559" y="459" on="1"/>
        <pt x="559" y="475" on="0"/>
        <pt x="536" y="498" on="0"/>
      </contour>
      <contour>
        <pt x="469" y="847" on="1"/>
        <pt x="469" y="765" on="1"/>
        <pt x="387" y="765" on="1"/>
        <pt x="387" y="847" on="1"/>
      </contour>
      <contour>
        <pt x="290" y="847" on="1"/>
        <pt x="290" y="765" on="1"/>
        <pt x="207" y="765" on="1"/>
        <pt x="207" y="847" on="1"/>
      </contour>
    </TTGlyph>
    <TTGlyph name="oe" xMin="52" yMin="0" xMax="1150" yMax="580">
      <contour>
        <pt x="1150" y="249" on="1"/>
        <pt x="642" y="249" on="1"/>
        <pt x="642" y="121" on="1"/>
        <pt x="642" y="105" on="0"/>
        <pt x="665" y="82" on="0"/>
        <pt x="681" y="82" on="1"/>
        <pt x="1150" y="82" on="1"/>
        <pt x="1150" y="0" on="1"/>
        <pt x="173" y="0" on="1"/>
        <pt x="122" y="0" on="0"/>
        <pt x="52" y="71" on="0"/>
        <pt x="52" y="121" on="1"/>
        <pt x="52" y="459" on="1"/>
        <pt x="52" y="509" on="0"/>
        <pt x="122" y="580" on="0"/>
        <pt x="173" y="580" on="1"/>
        <pt x="1029" y="580" on="1"/>
        <pt x="1080" y="580" on="0"/>
        <pt x="1150" y="509" on="0"/>
        <pt x="1150" y="459" on="1"/>
      </contour>
      <contour>
        <pt x="681" y="498" on="1"/>
        <pt x="665" y="498" on="0"/>
        <pt x="642" y="475" on="0"/>
        <pt x="642" y="459" on="1"/>
        <pt x="642" y="331" on="1"/>
        <pt x="1068" y="331" on="1"/>
        <pt x="1068" y="459" on="1"/>
        <pt x="1068" y="475" on="0"/>
        <pt x="1045" y="498" on="0"/>
        <pt x="1029" y="498" on="1"/>
      </contour>
      <contour>
        <pt x="521" y="82" on="1"/>
        <pt x="537" y="82" on="0"/>
        <pt x="560" y="105" on="0"/>
        <pt x="560" y="121" on="1"/>
        <pt x="560" y="459" on="1"/>
        <pt x="560" y="475" on="0"/>
        <pt x="537" y="498" on="0"/>
        <pt x="521" y="498" on="1"/>
        <pt x="173" y="498" on="1"/>
        <pt x="157" y="498" on="0"/>
        <pt x="134" y="475" on="0"/>
        <pt x="134" y="459" on="1"/>
        <pt x="134" y="121" on="1"/>
        <pt x="134" y="105" on="0"/>
        <pt x="157" y="82" on="0"/>
        <pt x="173" y="82" on="1"/>
      </contour>
    </TTGlyph>
    <TTGlyph name="ograve" xMin="51" yMin="0" xMax="642" yMax="903">
      <contour>
        <pt x="172" y="580" on="1"/>
        <pt x="520" y="580" on="1"/>
        <pt x="571" y="580" on="0"/>
        <pt x="642" y="509" on="0"/>
        <pt x="642" y="459" on="1"/>
        <pt x="642" y="121" on="1"/>
        <pt x="642" y="71" on="0"/>
        <pt x="571" y="0" on="0"/>
        <pt x="520" y="0" on="1"/>
        <pt x="172" y="0" on="1"/>
        <pt x="122" y="0" on="0"/>
        <pt x="51" y="71" on="0"/>
        <pt x="51" y="121" on="1"/>
        <pt x="51" y="459" on="1"/>
        <pt x="51" y="509" on="0"/>
        <pt x="122" y="580" on="0"/>
      </contour>
      <contour>
        <pt x="520" y="498" on="1"/>
        <pt x="172" y="498" on="1"/>
        <pt x="156" y="498" on="0"/>
        <pt x="133" y="475" on="0"/>
        <pt x="133" y="459" on="1"/>
        <pt x="133" y="121" on="1"/>
        <pt x="133" y="105" on="0"/>
        <pt x="156" y="82" on="0"/>
        <pt x="172" y="82" on="1"/>
        <pt x="520" y="82" on="1"/>
        <pt x="536" y="82" on="0"/>
        <pt x="559" y="105" on="0"/>
        <pt x="559" y="121" on="1"/>
        <pt x="559" y="459" on="1"/>
        <pt x="559" y="475" on="0"/>
        <pt x="536" y="498" on="0"/>
      </contour>
      <contour>
        <pt x="353" y="903" on="1"/>
        <pt x="387" y="764" on="1"/>
        <pt x="307" y="764" on="1"/>
        <pt x="272" y="903" on="1"/>
      </contour>
    </TTGlyph>
    <TTGlyph name="one" xMin="1" yMin="0" xMax="302" yMax="720">
      <contour>
        <pt x="1" y="495" on="1"/>
        <pt x="190" y="720" on="1"/>
        <pt x="302" y="720" on="1"/>
        <pt x="302" y="0" on="1"/>
        <pt x="219" y="0" on="1"/>
        <pt x="219" y="628" on="1"/>
        <pt x="205" y="610" on="0"/>
        <pt x="122" y="512" on="0"/>
        <pt x="108" y="495" on="1"/>
      </contour>
    </TTGlyph>
    <TTGlyph name="otilde" xMin="51" yMin="0" xMax="642" yMax="885">
      <contour>
        <pt x="172" y="580" on="1"/>
        <pt x="520" y="580" on="1"/>
        <pt x="571" y="580" on="0"/>
        <pt x="642" y="509" on="0"/>
        <pt x="642" y="459" on="1"/>
        <pt x="642" y="121" on="1"/>
        <pt x="642" y="71" on="0"/>
        <pt x="571" y="0" on="0"/>
        <pt x="520" y="0" on="1"/>
        <pt x="172" y="0" on="1"/>
        <pt x="122" y="0" on="0"/>
        <pt x="51" y="71" on="0"/>
        <pt x="51" y="121" on="1"/>
        <pt x="51" y="459" on="1"/>
        <pt x="51" y="509" on="0"/>
        <pt x="122" y="580" on="0"/>
      </contour>
      <contour>
        <pt x="520" y="498" on="1"/>
        <pt x="172" y="498" on="1"/>
        <pt x="156" y="498" on="0"/>
        <pt x="133" y="475" on="0"/>
        <pt x="133" y="459" on="1"/>
        <pt x="133" y="121" on="1"/>
        <pt x="133" y="105" on="0"/>
        <pt x="156" y="82" on="0"/>
        <pt x="172" y="82" on="1"/>
        <pt x="520" y="82" on="1"/>
        <pt x="536" y="82" on="0"/>
        <pt x="559" y="105" on="0"/>
        <pt x="559" y="121" on="1"/>
        <pt x="559" y="459" on="1"/>
        <pt x="559" y="475" on="0"/>
        <pt x="536" y="498" on="0"/>
      </contour>
      <contour>
        <pt x="441" y="813" on="1"/>
        <pt x="443" y="813" on="1"/>
        <pt x="473" y="813" on="0"/>
        <pt x="509" y="830" on="1"/>
        <pt x="509" y="779" on="1"/>
        <pt x="471" y="765" on="0"/>
        <pt x="443" y="765" on="1"/>
        <pt x="408" y="765" on="0"/>
        <pt x="274" y="837" on="0"/>
        <pt x="232" y="837" on="1"/>
        <pt x="193" y="837" on="0"/>
        <pt x="170" y="829" on="1"/>
        <pt x="170" y="876" on="1"/>
        <pt x="197" y="885" on="0"/>
        <pt x="232" y="885" on="1"/>
        <pt x="272" y="885" on="0"/>
        <pt x="406" y="818" on="0"/>
      </contour>
    </TTGlyph>
    <TTGlyph name="p" xMin="54" yMin="-230" xMax="645" yMax="580">
      <contour>
        <pt x="524" y="580" on="1"/>
        <pt x="574" y="580" on="0"/>
        <pt x="645" y="509" on="0"/>
        <pt x="645" y="459" on="1"/>
        <pt x="645" y="121" on="1"/>
        <pt x="645" y="71" on="0"/>
        <pt x="574" y="0" on="0"/>
        <pt x="524" y="0" on="1"/>
        <pt x="136" y="0" on="1"/>
        <pt x="136" y="-230" on="1"/>
        <pt x="54" y="-230" on="1"/>
        <pt x="54" y="580" on="1"/>
      </contour>
      <contour>
        <pt x="563" y="121" on="1"/>
        <pt x="563" y="459" on="1"/>
        <pt x="563" y="475" on="0"/>
        <pt x="540" y="498" on="0"/>
        <pt x="524" y="498" on="1"/>
        <pt x="176" y="498" on="1"/>
        <pt x="160" y="498" on="0"/>
        <pt x="136" y="475" on="0"/>
        <pt x="136" y="459" on="1"/>
        <pt x="136" y="121" on="1"/>
        <pt x="136" y="105" on="0"/>
        <pt x="160" y="82" on="0"/>
        <pt x="176" y="82" on="1"/>
        <pt x="524" y="82" on="1"/>
        <pt x="540" y="82" on="0"/>
        <pt x="563" y="105" on="0"/>
      </contour>
    </TTGlyph>
    <TTGlyph name="p.sc" xMin="54" yMin="0" xMax="645" yMax="580">
      <contour>
        <pt x="54" y="580" on="1"/>
        <pt x="524" y="580" on="1"/>
        <pt x="574" y="580" on="0"/>
        <pt x="645" y="509" on="0"/>
        <pt x="645" y="459" on="1"/>
        <pt x="645" y="329" on="1"/>
        <pt x="645" y="279" on="0"/>
        <pt x="574" y="208" on="0"/>
        <pt x="524" y="208" on="1"/>
        <pt x="176" y="208" on="1"/>
        <pt x="166" y="208" on="0"/>
        <pt x="136" y="212" on="1"/>
        <pt x="136" y="0" on="1"/>
        <pt x="54" y="0" on="1"/>
      </contour>
      <contour>
        <pt x="563" y="329" on="1"/>
        <pt x="563" y="459" on="1"/>
        <pt x="563" y="475" on="0"/>
        <pt x="540" y="498" on="0"/>
        <pt x="524" y="498" on="1"/>
        <pt x="176" y="498" on="1"/>
        <pt x="160" y="498" on="0"/>
        <pt x="136" y="475" on="0"/>
        <pt x="136" y="459" on="1"/>
        <pt x="136" y="329" on="1"/>
        <pt x="136" y="313" on="0"/>
        <pt x="160" y="290" on="0"/>
        <pt x="176" y="290" on="1"/>
        <pt x="524" y="290" on="1"/>
        <pt x="540" y="290" on="0"/>
        <pt x="563" y="313" on="0"/>
      </contour>
    </TTGlyph>
    <TTGlyph name="paragraph" xMin="56" yMin="0" xMax="783" yMax="727">
      <contour>
        <pt x="56" y="605" on="1"/>
        <pt x="56" y="656" on="0"/>
        <pt x="126" y="727" on="0"/>
        <pt x="177" y="727" on="1"/>
        <pt x="783" y="727" on="1"/>
        <pt x="783" y="0" on="1"/>
        <pt x="701" y="0" on="1"/>
        <pt x="701" y="271" on="1"/>
        <pt x="563" y="271" on="1"/>
        <pt x="563" y="0" on="1"/>
        <pt x="481" y="0" on="1"/>
        <pt x="481" y="271" on="1"/>
        <pt x="177" y="271" on="1"/>
        <pt x="126" y="271" on="0"/>
        <pt x="56" y="342" on="0"/>
        <pt x="56" y="392" on="1"/>
      </contour>
      <contour>
        <pt x="563" y="644" on="1"/>
        <pt x="563" y="353" on="1"/>
        <pt x="701" y="353" on="1"/>
        <pt x="701" y="644" on="1"/>
      </contour>
      <contour>
        <pt x="138" y="605" on="1"/>
        <pt x="138" y="392" on="1"/>
        <pt x="138" y="376" on="0"/>
        <pt x="161" y="353" on="0"/>
        <pt x="177" y="353" on="1"/>
        <pt x="481" y="353" on="1"/>
        <pt x="481" y="644" on="1"/>
        <pt x="177" y="644" on="1"/>
        <pt x="161" y="644" on="0"/>
        <pt x="138" y="621" on="0"/>
      </contour>
    </TTGlyph>
    <TTGlyph name="parenleft" xMin="52" yMin="0" xMax="202" yMax="720">
      <contour>
        <pt x="173" y="82" on="1"/>
        <pt x="202" y="82" on="1"/>
        <pt x="202" y="0" on="1"/>
        <pt x="173" y="0" on="1"/>
        <pt x="123" y="0" on="0"/>
        <pt x="52" y="71" on="0"/>
        <pt x="52" y="121" on="1"/>
        <pt x="52" y="598" on="1"/>
        <pt x="52" y="649" on="0"/>
        <pt x="123" y="720" on="0"/>
        <pt x="173" y="720" on="1"/>
        <pt x="202" y="720" on="1"/>
        <pt x="202" y="637" on="1"/>
        <pt x="173" y="637" on="1"/>
        <pt x="157" y="637" on="0"/>
        <pt x="134" y="614" on="0"/>
        <pt x="134" y="598" on="1"/>
        <pt x="134" y="121" on="1"/>
        <pt x="134" y="105" on="0"/>
        <pt x="157" y="82" on="0"/>
      </contour>
    </TTGlyph>
    <TTGlyph name="parenright" xMin="56" yMin="0" xMax="206" yMax="720">
      <contour>
        <pt x="56" y="0" on="1"/>
        <pt x="56" y="82" on="1"/>
        <pt x="84" y="82" on="1"/>
        <pt x="100" y="82" on="0"/>
        <pt x="123" y="105" on="0"/>
        <pt x="123" y="121" on="1"/>
        <pt x="123" y="598" on="1"/>
        <pt x="123" y="614" on="0"/>
        <pt x="100" y="637" on="0"/>
        <pt x="84" y="637" on="1"/>
        <pt x="56" y="637" on="1"/>
        <pt x="56" y="720" on="1"/>
        <pt x="84" y="720" on="1"/>
        <pt x="134" y="720" on="0"/>
        <pt x="206" y="649" on="0"/>
        <pt x="206" y="598" on="1"/>
        <pt x="206" y="121" on="1"/>
        <pt x="206" y="71" on="0"/>
        <pt x="134" y="0" on="0"/>
        <pt x="84" y="0" on="1"/>
      </contour>
    </TTGlyph>
    <TTGlyph name="percent" xMin="48" yMin="-1" xMax="932" yMax="721">
      <contour>
        <pt x="137" y="0" on="1"/>
        <pt x="137" y="108" on="1"/>
        <pt x="865" y="721" on="1"/>
        <pt x="865" y="614" on="1"/>
      </contour>
      <contour>
        <pt x="170" y="720" on="1"/>
        <pt x="264" y="720" on="1"/>
        <pt x="315" y="720" on="0"/>
        <pt x="386" y="649" on="0"/>
        <pt x="386" y="598" on="1"/>
        <pt x="386" y="514" on="1"/>
        <pt x="386" y="464" on="0"/>
        <pt x="315" y="393" on="0"/>
        <pt x="264" y="393" on="1"/>
        <pt x="170" y="393" on="1"/>
        <pt x="119" y="393" on="0"/>
        <pt x="48" y="464" on="0"/>
        <pt x="48" y="514" on="1"/>
        <pt x="48" y="598" on="1"/>
        <pt x="48" y="649" on="0"/>
        <pt x="119" y="720" on="0"/>
      </contour>
      <contour>
        <pt x="148" y="454" on="1"/>
        <pt x="286" y="454" on="1"/>
        <pt x="302" y="454" on="0"/>
        <pt x="325" y="477" on="0"/>
        <pt x="325" y="493" on="1"/>
        <pt x="325" y="619" on="1"/>
        <pt x="325" y="635" on="0"/>
        <pt x="302" y="658" on="0"/>
        <pt x="286" y="658" on="1"/>
        <pt x="148" y="658" on="1"/>
        <pt x="132" y="658" on="0"/>
        <pt x="109" y="635" on="0"/>
        <pt x="109" y="619" on="1"/>
        <pt x="109" y="493" on="1"/>
        <pt x="109" y="477" on="0"/>
        <pt x="132" y="454" on="0"/>
      </contour>
      <contour>
        <pt x="716" y="326" on="1"/>
        <pt x="811" y="326" on="1"/>
        <pt x="861" y="326" on="0"/>
        <pt x="932" y="255" on="0"/>
        <pt x="932" y="205" on="1"/>
        <pt x="932" y="120" on="1"/>
        <pt x="932" y="70" on="0"/>
        <pt x="861" y="-1" on="0"/>
        <pt x="811" y="-1" on="1"/>
        <pt x="716" y="-1" on="1"/>
        <pt x="665" y="-1" on="0"/>
        <pt x="595" y="70" on="0"/>
        <pt x="595" y="120" on="1"/>
        <pt x="595" y="205" on="1"/>
        <pt x="595" y="255" on="0"/>
        <pt x="665" y="326" on="0"/>
      </contour>
      <contour>
        <pt x="695" y="60" on="1"/>
        <pt x="832" y="60" on="1"/>
        <pt x="848" y="60" on="0"/>
        <pt x="871" y="83" on="0"/>
        <pt x="871" y="99" on="1"/>
        <pt x="871" y="226" on="1"/>
        <pt x="871" y="242" on="0"/>
        <pt x="848" y="265" on="0"/>
        <pt x="832" y="265" on="1"/>
        <pt x="695" y="265" on="1"/>
        <pt x="679" y="265" on="0"/>
        <pt x="656" y="242" on="0"/>
        <pt x="656" y="226" on="1"/>
        <pt x="656" y="99" on="1"/>
        <pt x="656" y="83" on="0"/>
        <pt x="679" y="60" on="0"/>
      </contour>
    </TTGlyph>
    <TTGlyph name="period" xMin="54" yMin="0" xMax="136" yMax="82">
      <contour>
        <pt x="136" y="82" on="1"/>
        <pt x="136" y="0" on="1"/>
        <pt x="54" y="0" on="1"/>
        <pt x="54" y="82" on="1"/>
      </contour>
    </TTGlyph>
    <TTGlyph name="plus" xMin="17" yMin="100" xMax="407" yMax="490">
      <contour>
        <pt x="169" y="490" on="1"/>
        <pt x="251" y="490" on="1"/>
        <pt x="251" y="337" on="1"/>
        <pt x="407" y="337" on="1"/>
        <pt x="407" y="255" on="1"/>
        <pt x="251" y="255" on="1"/>
        <pt x="251" y="100" on="1"/>
        <pt x="169" y="100" on="1"/>
        <pt x="169" y="255" on="1"/>
        <pt x="17" y="255" on="1"/>
        <pt x="17" y="337" on="1"/>
        <pt x="169" y="337" on="1"/>
      </contour>
    </TTGlyph>
    <TTGlyph name="q" xMin="20" yMin="-230" xMax="611" yMax="580">
      <contour>
        <pt x="20" y="459" on="1"/>
        <pt x="20" y="509" on="0"/>
        <pt x="91" y="580" on="0"/>
        <pt x="142" y="580" on="1"/>
        <pt x="611" y="580" on="1"/>
        <pt x="611" y="-230" on="1"/>
        <pt x="529" y="-230" on="1"/>
        <pt x="529" y="0" on="1"/>
        <pt x="142" y="0" on="1"/>
        <pt x="91" y="0" on="0"/>
        <pt x="20" y="71" on="0"/>
        <pt x="20" y="121" on="1"/>
      </contour>
      <contour>
        <pt x="103" y="459" on="1"/>
        <pt x="103" y="121" on="1"/>
        <pt x="103" y="105" on="0"/>
        <pt x="126" y="82" on="0"/>
        <pt x="142" y="82" on="1"/>
        <pt x="490" y="82" on="1"/>
        <pt x="506" y="82" on="0"/>
        <pt x="529" y="105" on="0"/>
        <pt x="529" y="121" on="1"/>
        <pt x="529" y="459" on="1"/>
        <pt x="529" y="475" on="0"/>
        <pt x="506" y="498" on="0"/>
        <pt x="490" y="498" on="1"/>
        <pt x="142" y="498" on="1"/>
        <pt x="126" y="498" on="0"/>
        <pt x="103" y="475" on="0"/>
      </contour>
    </TTGlyph>
    <TTGlyph name="q.sc" xMin="52" yMin="0" xMax="737" yMax="580">
      <contour>
        <pt x="638" y="82" on="1"/>
        <pt x="737" y="82" on="1"/>
        <pt x="737" y="0" on="1"/>
        <pt x="173" y="0" on="1"/>
        <pt x="123" y="0" on="0"/>
        <pt x="52" y="71" on="0"/>
        <pt x="52" y="121" on="1"/>
        <pt x="52" y="459" on="1"/>
        <pt x="52" y="509" on="0"/>
        <pt x="123" y="580" on="0"/>
        <pt x="173" y="580" on="1"/>
        <pt x="521" y="580" on="1"/>
        <pt x="572" y="580" on="0"/>
        <pt x="643" y="509" on="0"/>
        <pt x="643" y="459" on="1"/>
        <pt x="643" y="121" on="1"/>
        <pt x="643" y="120" on="0"/>
      </contour>
      <contour>
        <pt x="173" y="82" on="1"/>
        <pt x="521" y="82" on="1"/>
        <pt x="537" y="82" on="0"/>
        <pt x="560" y="105" on="0"/>
        <pt x="560" y="121" on="1"/>
        <pt x="560" y="459" on="1"/>
        <pt x="560" y="475" on="0"/>
        <pt x="537" y="498" on="0"/>
        <pt x="521" y="498" on="1"/>
        <pt x="173" y="498" on="1"/>
        <pt x="157" y="498" on="0"/>
        <pt x="134" y="475" on="0"/>
        <pt x="134" y="459" on="1"/>
        <pt x="134" y="121" on="1"/>
        <pt x="134" y="105" on="0"/>
        <pt x="157" y="82" on="0"/>
      </contour>
    </TTGlyph>
    <TTGlyph name="question" xMin="31" yMin="0" xMax="669" yMax="720">
      <contour>
        <pt x="31" y="720" on="1"/>
        <pt x="548" y="719" on="1"/>
        <pt x="598" y="719" on="0"/>
        <pt x="669" y="648" on="0"/>
        <pt x="669" y="597" on="1"/>
        <pt x="669" y="403" on="1"/>
        <pt x="669" y="353" on="0"/>
        <pt x="598" y="282" on="0"/>
        <pt x="548" y="282" on="1"/>
        <pt x="274" y="282" on="1"/>
        <pt x="258" y="282" on="0"/>
        <pt x="235" y="259" on="0"/>
        <pt x="235" y="243" on="1"/>
        <pt x="235" y="201" on="1"/>
        <pt x="153" y="201" on="1"/>
        <pt x="153" y="243" on="1"/>
        <pt x="153" y="294" on="0"/>
        <pt x="224" y="364" on="0"/>
        <pt x="274" y="364" on="1"/>
        <pt x="548" y="364" on="1"/>
        <pt x="564" y="364" on="0"/>
        <pt x="587" y="387" on="0"/>
        <pt x="587" y="403" on="1"/>
        <pt x="587" y="597" on="1"/>
        <pt x="587" y="613" on="0"/>
        <pt x="564" y="636" on="0"/>
        <pt x="548" y="636" on="1"/>
        <pt x="31" y="636" on="1"/>
      </contour>
      <contour>
        <pt x="235" y="0" on="1"/>
        <pt x="153" y="0" on="1"/>
        <pt x="153" y="82" on="1"/>
        <pt x="235" y="82" on="1"/>
      </contour>
    </TTGlyph>
    <TTGlyph name="question.alt" xMin="27" yMin="0" xMax="647" yMax="720">
      <contour>
        <pt x="146" y="720" on="1"/>
        <pt x="526" y="720" on="1"/>
        <pt x="576" y="720" on="0"/>
        <pt x="647" y="649" on="0"/>
        <pt x="647" y="598" on="1"/>
        <pt x="647" y="404" on="1"/>
        <pt x="647" y="354" on="0"/>
        <pt x="576" y="283" on="0"/>
        <pt x="526" y="283" on="1"/>
        <pt x="326" y="283" on="1"/>
        <pt x="310" y="283" on="0"/>
        <pt x="287" y="260" on="0"/>
        <pt x="287" y="244" on="1"/>
        <pt x="287" y="151" on="1"/>
        <pt x="204" y="151" on="1"/>
        <pt x="204" y="244" on="1"/>
        <pt x="204" y="295" on="0"/>
        <pt x="275" y="365" on="0"/>
        <pt x="326" y="365" on="1"/>
        <pt x="526" y="365" on="1"/>
        <pt x="542" y="365" on="0"/>
        <pt x="565" y="388" on="0"/>
        <pt x="565" y="404" on="1"/>
        <pt x="565" y="598" on="1"/>
        <pt x="565" y="614" on="0"/>
        <pt x="542" y="637" on="0"/>
        <pt x="526" y="637" on="1"/>
        <pt x="109" y="637" on="1"/>
        <pt x="109" y="523" on="1"/>
        <pt x="27" y="523" on="1"/>
        <pt x="27" y="619" on="1"/>
        <pt x="38" y="660" on="0"/>
        <pt x="105" y="720" on="0"/>
      </contour>
      <contour>
        <pt x="287" y="0" on="1"/>
        <pt x="204" y="0" on="1"/>
        <pt x="204" y="82" on="1"/>
        <pt x="287" y="82" on="1"/>
      </contour>
    </TTGlyph>
    <TTGlyph name="questiondown" xMin="19" yMin="-8" xMax="656" yMax="728">
      <contour>
        <pt x="656" y="-8" on="1"/>
        <pt x="140" y="0" on="1"/>
        <pt x="89" y="0" on="0"/>
        <pt x="19" y="71" on="0"/>
        <pt x="19" y="121" on="1"/>
        <pt x="19" y="315" on="1"/>
        <pt x="19" y="366" on="0"/>
        <pt x="89" y="437" on="0"/>
        <pt x="140" y="437" on="1"/>
        <pt x="413" y="437" on="1"/>
        <pt x="429" y="437" on="0"/>
        <pt x="452" y="460" on="0"/>
        <pt x="452" y="476" on="1"/>
        <pt x="452" y="524" on="1"/>
        <pt x="534" y="524" on="1"/>
        <pt x="534" y="476" on="1"/>
        <pt x="534" y="425" on="0"/>
        <pt x="464" y="354" on="0"/>
        <pt x="413" y="354" on="1"/>
        <pt x="140" y="354" on="1"/>
        <pt x="124" y="354" on="0"/>
        <pt x="101" y="331" on="0"/>
        <pt x="101" y="315" on="1"/>
        <pt x="101" y="121" on="1"/>
        <pt x="101" y="105" on="0"/>
        <pt x="124" y="82" on="0"/>
        <pt x="140" y="82" on="1"/>
        <pt x="648" y="82" on="1"/>
        <pt x="648" y="53" on="0"/>
        <pt x="652" y="8" on="0"/>
        <pt x="654" y="0" on="1"/>
      </contour>
      <contour>
        <pt x="534" y="728" on="1"/>
        <pt x="534" y="645" on="1"/>
        <pt x="452" y="645" on="1"/>
        <pt x="452" y="728" on="1"/>
      </contour>
    </TTGlyph>
    <TTGlyph name="quotedbl" xMin="59" yMin="580" xMax="296" yMax="720">
      <contour>
        <pt x="141" y="720" on="1"/>
        <pt x="141" y="580" on="1"/>
        <pt x="59" y="580" on="1"/>
        <pt x="59" y="720" on="1"/>
      </contour>
      <contour>
        <pt x="296" y="720" on="1"/>
        <pt x="296" y="580" on="1"/>
        <pt x="214" y="580" on="1"/>
        <pt x="214" y="720" on="1"/>
      </contour>
    </TTGlyph>
    <TTGlyph name="quotedblleft" xMin="47" yMin="502" xMax="310" yMax="715">
      <contour>
        <pt x="130" y="502" on="1"/>
        <pt x="47" y="502" on="1"/>
        <pt x="47" y="600" on="1"/>
        <pt x="47" y="640" on="0"/>
        <pt x="93" y="704" on="0"/>
        <pt x="130" y="715" on="1"/>
      </contour>
      <contour>
        <pt x="310" y="502" on="1"/>
        <pt x="228" y="502" on="1"/>
        <pt x="228" y="600" on="1"/>
        <pt x="228" y="640" on="0"/>
        <pt x="273" y="704" on="0"/>
        <pt x="310" y="715" on="1"/>
      </contour>
    </TTGlyph>
    <TTGlyph name="quotedblright" xMin="54" yMin="508" xMax="317" yMax="721">
      <contour>
        <pt x="235" y="721" on="1"/>
        <pt x="317" y="721" on="1"/>
        <pt x="317" y="623" on="1"/>
        <pt x="317" y="583" on="0"/>
        <pt x="271" y="519" on="0"/>
        <pt x="235" y="508" on="1"/>
      </contour>
      <contour>
        <pt x="54" y="721" on="1"/>
        <pt x="137" y="721" on="1"/>
        <pt x="137" y="623" on="1"/>
        <pt x="137" y="583" on="0"/>
        <pt x="91" y="519" on="0"/>
        <pt x="54" y="508" on="1"/>
      </contour>
    </TTGlyph>
    <TTGlyph name="quoteleft" xMin="33" yMin="503" xMax="116" yMax="716">
      <contour>
        <pt x="116" y="503" on="1"/>
        <pt x="33" y="503" on="1"/>
        <pt x="33" y="601" on="1"/>
        <pt x="33" y="641" on="0"/>
        <pt x="79" y="705" on="0"/>
        <pt x="116" y="716" on="1"/>
      </contour>
    </TTGlyph>
    <TTGlyph name="quoteright" xMin="54" yMin="508" xMax="136" yMax="721">
      <contour>
        <pt x="54" y="721" on="1"/>
        <pt x="136" y="721" on="1"/>
        <pt x="136" y="623" on="1"/>
        <pt x="136" y="583" on="0"/>
        <pt x="90" y="519" on="0"/>
        <pt x="54" y="508" on="1"/>
      </contour>
    </TTGlyph>
    <TTGlyph name="quotesingle" xMin="59" yMin="580" xMax="141" yMax="720">
      <contour>
        <pt x="141" y="720" on="1"/>
        <pt x="141" y="580" on="1"/>
        <pt x="59" y="580" on="1"/>
        <pt x="59" y="720" on="1"/>
      </contour>
    </TTGlyph>
    <TTGlyph name="r" xMin="52" yMin="0" xMax="499" yMax="580">
      <contour>
        <pt x="173" y="580" on="1"/>
        <pt x="499" y="580" on="1"/>
        <pt x="499" y="498" on="1"/>
        <pt x="173" y="498" on="1"/>
        <pt x="157" y="498" on="0"/>
        <pt x="134" y="475" on="0"/>
        <pt x="134" y="459" on="1"/>
        <pt x="134" y="0" on="1"/>
        <pt x="52" y="0" on="1"/>
        <pt x="52" y="459" on="1"/>
        <pt x="52" y="509" on="0"/>
        <pt x="123" y="580" on="0"/>
      </contour>
    </TTGlyph>
    <TTGlyph name="r.sc" xMin="54" yMin="0" xMax="647" yMax="580">
      <contour>
        <pt x="644" y="459" on="1"/>
        <pt x="644" y="329" on="1"/>
        <pt x="644" y="279" on="0"/>
        <pt x="574" y="208" on="0"/>
        <pt x="523" y="208" on="1"/>
        <pt x="416" y="208" on="1"/>
        <pt x="647" y="0" on="1"/>
        <pt x="542" y="0" on="1"/>
        <pt x="314" y="208" on="1"/>
        <pt x="136" y="208" on="1"/>
        <pt x="136" y="0" on="1"/>
        <pt x="54" y="0" on="1"/>
        <pt x="54" y="580" on="1"/>
        <pt x="523" y="580" on="1"/>
        <pt x="574" y="580" on="0"/>
        <pt x="644" y="509" on="0"/>
      </contour>
      <contour>
        <pt x="175" y="290" on="1"/>
        <pt x="523" y="290" on="1"/>
        <pt x="539" y="290" on="0"/>
        <pt x="562" y="313" on="0"/>
        <pt x="562" y="329" on="1"/>
        <pt x="562" y="459" on="1"/>
        <pt x="562" y="475" on="0"/>
        <pt x="539" y="498" on="0"/>
        <pt x="523" y="498" on="1"/>
        <pt x="175" y="498" on="1"/>
        <pt x="159" y="498" on="0"/>
        <pt x="136" y="475" on="0"/>
        <pt x="136" y="459" on="1"/>
        <pt x="136" y="329" on="1"/>
        <pt x="136" y="313" on="0"/>
        <pt x="159" y="290" on="0"/>
      </contour>
    </TTGlyph>
    <TTGlyph name="ring" xMin="35" yMin="828" xMax="199" yMax="988">
      <contour>
        <pt x="89" y="988" on="1"/>
        <pt x="145" y="988" on="1"/>
        <pt x="167" y="988" on="0"/>
        <pt x="199" y="957" on="0"/>
        <pt x="199" y="935" on="1"/>
        <pt x="199" y="881" on="1"/>
        <pt x="199" y="859" on="0"/>
        <pt x="167" y="828" on="0"/>
        <pt x="145" y="828" on="1"/>
        <pt x="89" y="828" on="1"/>
        <pt x="67" y="828" on="0"/>
        <pt x="35" y="859" on="0"/>
        <pt x="35" y="881" on="1"/>
        <pt x="35" y="935" on="1"/>
        <pt x="35" y="957" on="0"/>
        <pt x="67" y="988" on="0"/>
      </contour>
      <contour>
        <pt x="84" y="868" on="1"/>
        <pt x="150" y="868" on="1"/>
        <pt x="159" y="868" on="0"/>
        <pt x="159" y="878" on="1"/>
        <pt x="159" y="938" on="1"/>
        <pt x="159" y="948" on="0"/>
        <pt x="150" y="948" on="1"/>
        <pt x="84" y="948" on="1"/>
        <pt x="75" y="948" on="0"/>
        <pt x="75" y="938" on="1"/>
        <pt x="75" y="878" on="1"/>
        <pt x="75" y="868" on="0"/>
      </contour>
    </TTGlyph>
    <TTGlyph name="s" xMin="48" yMin="0" xMax="639" yMax="580">
      <contour>
        <pt x="639" y="459" on="1"/>
        <pt x="639" y="451" on="1"/>
        <pt x="556" y="451" on="1"/>
        <pt x="556" y="459" on="1"/>
        <pt x="556" y="475" on="0"/>
        <pt x="533" y="498" on="0"/>
        <pt x="517" y="498" on="1"/>
        <pt x="169" y="498" on="1"/>
        <pt x="153" y="498" on="0"/>
        <pt x="130" y="475" on="0"/>
        <pt x="130" y="459" on="1"/>
        <pt x="130" y="370" on="1"/>
        <pt x="130" y="354" on="0"/>
        <pt x="153" y="331" on="0"/>
        <pt x="169" y="331" on="1"/>
        <pt x="517" y="331" on="1"/>
        <pt x="568" y="331" on="0"/>
        <pt x="639" y="260" on="0"/>
        <pt x="639" y="210" on="1"/>
        <pt x="639" y="121" on="1"/>
        <pt x="639" y="71" on="0"/>
        <pt x="568" y="0" on="0"/>
        <pt x="517" y="0" on="1"/>
        <pt x="169" y="0" on="1"/>
        <pt x="119" y="0" on="0"/>
        <pt x="48" y="71" on="0"/>
        <pt x="48" y="121" on="1"/>
        <pt x="48" y="129" on="1"/>
        <pt x="130" y="129" on="1"/>
        <pt x="130" y="121" on="1"/>
        <pt x="130" y="105" on="0"/>
        <pt x="153" y="82" on="0"/>
        <pt x="169" y="82" on="1"/>
        <pt x="517" y="82" on="1"/>
        <pt x="533" y="82" on="0"/>
        <pt x="556" y="105" on="0"/>
        <pt x="556" y="121" on="1"/>
        <pt x="556" y="210" on="1"/>
        <pt x="556" y="226" on="0"/>
        <pt x="533" y="249" on="0"/>
        <pt x="517" y="249" on="1"/>
        <pt x="169" y="249" on="1"/>
        <pt x="119" y="249" on="0"/>
        <pt x="48" y="320" on="0"/>
        <pt x="48" y="370" on="1"/>
        <pt x="48" y="459" on="1"/>
        <pt x="48" y="509" on="0"/>
        <pt x="119" y="580" on="0"/>
        <pt x="169" y="580" on="1"/>
        <pt x="517" y="580" on="1"/>
        <pt x="568" y="580" on="0"/>
        <pt x="639" y="509" on="0"/>
      </contour>
    </TTGlyph>
</ttFont>
